<svg width="129" height="126" viewBox="0 0 129 126" fill="none" xmlns="http://www.w3.org/2000/svg">
<path d="M14.9762 53.165C14.5862 52.694 14.7182 52.32 14.9982 52.018C15.4072 51.578 15.8232 51.121 16.3142 50.785C18.5542 49.251 20.8052 47.73 23.0892 46.262C23.9072 45.736 24.5521 45.107 24.9711 44.243C25.6021 42.942 26.2592 41.652 26.8322 40.325C27.3552 39.116 27.2122 37.851 26.9892 36.585C26.7232 35.072 26.4862 33.551 26.2992 32.026C26.0402 29.913 26.4122 27.88 27.1882 25.907C27.7742 24.417 28.3492 22.923 28.8872 21.416C29.7552 18.988 30.3052 16.48 30.5342 13.914C30.8232 10.673 31.2922 7.43899 31.0192 4.16999C31.0092 4.05499 31.0532 3.93499 31.0862 3.73199C31.2102 3.84799 31.3212 3.90399 31.3552 3.99099C32.8232 7.73099 34.2271 11.499 35.1091 15.425C35.7171 18.133 36.0672 20.883 36.0172 23.679C35.9432 27.79 34.5391 31.414 32.1221 34.678C31.3321 35.745 30.4752 36.765 29.6012 37.764C28.6362 38.868 27.8832 40.088 27.2852 41.422C26.9032 42.275 26.4402 43.091 26.0152 43.925C25.9232 44.106 25.8392 44.292 25.6732 44.64C26.7882 44.078 27.7242 43.549 28.7052 43.123C30.4482 42.366 32.1932 41.603 33.9822 40.97C36.1702 40.196 38.0532 38.979 39.5922 37.283C41.4562 35.228 42.6902 32.837 43.0392 30.033C43.3162 27.806 43.8672 25.648 44.7392 23.569C45.4502 21.873 46.4332 20.367 47.6992 19.046C50.2722 16.361 53.0042 13.86 56.0212 11.668C61.0242 8.033 66.0722 4.46799 71.2882 1.14399C71.7332 0.860993 72.1552 0.541994 72.6892 0.169994C72.6462 0.412994 72.6522 0.509996 72.6132 0.582996C70.4462 4.563 68.2922 8.549 65.6542 12.25C63.7172 14.968 61.5482 17.462 58.9572 19.586C57.5582 20.734 56.2162 21.952 54.8692 23.162C52.9662 24.871 51.4062 26.862 50.1102 29.063C48.8512 31.201 47.5412 33.299 45.7432 35.046C44.5272 36.227 43.2792 37.371 41.7642 38.155C41.1272 38.484 40.4232 38.687 39.7432 38.929C39.2732 39.096 38.7911 39.23 38.3151 39.378C38.3311 39.452 38.3472 39.526 38.3642 39.6C38.7002 39.539 39.0391 39.491 39.3721 39.416C44.0261 38.372 48.6672 37.27 53.3362 36.299C56.1402 35.716 58.9902 35.356 61.8132 34.86C62.9872 34.654 64.0032 34.11 64.5412 32.988C65.0892 31.846 65.5992 30.679 66.0372 29.491C67.0142 26.845 68.6242 24.659 70.7352 22.824C73.3442 20.555 76.2242 18.683 79.2832 17.087C83.4632 14.906 87.3852 12.308 91.3092 9.71199C93.5702 8.21599 95.8342 6.726 98.1002 5.237C98.1932 5.176 98.3192 5.165 98.6032 5.076C98.4112 5.662 98.2882 6.144 98.0992 6.597C96.3572 10.771 93.8331 14.444 90.8201 17.786C88.5961 20.253 86.3102 22.669 83.5472 24.561C80.7782 26.456 77.8752 28.1 74.7512 29.359C72.8532 30.124 70.8632 30.684 69.1212 31.82C67.8382 32.657 66.5232 33.446 65.2722 34.412C66.3542 34.201 67.4582 34.069 68.5132 33.764C71.0382 33.035 73.5561 32.275 76.0441 31.431C77.4981 30.938 78.8892 30.26 80.3092 29.664C80.3652 29.641 80.4162 29.604 80.4732 29.588C82.9722 28.852 85.3272 27.752 87.6712 26.647C89.0822 25.981 90.4222 25.15 91.7442 24.314C94.7402 22.419 97.8102 20.713 101.286 19.832C104.426 19.037 107.615 18.56 110.824 18.187C113.579 17.866 116.337 17.57 119.094 17.273C119.52 17.227 119.952 17.239 120.381 17.225C120.405 17.305 120.429 17.385 120.453 17.465C120.197 17.627 119.96 17.837 119.683 17.944C116.84 19.042 113.986 20.109 111.146 21.215C109.262 21.949 107.405 22.751 105.523 23.487C102.69 24.595 99.7372 25.173 96.7102 25.424C93.5062 25.689 90.3712 26.317 87.3712 27.485C86.2252 27.932 85.1502 28.561 84.0372 29.095C81.8372 30.15 79.6332 31.196 77.3652 32.277C77.7472 32.252 78.1002 32.239 78.4502 32.202C78.8392 32.161 79.2422 32.15 79.6102 32.035C82.1532 31.242 84.7502 31.07 87.3952 31.209C89.9402 31.343 92.4512 31.008 94.9412 30.493C97.5222 29.958 100.128 29.732 102.766 29.842C105.207 29.944 107.649 30.051 110.092 30.09C112.587 30.13 115.083 30.09 117.59 30.084C117.183 30.605 116.476 30.803 115.865 31.095C110.908 33.464 105.657 34.976 100.356 36.332C94.6192 37.801 88.9922 37.557 83.5162 35.175C83.2672 35.067 83.0122 34.97 82.7652 34.857C79.9032 33.544 76.9332 33.239 73.8372 33.791C71.7932 34.156 69.7212 34.365 67.6732 34.713C65.6222 35.062 63.5842 35.486 61.5452 35.9C60.4212 36.128 59.3052 36.397 58.1892 36.663C57.4902 36.829 56.7982 37.022 56.1202 37.367C56.3442 37.387 56.5672 37.424 56.7912 37.425C58.9882 37.434 61.1262 37.812 63.1792 38.574C66.3012 39.732 69.5071 40.287 72.8411 40.31C76.0371 40.331 79.2362 40.397 82.3952 41.034C85.3282 41.625 88.0782 42.649 90.6502 44.178C94.4152 46.415 98.1921 48.633 101.971 50.847C102.43 51.116 102.932 51.313 103.386 51.681C103.225 51.685 103.063 51.7 102.902 51.693C97.4782 51.437 92.0452 51.261 86.6852 50.283C84.9632 49.969 83.2552 49.577 81.5482 49.184C79.3052 48.668 77.0432 48.329 74.7392 48.267C73.9252 48.245 73.1111 48.18 72.3021 48.088C68.7791 47.685 65.6721 46.317 62.9841 44.005C61.8852 43.06 60.7921 42.107 59.7081 41.145C57.4521 39.143 54.7712 38.267 51.8062 38.255C50.9152 38.252 50.0232 38.528 49.1322 38.678C43.4282 39.636 37.8562 41.102 32.4342 43.112C30.9702 43.655 29.5822 44.406 28.1672 45.079C27.9432 45.185 27.7622 45.382 27.6122 45.686C28.2602 45.698 28.9082 45.73 29.5562 45.719C31.4862 45.684 33.4192 45.679 35.3452 45.568C36.5442 45.499 37.7341 45.263 38.9271 45.095C42.6561 44.569 46.2442 44.9 49.7042 46.549C53.8112 48.506 57.6262 50.941 61.4302 53.403C63.3322 54.634 65.2342 55.865 67.1452 57.082C71.9562 60.146 77.2222 62.152 82.6722 63.723C83.6292 63.999 84.5922 64.256 85.5512 64.527C85.7432 64.581 85.9282 64.66 86.2932 64.791C85.5912 65.17 84.9782 65.297 84.3812 65.398C77.0792 66.635 69.8202 66.234 62.6332 64.608C57.4432 63.434 52.7062 61.198 48.4642 57.958C47.0872 56.906 45.9191 55.649 44.8541 54.287C44.1671 53.408 43.4792 52.524 42.7262 51.703C41.1852 50.025 39.3062 48.953 37.0092 48.669C35.6022 48.495 34.1942 48.309 32.7972 48.07C31.4202 47.835 30.1121 47.372 28.8721 46.716C27.6771 46.083 26.4452 46.218 25.3232 46.822C22.4732 48.357 19.8382 50.222 17.3292 52.267C16.7682 52.724 16.2001 53.192 15.4191 53.209C15.2691 53.213 15.1222 53.181 14.9762 53.165ZM39.8912 45.638C40.8812 45.889 41.8882 46.088 42.8582 46.403C45.3592 47.216 47.5562 48.604 49.6262 50.19C54.1512 53.659 59.0002 56.607 64.1582 59.012C68.7912 61.172 73.6432 62.763 78.6012 64.017C79.1672 64.16 79.7312 64.306 80.2972 64.451C80.2842 64.517 80.2712 64.584 80.2572 64.65C79.8822 64.602 79.5052 64.56 79.1312 64.504C76.6432 64.128 74.2632 63.348 71.8702 62.602C64.6822 60.36 58.0681 56.994 51.9791 52.575C50.1711 51.263 48.3762 49.929 46.5132 48.699C44.2022 47.174 41.6542 46.264 38.8512 46.262C35.9562 46.261 33.0622 46.315 30.1672 46.35C30.0962 46.351 30.0252 46.419 29.8002 46.537C30.4562 46.772 30.9792 46.995 31.5212 47.146C33.0392 47.571 34.5751 47.82 36.1691 47.691C37.1881 47.609 38.2172 47.623 39.2412 47.648C42.7092 47.732 45.5341 49.098 47.6771 51.868C48.8571 53.394 50.0672 54.903 51.3461 56.347C54.9622 60.428 59.4902 63.067 64.7602 64.32C68.7322 65.264 72.8052 65.615 76.8922 65.468C79.3702 65.379 81.8422 65.121 84.3172 64.939C84.3202 64.87 84.3222 64.802 84.3251 64.733C83.5182 64.497 82.7162 64.245 81.9042 64.029C76.4092 62.57 71.2052 60.431 66.3952 57.381C63.8192 55.748 61.2722 54.07 58.7022 52.427C55.6992 50.508 52.6622 48.654 49.4422 47.1C46.4022 45.633 43.2342 45.251 39.8912 45.638ZM40.8302 38.024C40.9652 37.967 41.1052 37.921 41.2332 37.852C42.7622 37.027 44.0562 35.902 45.2861 34.691C46.8951 33.107 48.1132 31.238 49.2532 29.309C50.4412 27.298 51.7841 25.398 53.4791 23.783C55.1171 22.222 56.7632 20.662 58.4952 19.209C61.0152 17.095 63.1451 14.65 65.0701 12.002C67.4031 8.792 69.3092 5.32099 71.2972 1.90099C71.3282 1.84699 71.2912 1.754 71.2842 1.653C71.1632 1.723 71.0812 1.762 71.0092 1.814C66.8992 4.724 62.8042 7.65699 58.6752 10.54C55.1282 13.017 51.7652 15.704 48.7192 18.785C47.1682 20.353 45.9331 22.101 45.1221 24.166C44.3991 26.008 43.9132 27.901 43.6622 29.855C43.3552 32.244 42.5592 34.425 41.0732 36.338C40.9252 36.529 40.8182 36.753 40.6922 36.961C40.7512 37.004 40.8092 37.048 40.8682 37.091C41.3662 36.58 41.9282 36.116 42.3522 35.55C44.0552 33.274 45.5802 30.892 46.8422 28.328C48.9302 24.086 51.7262 20.345 55.3032 17.236C58.7192 14.268 62.2252 11.403 65.4132 8.18C66.0362 7.551 66.7292 6.99199 67.3902 6.39999C67.4332 6.44299 67.4762 6.48599 67.5192 6.52999C67.2642 6.81499 67.0151 7.104 66.7551 7.383C63.4321 10.941 59.7922 14.159 56.0482 17.258C54.0042 18.949 52.2942 20.918 50.7152 23.028C48.8222 25.559 47.4382 28.377 45.9592 31.15C44.6092 33.68 43.1092 36.132 40.8302 38.024ZM59.3232 39.77C59.2992 39.82 59.2752 39.871 59.2512 39.921C60.7602 41.218 62.2522 42.535 63.7822 43.806C66.0632 45.701 68.6792 46.889 71.6142 47.331C72.6262 47.483 73.6532 47.577 74.6762 47.603C77.0412 47.665 79.3612 48.018 81.6602 48.549C83.1602 48.895 84.6572 49.257 86.1672 49.555C90.9462 50.498 95.7982 50.767 100.646 51.048C100.716 51.052 100.79 50.977 100.957 50.89C100.298 50.556 99.6902 50.288 99.1232 49.953C96.3412 48.31 93.5411 46.696 90.8021 44.985C86.6391 42.384 82.0832 41.214 77.2272 41.045C75.6302 40.989 74.0322 40.901 72.4352 40.906C69.2882 40.916 66.2522 40.361 63.3092 39.261C62.8572 39.092 62.4002 38.911 61.9292 38.823C60.4202 38.543 58.9042 38.299 57.3882 38.057C57.1622 38.021 56.9222 38.075 56.7052 38.087C59.6382 39.303 62.5312 40.51 65.4312 41.702C68.4122 42.928 71.5072 43.683 74.7232 43.954C75.9552 44.058 77.1832 44.217 78.4102 44.375C83.7752 45.066 88.9022 46.628 93.9032 48.645C94.1282 48.736 94.3301 48.88 94.5441 48.999C94.5161 49.054 94.4872 49.109 94.4592 49.164C93.9772 49.015 93.4892 48.883 93.0152 48.713C86.9072 46.519 80.6452 45.021 74.1632 44.481C71.3192 44.244 68.5552 43.621 65.9072 42.54C64.1742 41.833 62.4582 41.086 60.7332 40.357C60.2622 40.159 59.7922 39.965 59.3232 39.77ZM82.3502 31.827C82.3382 31.903 82.3262 31.98 82.3142 32.056C82.4272 32.086 82.5382 32.129 82.6532 32.144C84.8372 32.434 87.0232 32.702 89.2042 33.013C91.5432 33.346 93.8902 33.517 96.2402 33.256C99.3832 32.907 102.518 32.474 105.657 32.085C106.546 31.975 107.438 31.893 108.328 31.799C108.021 32.025 107.698 32.088 107.373 32.139C105.589 32.422 103.795 32.653 102.022 32.993C98.9632 33.58 95.8802 34.017 92.7722 33.885C90.3682 33.783 87.9732 33.393 85.5802 33.085C83.6032 32.831 81.6291 32.573 79.6301 32.69C79.3051 32.709 78.9842 32.795 78.6622 32.85C78.6662 32.912 78.6702 32.974 78.6742 33.036C80.4022 33.241 82.0252 33.792 83.6052 34.475C88.7692 36.707 94.0902 37.163 99.5562 35.858C103.643 34.883 107.669 33.688 111.626 32.276C112.975 31.795 114.273 31.168 115.594 30.608C114.864 30.545 114.151 30.631 113.439 30.626C110.545 30.608 107.65 30.588 104.757 30.519C101.709 30.447 98.6612 30.349 95.6542 30.991C92.5082 31.662 89.3402 31.924 86.1242 31.742C84.8712 31.674 83.6082 31.794 82.3502 31.827ZM29.1472 33.706C30.4122 32.436 31.6592 31.187 32.9022 29.933C33.0932 29.74 33.2682 29.531 33.4472 29.327C34.6502 27.959 35.2612 26.356 35.3502 24.543C35.5352 20.77 34.9922 17.079 33.9952 13.457C33.3702 11.187 32.6082 8.95499 31.9042 6.70699C31.8162 6.42699 31.7032 6.15499 31.6022 5.87899C31.4852 6.18399 31.5022 6.47699 31.4822 6.76799C31.2622 9.95499 31.1532 13.155 30.7792 16.324C30.3842 19.674 29.1351 22.811 27.8591 25.915C27.1481 27.645 26.7572 29.434 26.8632 31.301C26.9262 32.412 27.1132 33.516 27.2652 34.621C27.3412 35.176 27.4612 35.725 27.5712 36.33C27.7152 36.221 27.7882 36.196 27.8012 36.152C27.8872 35.864 27.9752 35.575 28.0361 35.28C28.4992 33.022 29.2402 30.863 30.2012 28.763C31.4742 25.983 32.4921 23.112 32.8331 20.043C32.8461 19.929 32.9041 19.82 32.9401 19.708C33.0021 21.59 32.7942 23.415 32.1802 25.167C31.6422 26.704 31.0372 28.218 30.4692 29.745C30.0692 30.819 29.6742 31.896 29.2932 32.977C29.2082 33.216 29.1912 33.477 29.1472 33.706ZM96.8042 8.31799C96.7122 8.26199 96.6202 8.20599 96.5282 8.14999C96.3372 8.36999 96.1422 8.58699 95.9552 8.81099C94.1522 10.966 92.2852 13.056 90.0612 14.798C89.1832 15.486 88.3382 16.218 87.4862 16.939C84.4642 19.495 81.3521 21.94 77.8722 23.843C74.2901 25.801 71.0802 28.207 68.3172 31.211C68.1502 31.393 67.9861 31.578 67.8201 31.762C68.5672 31.452 69.2152 31.004 69.9242 30.695C71.6922 29.922 73.4882 29.212 75.2732 28.476C78.3272 27.217 81.2282 25.647 83.8172 23.612C88.7042 19.769 92.7312 15.137 95.9102 9.78199C96.2002 9.28899 96.5051 8.80499 96.8042 8.31799ZM88.2852 15.532C88.0612 15.557 87.9641 15.544 87.8902 15.579C85.7042 16.63 83.4262 17.396 81.0512 17.897C80.1692 18.083 79.2862 18.348 78.4622 18.712C75.7432 19.912 73.2392 21.467 71.0232 23.46C69.0592 25.226 67.5452 27.301 66.6702 29.819C66.4232 30.531 66.1062 31.219 65.8272 31.921C65.7572 32.097 65.7112 32.283 65.5882 32.676C65.9952 32.367 66.2412 32.206 66.4562 32.011C67.3492 31.2 68.2592 30.404 69.1162 29.557C71.2302 27.467 73.5692 25.674 76.1312 24.174C80.1222 21.838 83.8972 19.194 87.4702 16.261C87.7202 16.056 87.9532 15.83 88.2852 15.532ZM92.5022 25.3C94.1712 25.086 95.8362 24.819 97.5112 24.669C100.824 24.371 103.963 23.44 107.036 22.221C109.055 21.42 111.08 20.632 113.114 19.868C114.583 19.316 116.072 18.817 117.551 18.289C117.774 18.209 117.986 18.101 118.204 18.006C117.902 17.923 117.63 17.912 117.363 17.947C113.925 18.401 110.482 18.821 107.052 19.33C103.219 19.898 99.4452 20.716 95.9632 22.521C94.8581 23.094 93.7252 23.622 92.7662 24.476C97.2732 22.63 101.987 21.614 106.745 20.767C101.914 21.983 97.1012 23.244 92.5022 25.3ZM56.9222 62.05C56.9512 61.999 56.9802 61.949 57.0082 61.898C56.9162 61.826 56.8312 61.743 56.7322 61.683C53.8362 59.912 51.4322 57.602 49.3432 54.945C48.5232 53.901 47.6982 52.861 46.8632 51.829C44.8842 49.381 42.2461 48.324 39.1691 48.21C38.9911 48.203 38.8112 48.247 38.4522 48.287C38.7742 48.427 38.9082 48.493 39.0482 48.544C40.8192 49.194 42.2992 50.26 43.5162 51.691C44.1802 52.473 44.8312 53.266 45.4642 54.073C46.5702 55.484 47.8272 56.733 49.2792 57.789C51.4142 59.34 53.6852 60.652 56.0922 61.73C56.3642 61.85 56.6462 61.944 56.9222 62.05ZM96.7001 6.96299C91.0862 10.428 85.8672 14.515 79.9822 17.552C87.0732 16.415 92.6812 12.94 96.7001 6.96299ZM33.8832 29.971C33.1042 30.704 32.3502 31.465 31.5422 32.164C29.9942 33.501 29.0921 35.188 28.7081 37.173C28.6721 37.358 28.6902 37.554 28.6832 37.744C30.8262 35.396 32.9332 33.076 33.8832 29.971ZM28.8042 44.004C28.7792 43.967 28.7552 43.929 28.7302 43.892C28.5132 43.987 28.2842 44.06 28.0822 44.18C25.6232 45.649 23.1512 47.097 20.7202 48.61C19.2622 49.518 17.8611 50.519 16.4531 51.505C16.1101 51.745 15.8422 52.091 15.5392 52.388C15.5982 52.458 15.6562 52.527 15.7152 52.597C16.1062 52.345 16.5202 52.123 16.8832 51.836C19.1332 50.057 21.4332 48.355 23.9302 46.927C25.5752 45.987 27.1812 44.981 28.8042 44.004ZM45.2382 38.656C45.2422 38.717 45.2462 38.778 45.2502 38.839C47.4392 38.628 54.5882 37.051 55.2952 36.598C51.9002 37.293 48.5692 37.975 45.2382 38.656ZM32.3512 42.251C32.3622 42.284 32.3722 42.318 32.3832 42.351C34.4902 41.694 36.5972 41.036 38.7042 40.379C38.6942 40.346 38.6832 40.312 38.6732 40.279C36.5652 40.936 34.4582 41.594 32.3512 42.251Z" fill="#955D34"/>
<path d="M32.6912 17.333C32.5922 15.79 32.4932 14.247 32.3842 12.54C32.8922 13.537 33.1292 15.991 32.9072 17.287C32.8352 17.302 32.7632 17.317 32.6912 17.333Z" fill="#955D34"/>
<path d="M108.869 20.182C109.844 19.878 110.919 19.542 111.995 19.207C111.297 19.783 109.361 20.281 108.869 20.182Z" fill="#955D34"/>
<path d="M12.673 101.312C10.048 101.285 8.06555 100.232 6.72571 98.1537L6.35657 100.902H0.983521V99.8764C1.80383 99.8764 2.41907 99.808 2.82922 99.6713C3.54016 99.4252 3.89563 98.6869 3.89563 97.4565V75.267H0.983521V74.2416H7.42297V87.5717C7.47766 87.4623 7.53235 87.3393 7.58704 87.2026C8.87219 84.3862 11.0187 82.978 14.0265 82.978C15.7491 82.978 17.2257 83.5522 18.4562 84.7006C20.2062 86.3686 21.0812 88.7612 21.0812 91.8784C21.0812 94.5854 20.3156 96.8139 18.7843 98.5639C17.1437 100.396 15.1066 101.312 12.673 101.312ZM12.5909 84.7006C11.5792 84.7006 10.6632 85.0424 9.8429 85.726C8.20227 87.1752 7.38196 89.5951 7.38196 92.9858C7.38196 94.5444 7.58704 95.8979 7.99719 97.0463C8.8175 99.2065 10.1984 100.287 12.1398 100.287C12.8507 100.287 13.507 100.122 14.1085 99.7944C16.132 98.6733 17.1437 96.144 17.1437 92.2065C17.1437 91.0307 17.048 89.9643 16.8566 89.0073C16.2277 86.1362 14.8058 84.7006 12.5909 84.7006ZM32.8527 84.0034C32.1964 84.0034 31.5812 84.1537 31.007 84.4545C29.1476 85.4116 28.1632 87.5034 28.0538 90.7299L32.0734 90.853C33.2765 90.8803 34.2198 90.8119 34.9034 90.6479C36.1066 90.3471 36.7081 89.5268 36.7081 88.1869C36.7081 87.6127 36.6261 87.0659 36.462 86.5463C35.9152 84.851 34.712 84.0034 32.8527 84.0034ZM40.1124 96.9233C39.9484 97.2787 39.7706 97.6342 39.5792 97.9897C38.1847 100.205 35.9562 101.312 32.8937 101.312C31.0616 101.312 29.421 100.861 27.9718 99.9584C25.4288 98.3178 24.1573 95.7475 24.1573 92.2475C24.1573 90.2514 24.5948 88.4877 25.4698 86.9565C27.0284 84.3041 29.462 82.978 32.7706 82.978C34.5206 82.978 36.0792 83.3471 37.4464 84.0854C39.4152 85.2065 40.3995 86.7377 40.3995 88.6791C40.3995 89.6088 40.0851 90.3471 39.4562 90.894C38.4991 91.6596 36.2706 92.0151 32.7706 91.9604L28.0538 91.8784C28.0812 92.8901 28.1632 93.8198 28.2999 94.6674C28.9562 98.3315 30.7335 100.164 33.632 100.164C34.0421 100.164 34.4659 100.122 34.9034 100.04C36.8175 99.6303 38.212 98.4682 39.087 96.5541L40.1124 96.9233ZM46.1417 107.423C46.4972 107.423 46.8663 107.355 47.2491 107.218C48.5616 106.644 49.9562 104.593 51.4327 101.066L43.9269 84.4955H41.9991V83.4291H50.3253V84.4955H47.6183L53.0734 97.2514L58.2003 84.4955H55.2062V83.4291H61.4406C61.4406 83.6752 61.4269 83.8803 61.3995 84.0444C61.3175 84.3451 60.9894 84.4955 60.4152 84.4955C60.1964 84.4955 60.005 84.5092 59.8409 84.5366C59.4855 84.6459 59.171 85.0834 58.8976 85.8491L52.8273 101.025C52.2257 102.501 51.6105 103.759 50.9816 104.798C49.3956 107.423 47.5226 108.736 45.3624 108.736C44.7062 108.736 44.0773 108.613 43.4757 108.367C42.2726 107.874 41.671 107.122 41.671 106.111C41.671 106.001 41.6847 105.878 41.712 105.742C41.8761 104.976 42.4093 104.593 43.3116 104.593C43.6398 104.593 43.9269 104.675 44.173 104.839C44.4738 105.031 44.7882 105.55 45.1163 106.398C45.3624 107.081 45.7042 107.423 46.1417 107.423ZM67.0597 92.1244C67.087 97.5112 68.8097 100.232 72.2277 100.287C75.5363 100.259 77.2042 97.4838 77.2316 91.9604C77.2042 86.7104 75.5089 84.058 72.1456 84.0034C68.7823 84.0307 67.087 86.7377 67.0597 92.1244ZM72.2687 82.978C74.2101 82.978 75.9464 83.4975 77.4777 84.5366C79.9386 86.2319 81.1691 88.7475 81.1691 92.0834C81.1691 94.5991 80.3761 96.7182 78.7902 98.4409C77.0402 100.355 74.8116 101.312 72.1046 101.312C70.1359 101.312 68.3585 100.738 66.7726 99.5893C64.3663 97.8393 63.1632 95.2963 63.1632 91.9604C63.1632 89.5268 63.9288 87.476 65.4601 85.808C67.2374 83.9213 69.507 82.978 72.2687 82.978ZM91.9972 99.8764C92.1613 99.8764 92.298 99.8901 92.4073 99.9174C92.8175 99.9721 93.0226 100.3 93.0226 100.902H83.8761V99.8764C84.6691 99.8764 85.2706 99.8217 85.6808 99.7123C86.4464 99.4662 86.8292 98.7143 86.8292 97.4565V84.4545H83.8761V83.4291H90.1105L90.2745 87.2846C90.548 86.601 90.9171 85.9858 91.382 85.4389C92.7218 83.7983 94.4034 82.978 96.4269 82.978C97.3839 82.978 98.2863 83.2104 99.1339 83.6752C101.103 84.769 102.087 86.7514 102.087 89.6225V99.8764H104.015C104.179 99.8764 104.316 99.8901 104.425 99.9174C104.835 99.9721 105.04 100.3 105.04 100.902H95.7706V99.8764C96.5636 99.8764 97.1515 99.808 97.5343 99.6713C98.2452 99.4252 98.6007 98.6869 98.6007 97.4565V89.1713C98.6007 88.4604 98.505 87.8041 98.3136 87.2026C97.7667 85.6166 96.6593 84.8237 94.9913 84.8237C94.2804 84.8237 93.5695 85.0424 92.8585 85.4799C91.2179 86.5737 90.3702 88.3647 90.3156 90.853V99.8764H91.9972ZM121.569 100.902L121.2 96.6362C119.943 99.6987 117.81 101.257 114.802 101.312C113.325 101.312 111.985 100.874 110.782 99.9994C108.622 98.4135 107.542 95.9389 107.542 92.5756C107.542 90.3881 108.062 88.433 109.101 86.7104C110.659 84.2221 112.888 82.978 115.786 82.978C117.974 82.978 119.751 83.6752 121.118 85.0698V75.267H117.263V74.2416H124.646L124.687 99.8764H126.737C126.901 99.8764 127.052 99.8901 127.189 99.9174C127.544 99.9994 127.722 100.328 127.722 100.902H121.569ZM111.439 92.0834C111.439 93.3959 111.575 94.5717 111.849 95.6108C112.532 98.2905 113.927 99.6303 116.032 99.6303C117.044 99.6303 117.946 99.3022 118.739 98.6459C120.407 97.1967 121.241 94.7494 121.241 91.3041C121.241 89.7729 121.036 88.433 120.626 87.2846C119.833 85.1244 118.466 84.0444 116.525 84.0444C115.732 84.0444 115.021 84.2358 114.392 84.6186C112.423 85.767 111.439 88.2553 111.439 92.0834Z" fill="#955D34"/>
<path d="M46.0841 121.845C44.2421 121.568 43.3231 121.413 41.4891 121.071C41.3121 122.299 42.1031 123.303 43.4031 123.523C44.0891 123.639 44.7641 123.503 45.2531 123.084C45.3531 123.233 45.4031 123.307 45.5041 123.456C44.9411 123.936 44.1421 124.104 43.3191 123.965C41.6711 123.687 40.7232 122.381 41.0132 120.86C41.3032 119.338 42.5781 118.466 44.0101 118.709C45.4431 118.953 46.3481 120.177 46.1181 121.709C46.1101 121.748 46.0911 121.795 46.0841 121.845ZM41.5701 120.689C43.1991 120.993 44.0152 121.132 45.6512 121.384C45.7522 120.257 45.0501 119.331 43.9341 119.141C42.8181 118.952 41.8611 119.585 41.5701 120.689Z" fill="#955D34"/>
<path d="M47.6342 121.947C47.8472 120.403 49.1122 119.482 50.6542 119.662C51.4902 119.76 52.1812 120.154 52.5532 120.834C52.3922 120.926 52.3112 120.972 52.1492 121.064C51.8172 120.497 51.2592 120.186 50.6022 120.109C49.3582 119.964 48.3332 120.71 48.1582 122.018C47.9832 123.326 48.8052 124.326 50.0912 124.477C50.7702 124.556 51.4052 124.373 51.8552 123.888C51.9982 124.012 52.0702 124.073 52.2132 124.196C51.7012 124.777 50.9092 125.026 50.0392 124.924C48.4332 124.736 47.4222 123.482 47.6342 121.947Z" fill="#955D34"/>
<path d="M53.7662 122.648C53.9052 121.105 55.1252 120.115 56.6412 120.221C58.1582 120.327 59.2272 121.476 59.1512 123.024C59.0752 124.571 57.8511 125.616 56.2721 125.506C54.6941 125.396 53.6262 124.191 53.7662 122.648ZM58.6241 122.997C58.6941 121.689 57.8271 120.755 56.6091 120.67C55.3921 120.585 54.4041 121.389 54.2911 122.694C54.1781 123.998 55.0441 124.969 56.3031 125.057C57.5631 125.145 58.5551 124.304 58.6241 122.997Z" fill="#955D34"/>
<path d="M63.6202 125.146C63.7192 124.988 63.7681 124.908 63.8661 124.75C64.2801 125.095 65.0241 125.392 65.8331 125.39C66.9891 125.388 67.4461 124.988 67.4371 124.398C67.4161 122.879 63.8331 124 63.8611 121.951C63.8711 121.162 64.5482 120.536 65.8842 120.533C66.5532 120.532 67.2841 120.723 67.7051 121.026C67.6141 121.187 67.5692 121.268 67.4772 121.429C67.0242 121.116 66.4442 120.971 65.8752 120.973C64.8392 120.975 64.3782 121.388 64.3732 121.947C64.3582 123.516 67.9232 122.392 67.9592 124.38C67.9742 125.229 67.2152 125.828 65.8132 125.83C64.9062 125.832 64.0442 125.532 63.6202 125.146Z" fill="#955D34"/>
<path d="M72.7001 125.272C72.4401 125.536 72.0031 125.678 71.5931 125.696C70.6241 125.739 70.0791 125.215 70.0491 124.336C70.0031 122.973 69.9801 122.292 69.9341 120.93C69.5441 120.943 69.3491 120.949 68.9581 120.959C68.9541 120.787 68.9511 120.701 68.9471 120.53C69.3361 120.52 69.5312 120.514 69.9202 120.501C69.9052 120.046 69.8971 119.818 69.8821 119.363C70.0831 119.356 70.1832 119.353 70.3842 119.345C70.4012 119.8 70.4101 120.028 70.4271 120.483C71.0991 120.458 71.4352 120.443 72.1072 120.409C72.1162 120.581 72.1202 120.666 72.1292 120.838C71.4552 120.872 71.1182 120.887 70.4432 120.912C70.4932 122.254 70.5192 122.926 70.5692 124.268C70.5942 124.937 70.9542 125.295 71.6262 125.265C71.9522 125.25 72.2512 125.135 72.4622 124.934C72.5562 125.069 72.6041 125.137 72.7001 125.272Z" fill="#955D34"/>
<path d="M73.7472 122.929C73.6512 121.383 74.7052 120.219 76.2202 120.094C77.7352 119.968 78.9672 120.942 79.1272 122.483C79.2872 124.023 78.2352 125.242 76.6582 125.373C75.0812 125.503 73.8442 124.474 73.7472 122.929ZM78.6022 122.536C78.4722 121.233 77.4732 120.442 76.2572 120.542C75.0412 120.643 74.1872 121.588 74.2732 122.895C74.3602 124.201 75.3632 125.029 76.6212 124.925C77.8792 124.82 78.7322 123.838 78.6022 122.536Z" fill="#955D34"/>
<path d="M83.4092 119.292C83.4362 119.486 83.4502 119.583 83.4772 119.777C83.4372 119.783 83.3951 119.779 83.3541 119.784C82.1841 119.947 81.5812 120.793 81.7402 122.073C81.8742 123.152 81.9411 123.692 82.0751 124.771C81.8651 124.797 81.7611 124.81 81.5511 124.835C81.3021 122.763 81.1771 121.727 80.9291 119.655C81.1221 119.632 81.2192 119.62 81.4122 119.596C81.4682 120.048 81.4961 120.275 81.5521 120.727C81.7841 119.933 82.4242 119.43 83.4092 119.292Z" fill="#955D34"/>
<path d="M90.1841 120.978C88.3511 121.327 87.4321 121.486 85.5911 121.769C85.8311 122.986 86.9081 123.672 88.2071 123.449C88.8931 123.331 89.4851 122.98 89.8081 122.422C89.9521 122.529 90.0241 122.583 90.1681 122.69C89.7961 123.329 89.0961 123.753 88.2731 123.894C86.6251 124.177 85.3011 123.259 85.0711 121.727C84.8411 120.195 85.7521 118.95 87.1841 118.706C88.6171 118.462 89.8781 119.317 90.1681 120.838C90.1761 120.879 90.1751 120.93 90.1841 120.978ZM85.5411 121.383C87.1771 121.131 87.9931 120.992 89.6221 120.688C89.3441 119.591 88.3732 118.95 87.2582 119.141C86.1432 119.331 85.4501 120.245 85.5411 121.383Z" fill="#955D34"/>
<path d="M44.3071 76.335H80.5472" stroke="#DFBFA8" stroke-width="0.75" stroke-miterlimit="10"/>
</svg>
