<svg width="180" height="62" viewBox="0 0 180 62" fill="none" xmlns="http://www.w3.org/2000/svg">
<path d="M7.11915 35.56C6.53248 35.56 5.93248 35.52 5.31915 35.44C3.63915 35.2267 2.39915 34.7333 1.59915 33.96C0.825812 33.1867 0.439146 32.3467 0.439146 31.44C0.439146 30.4533 0.879146 29.56 1.75915 28.76C2.63915 27.9333 3.87915 27.52 5.47915 27.52C6.54581 27.52 7.70581 27.7333 8.95915 28.16C9.65248 28.4 10.4791 28.8 11.4391 29.36C12.3991 29.92 13.5058 30.5067 14.7591 31.12C16.0925 29.84 17.3058 28.2533 18.3991 26.36C19.5191 24.4667 20.6258 22.44 21.7191 20.28C22.8391 18.0933 24.0391 15.9067 25.3191 13.72C26.6258 11.5333 28.1325 9.48 29.8391 7.56L32.1591 4.96C31.1725 4.8 30.1458 4.68 29.0791 4.6C28.0125 4.49333 26.9058 4.44 25.7591 4.44C24.3191 4.44 22.8391 4.52 21.3191 4.68C19.7991 4.81333 18.2791 5.04 16.7591 5.36C14.2525 5.89333 12.1325 6.74667 10.3991 7.92C8.66581 9.09333 7.34581 10.3733 6.43915 11.76C5.55915 13.12 5.11915 14.4 5.11915 15.6C5.11915 16.4267 5.34581 17.1733 5.79915 17.84C6.27915 18.48 6.98581 18.9467 7.91915 19.24C8.50581 19.4267 9.10581 19.52 9.71915 19.52C10.6258 19.52 11.4258 19.3333 12.1191 18.96C12.8125 18.5867 13.3991 18.1333 13.8791 17.6C14.3591 17.04 14.7058 16.5067 14.9191 16C15.1591 15.4933 15.2658 15.12 15.2391 14.88C15.2391 14.6933 15.3725 14.6 15.6391 14.6C15.9058 14.6 16.0391 14.8 16.0391 15.2V15.24C16.0391 16.3333 15.7058 17.28 15.0391 18.08C14.3725 18.88 13.5325 19.4933 12.5191 19.92C11.5325 20.3467 10.5325 20.56 9.51915 20.56C8.87915 20.56 8.21248 20.4533 7.51915 20.24C6.07915 19.7333 5.01248 19 4.31915 18.04C3.62581 17.0533 3.27915 15.9733 3.27915 14.8C3.27915 13.7067 3.57248 12.5867 4.15915 11.44C4.77248 10.2667 5.66581 9.16 6.83915 8.12C8.01248 7.05333 9.46581 6.13333 11.1991 5.36C12.9591 4.58666 14.9858 4.04 17.2791 3.72C18.5058 3.53333 19.7191 3.4 20.9191 3.32C22.1191 3.24 23.2791 3.2 24.3991 3.2C25.9458 3.2 27.4525 3.28 28.9191 3.44C30.4125 3.57333 31.8125 3.78666 33.1191 4.08C33.4925 3.76 33.8658 3.48 34.2391 3.24C34.6391 3 34.9991 2.81333 35.3191 2.68C35.5058 2.6 35.6658 2.54667 35.7991 2.52C35.9325 2.49333 36.0391 2.48 36.1191 2.48C36.2791 2.48 36.3591 2.53333 36.3591 2.64C36.3591 2.77333 36.1591 2.98667 35.7591 3.28C35.4925 3.46667 35.2391 3.68 34.9991 3.92C34.7591 4.13333 34.6125 4.29333 34.5591 4.4C37.2791 5.09333 39.4791 6.05333 41.1591 7.28C42.8658 8.48 43.7191 9.90667 43.7191 11.56C43.7191 12.4133 43.4391 13.3467 42.8791 14.36C42.2925 15.3467 41.4791 16.1467 40.4391 16.76C39.3991 17.3467 38.2925 17.7867 37.1191 18.08C35.9458 18.3467 34.8525 18.5067 33.8391 18.56C34.7191 18.8267 35.6791 19.2267 36.7191 19.76C37.7858 20.2667 38.7591 20.8933 39.6391 21.64C40.5458 22.3867 41.1458 23.2667 41.4391 24.28C41.6258 24.92 41.7191 25.5733 41.7191 26.24C41.7191 27.6533 41.3058 28.9333 40.4791 30.08C39.6791 31.2267 38.5991 32.2133 37.2391 33.04C35.9058 33.84 34.4391 34.4533 32.8391 34.88C31.2391 35.3333 29.6525 35.56 28.0791 35.56C27.4925 35.56 26.8925 35.52 26.2791 35.44C23.7191 35.12 21.5991 34.72 19.9191 34.24C18.2658 33.76 16.8125 33.2267 15.5591 32.64C12.9725 34.5867 10.1591 35.56 7.11915 35.56ZM27.5191 34.4C29.1725 34.4 30.6791 34.1467 32.0391 33.64C33.3991 33.1333 34.5725 32.4667 35.5591 31.64C36.5725 30.8133 37.3458 29.8933 37.8791 28.88C38.4391 27.8667 38.7191 26.8667 38.7191 25.88C38.7191 24.9467 38.4391 24.04 37.8791 23.16C37.3191 22.28 36.4391 21.5467 35.2391 20.96C34.1991 20.4533 33.1191 20.04 31.9991 19.72C30.9058 19.3733 29.9591 19.08 29.1591 18.84C28.3591 18.5733 27.8925 18.3067 27.7591 18.04C27.7591 17.72 27.8925 17.5067 28.1591 17.4C28.4525 17.2667 28.8258 17.2 29.2791 17.2C29.8125 17.2 30.4525 17.24 31.1991 17.32C31.9458 17.4 32.7325 17.44 33.5591 17.44C34.4125 17.44 35.2791 17.2533 36.1591 16.88C37.0658 16.48 37.8925 15.96 38.6391 15.32C39.3858 14.6533 39.9858 13.9333 40.4391 13.16C40.9191 12.36 41.1591 11.5467 41.1591 10.72C41.1591 9.97333 40.9058 9.24 40.3991 8.52C39.8925 7.8 39.0525 7.17333 37.8791 6.64C36.7058 6.10666 35.4391 5.68 34.0791 5.36C32.7458 7.2 31.4125 9.26667 30.0791 11.56C28.7458 13.8267 27.4125 16.1333 26.0791 18.48C24.7458 20.8 23.3991 23 22.0391 25.08C20.6791 27.16 19.3191 28.9467 17.9591 30.44C17.6391 30.7867 17.3858 31.0533 17.1991 31.24C17.0125 31.4 16.7591 31.6267 16.4391 31.92C17.6925 32.4267 19.1191 32.9067 20.7191 33.36C22.3191 33.8133 24.1458 34.1333 26.1991 34.32C26.4125 34.3467 26.6258 34.36 26.8391 34.36C27.0791 34.3867 27.3058 34.4 27.5191 34.4ZM6.31915 34.32C7.81248 34.4 9.17248 34.2267 10.3991 33.8C11.6525 33.3467 12.8125 32.72 13.8791 31.92C12.9458 31.4667 11.9858 31 10.9991 30.52C10.0391 30.0133 9.01248 29.56 7.91915 29.16C7.14581 28.8933 6.43915 28.76 5.79915 28.76C4.81248 28.76 4.06581 29.0267 3.55915 29.56C3.05248 30.0667 2.79915 30.6533 2.79915 31.32C2.79915 32.0133 3.09248 32.68 3.67915 33.32C4.26581 33.9333 5.14581 34.2667 6.31915 34.32ZM46.1141 34.12C44.9941 34.12 44.2341 33.8267 43.8341 33.24C43.4341 32.6267 43.2341 31.9067 43.2341 31.08C43.2341 30.2267 43.3541 29.3467 43.5941 28.44C43.8341 27.5333 44.0475 26.7733 44.2341 26.16C44.6608 24.6667 45.1941 23.08 45.8341 21.4C46.5008 19.6933 47.2208 18.0267 47.9941 16.4C48.7941 14.7467 49.5808 13.2667 50.3541 11.96C50.9675 10.92 51.6208 10.1467 52.3141 9.64C53.0341 9.10667 53.6608 8.84 54.1941 8.84C54.6208 8.84 54.9541 9 55.1941 9.32C55.4608 9.61333 55.5941 10.0667 55.5941 10.68C55.5941 11.1067 55.5141 11.6133 55.3541 12.2C55.2208 12.7867 54.9808 13.4533 54.6341 14.2C53.7008 16.28 52.5808 18.36 51.2741 20.44C49.9941 22.52 48.3675 24.4667 46.3941 26.28C46.2875 26.6267 46.1408 27.04 45.9541 27.52C45.7941 27.9733 45.6475 28.44 45.5141 28.92C45.3541 29.64 45.2741 30.2533 45.2741 30.76C45.2741 31.5867 45.4341 32.2133 45.7541 32.64C46.1008 33.04 46.5141 33.24 46.9941 33.24C47.4208 33.24 47.8741 33.0933 48.3541 32.8C48.8341 32.48 49.2875 32.0267 49.7141 31.44C50.3541 30.5067 50.9275 29.56 51.4341 28.6C51.9675 27.6133 52.3675 26.8533 52.6341 26.32C52.7941 26.0267 52.9675 25.88 53.1541 25.88C53.2875 25.88 53.3541 25.96 53.3541 26.12C53.3541 26.2533 53.3141 26.4 53.2341 26.56C52.9941 27.0933 52.6741 27.7867 52.2741 28.64C51.9008 29.4667 51.4208 30.3067 50.8341 31.16C50.2741 31.9867 49.5941 32.6933 48.7941 33.28C48.0208 33.84 47.1275 34.12 46.1141 34.12ZM46.7141 25C47.6741 24.0133 48.6075 22.88 49.5141 21.6C50.4208 20.2933 51.2608 18.9467 52.0341 17.56C52.8341 16.1467 53.5008 14.8133 54.0341 13.56C54.2208 13.16 54.3675 12.72 54.4741 12.24C54.6075 11.76 54.6741 11.36 54.6741 11.04C54.6741 10.6667 54.5808 10.48 54.3941 10.48C54.2875 10.48 54.1275 10.5867 53.9141 10.8C53.7008 10.9867 53.4208 11.32 53.0741 11.8C52.5675 12.4667 52.0075 13.3733 51.3941 14.52C50.8075 15.6667 50.2075 16.8933 49.5941 18.2C48.9808 19.5067 48.4208 20.7733 47.9141 22C47.4075 23.2 47.0075 24.2 46.7141 25ZM54.5498 34C53.5364 34 52.7898 33.6667 52.3098 33C51.8298 32.3067 51.5898 31.4667 51.5898 30.48C51.5898 29.28 51.8698 28.0267 52.4298 26.72C52.9631 25.4933 53.6431 24.3733 54.4698 23.36C55.2964 22.3467 56.1898 21.5333 57.1498 20.92C58.1098 20.28 59.0431 19.96 59.9498 19.96C60.9631 19.96 61.7098 20.2933 62.1898 20.96C62.6698 21.6267 62.9098 22.4667 62.9098 23.48C62.9098 24.7067 62.6298 25.96 62.0698 27.24C61.7498 27.96 61.2964 28.76 60.7098 29.64C60.1231 30.4933 59.4564 31.28 58.7098 32C58.8698 32.2933 59.0964 32.5467 59.3898 32.76C59.6831 32.9467 60.0831 33.04 60.5898 33.04C61.2298 33.04 61.8298 32.7733 62.3898 32.24C62.9764 31.7067 63.5098 31.0667 63.9898 30.32C64.4698 29.5467 64.8964 28.7733 65.2698 28C65.6431 27.2267 65.9498 26.6 66.1898 26.12C66.2698 25.96 66.4031 25.88 66.5898 25.88C66.6964 25.88 66.7764 25.9333 66.8298 26.04C66.8831 26.12 66.8698 26.2533 66.7898 26.44C66.6298 26.84 66.3631 27.44 65.9898 28.24C65.6164 29.0133 65.1631 29.8267 64.6298 30.68C64.0964 31.5067 63.4831 32.2133 62.7898 32.8C62.0964 33.3867 61.3231 33.68 60.4698 33.68C59.8831 33.68 59.3764 33.5867 58.9498 33.4C58.5231 33.1867 58.1764 32.9333 57.9098 32.64C57.3498 33.0667 56.7898 33.4 56.2298 33.64C55.6698 33.88 55.1098 34 54.5498 34ZM55.1498 33.12C55.8698 33.12 56.6431 32.7733 57.4698 32.08C57.2564 31.76 57.0964 31.4267 56.9898 31.08C56.8831 30.7333 56.8298 30.4133 56.8298 30.12C56.8298 29.64 56.9364 29.2267 57.1498 28.88C57.3898 28.5333 57.7498 28.36 58.2298 28.36C58.5764 28.36 58.8564 28.4933 59.0698 28.76C59.3098 29 59.4298 29.28 59.4298 29.6C59.4298 29.68 59.4164 29.76 59.3898 29.84C59.3898 29.8933 59.3764 29.96 59.3498 30.04C59.8031 29.4267 60.2298 28.7067 60.6298 27.88C61.5098 25.9867 61.9498 24.4267 61.9498 23.2C61.9498 22.5867 61.8298 22.1067 61.5898 21.76C61.3498 21.4133 60.9898 21.24 60.5098 21.24C59.9498 21.24 59.3364 21.48 58.6698 21.96C58.0298 22.44 57.4031 23.08 56.7898 23.88C56.2031 24.68 55.6831 25.5733 55.2298 26.56C54.8031 27.4667 54.4564 28.3467 54.1898 29.2C53.9498 30.0267 53.8298 30.7467 53.8298 31.36C53.8298 31.8933 53.9364 32.32 54.1498 32.64C54.3631 32.96 54.6964 33.12 55.1498 33.12ZM67.9482 34C66.9349 34 66.1882 33.6667 65.7082 33C65.2282 32.3067 64.9882 31.4667 64.9882 30.48C64.9882 29.28 65.2682 28.0267 65.8282 26.72C66.3615 25.4933 67.0415 24.3733 67.8682 23.36C68.6949 22.3467 69.5882 21.5333 70.5482 20.92C71.5082 20.28 72.4415 19.96 73.3482 19.96C74.3615 19.96 75.1082 20.2933 75.5882 20.96C76.0682 21.6267 76.3082 22.4667 76.3082 23.48C76.3082 24.7067 76.0282 25.96 75.4682 27.24C75.1482 27.96 74.6949 28.76 74.1082 29.64C73.5215 30.4933 72.8549 31.28 72.1082 32C72.2682 32.2933 72.4949 32.5467 72.7882 32.76C73.0815 32.9467 73.4815 33.04 73.9882 33.04C74.6282 33.04 75.2282 32.7733 75.7882 32.24C76.3749 31.7067 76.9082 31.0667 77.3882 30.32C77.8682 29.5467 78.2949 28.7733 78.6682 28C79.0415 27.2267 79.3482 26.6 79.5882 26.12C79.6682 25.96 79.8015 25.88 79.9882 25.88C80.0949 25.88 80.1749 25.9333 80.2282 26.04C80.2815 26.12 80.2682 26.2533 80.1882 26.44C80.0282 26.84 79.7615 27.44 79.3882 28.24C79.0149 29.0133 78.5615 29.8267 78.0282 30.68C77.4949 31.5067 76.8815 32.2133 76.1882 32.8C75.4949 33.3867 74.7215 33.68 73.8682 33.68C73.2815 33.68 72.7749 33.5867 72.3482 33.4C71.9215 33.1867 71.5749 32.9333 71.3082 32.64C70.7482 33.0667 70.1882 33.4 69.6282 33.64C69.0682 33.88 68.5082 34 67.9482 34ZM68.5482 33.12C69.2682 33.12 70.0415 32.7733 70.8682 32.08C70.6549 31.76 70.4949 31.4267 70.3882 31.08C70.2815 30.7333 70.2282 30.4133 70.2282 30.12C70.2282 29.64 70.3349 29.2267 70.5482 28.88C70.7882 28.5333 71.1482 28.36 71.6282 28.36C71.9749 28.36 72.2549 28.4933 72.4682 28.76C72.7082 29 72.8282 29.28 72.8282 29.6C72.8282 29.68 72.8149 29.76 72.7882 29.84C72.7882 29.8933 72.7749 29.96 72.7482 30.04C73.2015 29.4267 73.6282 28.7067 74.0282 27.88C74.9082 25.9867 75.3482 24.4267 75.3482 23.2C75.3482 22.5867 75.2282 22.1067 74.9882 21.76C74.7482 21.4133 74.3882 21.24 73.9082 21.24C73.3482 21.24 72.7349 21.48 72.0682 21.96C71.4282 22.44 70.8015 23.08 70.1882 23.88C69.6015 24.68 69.0815 25.5733 68.6282 26.56C68.2015 27.4667 67.8549 28.3467 67.5882 29.2C67.3482 30.0267 67.2282 30.7467 67.2282 31.36C67.2282 31.8933 67.3349 32.32 67.5482 32.64C67.7615 32.96 68.0949 33.12 68.5482 33.12ZM75.6666 34.2C76.6533 32.3067 77.5866 30.4133 78.4666 28.52C79.3466 26.6 80.24 24.7867 81.1466 23.08C81.68 22.12 82.12 21.4533 82.4666 21.08C82.84 20.68 83.3333 20.48 83.9466 20.48C84.16 20.48 84.3866 20.52 84.6266 20.6C84.8666 20.6533 85.1066 20.68 85.3466 20.68C85.5066 20.68 85.6266 20.6667 85.7066 20.64C85.3333 20.8533 84.8533 21.3867 84.2666 22.24C83.68 23.0667 83.08 24.0267 82.4666 25.12C81.8533 26.2133 81.3066 27.24 80.8266 28.2C81.3333 27.5867 81.8533 26.9733 82.3866 26.36C82.9466 25.7467 83.56 25.16 84.2266 24.6C84.8133 24.0933 85.4266 23.5467 86.0666 22.96C86.7333 22.3467 87.3866 21.8267 88.0266 21.4C88.6666 20.9733 89.2266 20.76 89.7066 20.76C89.8933 20.76 90.0133 20.7733 90.0666 20.8C90.5733 21.0133 90.8266 21.36 90.8266 21.84C90.8266 22 90.76 22.24 90.6266 22.56C90.28 23.4667 89.8266 24.4 89.2666 25.36C88.7333 26.2933 88.2266 27.24 87.7466 28.2C88.1466 27.72 88.64 27.1333 89.2266 26.44C89.84 25.7467 90.4533 25.1333 91.0666 24.6C91.6533 24.0667 92.4 23.5067 93.3066 22.92C94.2133 22.3333 95.1066 21.8267 95.9866 21.4C96.8666 20.9733 97.5733 20.76 98.1066 20.76C98.2933 20.76 98.4266 20.7733 98.5066 20.8C98.5066 20.8 98.36 21.0667 98.0666 21.6C97.7733 22.1067 97.4 22.7867 96.9466 23.64C96.52 24.4667 96.08 25.36 95.6266 26.32C95.1733 27.2533 94.76 28.16 94.3866 29.04C94.04 29.8933 93.8133 30.6133 93.7066 31.2C93.6266 31.5467 93.5866 31.8667 93.5866 32.16C93.5866 32.5867 93.6666 32.8667 93.8266 33C93.9866 33.1333 94.16 33.2 94.3466 33.2C94.88 33.2 95.4266 32.92 95.9866 32.36C96.5466 31.8 97.08 31.1333 97.5866 30.36C98.12 29.56 98.5866 28.7867 98.9866 28.04C99.3866 27.2667 99.68 26.68 99.8666 26.28C100.027 25.9867 100.187 25.84 100.347 25.84C100.507 25.84 100.587 25.9467 100.587 26.16C100.587 26.2933 100.547 26.44 100.467 26.6C100.147 27.2133 99.76 27.9467 99.3066 28.8C98.88 29.6533 98.3866 30.4933 97.8266 31.32C97.2666 32.12 96.64 32.8 95.9466 33.36C95.28 33.8933 94.56 34.16 93.7866 34.16C93.2266 34.16 92.6533 33.9733 92.0666 33.6C91.5066 33.2267 91.2266 32.5333 91.2266 31.52C91.2266 30.96 91.3466 30.28 91.5866 29.48C91.7733 28.9467 92.0533 28.3333 92.4266 27.64C92.8266 26.9467 93.3066 26.1467 93.8666 25.24C94.1333 24.7867 94.2666 24.4267 94.2666 24.16C94.2666 23.84 94.1066 23.68 93.7866 23.68C93.52 23.68 93.1466 23.8133 92.6666 24.08C92.2133 24.3467 91.64 24.8133 90.9466 25.48C90.52 25.88 90.0133 26.44 89.4266 27.16C88.8666 27.8533 88.2933 28.6133 87.7066 29.44C87.12 30.2667 86.6133 31.08 86.1866 31.88C85.76 32.68 85.48 33.3867 85.3466 34C84.9466 34 84.6266 33.84 84.3866 33.52C84.1466 33.1733 84.0266 32.7733 84.0266 32.32C84.0266 32.24 84.0266 32.16 84.0266 32.08C84.0266 32 84.04 31.9067 84.0666 31.8C84.2 30.9733 84.4133 30.2 84.7066 29.48C85 28.76 85.3333 28.0133 85.7066 27.24C86 26.68 86.2933 26.08 86.5866 25.44C86.88 24.7733 87.0266 24.2667 87.0266 23.92C87.0266 23.7067 86.9466 23.6 86.7866 23.6C86.6 23.6 86.2933 23.7467 85.8666 24.04C85.44 24.3067 84.8533 24.7867 84.1066 25.48C83.44 26.12 82.6266 27.04 81.6666 28.24C80.7333 29.44 79.7066 31.1467 78.5866 33.36C78.4266 33.6533 78.24 33.84 78.0266 33.92C77.8133 33.9733 77.48 34 77.0266 34C76.7333 34 76.4933 34 76.3066 34C76.0933 34.0267 75.88 34.0933 75.6666 34.2ZM104.258 17.76C103.858 17.76 103.525 17.6267 103.258 17.36C103.018 17.0667 102.898 16.72 102.898 16.32C102.898 15.8133 103.098 15.3733 103.498 15C103.898 14.6267 104.338 14.44 104.818 14.44C105.245 14.44 105.592 14.5733 105.858 14.84C106.125 15.1067 106.258 15.4267 106.258 15.8C106.258 16.3067 106.058 16.76 105.658 17.16C105.258 17.56 104.792 17.76 104.258 17.76ZM101.018 34C100.032 34 99.3382 33.72 98.9382 33.16C98.5382 32.5733 98.3382 31.9067 98.3382 31.16C98.3382 30.76 98.3782 30.36 98.4582 29.96C98.5649 29.5333 98.6849 29.1467 98.8182 28.8L101.498 21.96C101.578 21.7467 101.618 21.56 101.618 21.4C101.618 21.1333 101.552 20.9067 101.418 20.72C101.285 20.5067 101.192 20.36 101.138 20.28L103.338 20.2C103.738 20.1733 104.018 20.2267 104.178 20.36C104.365 20.4667 104.458 20.6 104.458 20.76C104.458 20.92 104.365 21.2133 104.178 21.64L100.858 29.44C100.858 29.44 100.778 29.6133 100.618 29.96C100.485 30.28 100.405 30.4933 100.378 30.6C100.298 31 100.245 31.2533 100.218 31.36C100.192 31.4667 100.178 31.5333 100.178 31.56C100.178 31.5867 100.178 31.6933 100.178 31.88C100.178 32.2267 100.258 32.52 100.418 32.76C100.605 33 100.912 33.12 101.338 33.12C101.605 33.12 101.912 33.04 102.258 32.88C102.605 32.72 102.858 32.56 103.018 32.4C103.685 31.7067 104.338 30.8 104.978 29.68C105.645 28.5333 106.258 27.4 106.818 26.28C106.925 26.0133 107.058 25.88 107.218 25.88C107.352 25.88 107.418 25.9733 107.418 26.16C107.418 26.2667 107.378 26.4267 107.298 26.64C107.032 27.2 106.698 27.8933 106.298 28.72C105.898 29.5467 105.418 30.3733 104.858 31.2C104.325 32 103.738 32.6667 103.098 33.2C102.458 33.7333 101.765 34 101.018 34ZM103.009 34.32C103.969 32.3733 104.889 30.4533 105.769 28.56C106.676 26.64 107.596 24.8133 108.529 23.08C109.063 22.12 109.503 21.4533 109.849 21.08C110.223 20.68 110.716 20.48 111.329 20.48C111.543 20.48 111.769 20.52 112.009 20.6C112.249 20.6533 112.489 20.68 112.729 20.68C112.889 20.68 113.009 20.6667 113.089 20.64C112.716 20.8533 112.236 21.3867 111.649 22.24C111.063 23.0667 110.463 24.0267 109.849 25.12C109.236 26.2133 108.689 27.24 108.209 28.2C108.716 27.5867 109.236 26.9733 109.769 26.36C110.329 25.7467 110.943 25.16 111.609 24.6C112.249 24.04 113.009 23.4667 113.889 22.88C114.796 22.2667 115.676 21.76 116.529 21.36C117.383 20.96 118.063 20.76 118.569 20.76C118.756 20.76 118.889 20.7733 118.969 20.8C118.969 20.8 118.823 21.0667 118.529 21.6C118.236 22.1067 117.863 22.7867 117.409 23.64C116.983 24.4667 116.543 25.36 116.089 26.32C115.636 27.2533 115.223 28.16 114.849 29.04C114.503 29.8933 114.276 30.6133 114.169 31.2C114.089 31.5467 114.049 31.8667 114.049 32.16C114.049 32.5867 114.129 32.8667 114.289 33C114.449 33.1333 114.623 33.2 114.809 33.2C115.316 33.2 115.849 32.9333 116.409 32.4C116.969 31.84 117.503 31.16 118.009 30.36C118.543 29.56 119.009 28.7867 119.409 28.04C119.836 27.2667 120.143 26.68 120.329 26.28C120.436 26.0667 120.516 25.9467 120.569 25.92C120.623 25.8667 120.703 25.84 120.809 25.84C120.969 25.84 121.049 25.9467 121.049 26.16C121.049 26.2933 121.009 26.44 120.929 26.6C120.609 27.2133 120.223 27.9467 119.769 28.8C119.343 29.6533 118.849 30.4933 118.289 31.32C117.729 32.12 117.116 32.8 116.449 33.36C115.783 33.8933 115.063 34.16 114.289 34.16C113.756 34.16 113.196 33.9733 112.609 33.6C112.049 33.2267 111.769 32.5333 111.769 31.52C111.769 31.2267 111.796 30.92 111.849 30.6C111.903 30.2533 111.996 29.88 112.129 29.48C112.343 28.9467 112.596 28.3733 112.889 27.76C113.183 27.1467 113.663 26.3067 114.329 25.24C114.516 24.9467 114.623 24.72 114.649 24.56C114.703 24.4 114.729 24.2667 114.729 24.16C114.729 23.84 114.583 23.68 114.289 23.68C114.049 23.68 113.689 23.8133 113.209 24.08C112.756 24.3467 112.183 24.8133 111.489 25.48C110.823 26.12 110.023 27.0267 109.089 28.2C108.183 29.3733 107.129 31.1067 105.929 33.4C105.743 33.7467 105.529 33.9333 105.289 33.96C105.076 33.9867 104.769 34.0133 104.369 34.04C104.103 34.0667 103.849 34.08 103.609 34.08C103.369 34.1067 103.169 34.1867 103.009 34.32ZM117.527 46.76C114.994 46.76 113.727 45.72 113.727 43.64C113.727 42.6533 114.074 41.7733 114.767 41C115.46 40.2267 116.287 39.56 117.247 39C118.58 38.2 119.874 37.56 121.127 37.08C122.38 36.6 123.567 36.1733 124.687 35.8C125.834 35.4533 126.914 35.0667 127.927 34.64C128.407 33.2267 128.727 31.7467 128.887 30.2C128.967 29.4 129.007 28.7067 129.007 28.12C129.007 27.5067 128.967 27.1067 128.887 26.92C128.594 27.48 128.207 28.16 127.727 28.96C127.247 29.76 126.7 30.5467 126.087 31.32C125.474 32.0667 124.807 32.6933 124.087 33.2C123.394 33.7067 122.674 33.96 121.927 33.96C121.66 33.96 121.407 33.92 121.167 33.84C120.42 33.52 119.874 33.0667 119.527 32.48C119.207 31.8933 119.047 31.2267 119.047 30.48C119.047 29.28 119.394 27.9867 120.087 26.6C120.78 25.2133 121.607 23.9467 122.567 22.8C123.34 21.8667 124.247 21.12 125.287 20.56C126.327 20 127.38 19.72 128.447 19.72C129.674 19.72 130.82 20.1333 131.887 20.96C132.287 21.28 132.487 21.6267 132.487 22C132.487 22.4 132.327 22.6 132.007 22.6C131.74 22.6 131.554 22.4267 131.447 22.08C131.074 21.0933 130.474 20.6 129.647 20.6C128.98 20.6 128.22 20.8933 127.367 21.48C126.514 22.04 125.714 22.7467 124.967 23.6C124.327 24.32 123.7 25.1467 123.087 26.08C122.5 27.0133 122.007 27.9333 121.607 28.84C121.234 29.7467 121.047 30.5333 121.047 31.2C121.047 31.6533 121.154 32.04 121.367 32.36C121.58 32.68 121.914 32.84 122.367 32.84C122.98 32.84 123.62 32.5467 124.287 31.96C124.98 31.3733 125.634 30.6533 126.247 29.8C126.887 28.9467 127.434 28.08 127.887 27.2C128.367 26.32 128.7 25.5867 128.887 25C129.074 24.3867 129.327 24.0133 129.647 23.88C129.967 23.72 130.287 23.64 130.607 23.64C130.927 23.64 131.194 23.56 131.407 23.4C131.514 23.9867 131.58 24.5867 131.607 25.2C131.66 25.7867 131.687 26.3867 131.687 27C131.687 29.0533 131.42 31.12 130.887 33.2C131.367 32.8267 131.86 32.4267 132.367 32C132.9 31.5467 133.354 31.0667 133.727 30.56C134.394 29.6533 134.887 28.8267 135.207 28.08C135.554 27.3067 135.82 26.7067 136.007 26.28C136.167 26.0133 136.34 25.88 136.527 25.88C136.687 25.88 136.767 25.96 136.767 26.12C136.767 26.2533 136.714 26.4133 136.607 26.6C135.94 28.0133 135.327 29.2267 134.767 30.24C134.207 31.2267 133.594 32.0667 132.927 32.76C132.26 33.4267 131.434 34 130.447 34.48C130.02 35.76 129.38 37.1067 128.527 38.52C127.674 39.9333 126.674 41.2667 125.527 42.52C124.38 43.7733 123.127 44.7867 121.767 45.56C120.407 46.36 118.994 46.76 117.527 46.76ZM116.567 45.96C117.154 45.96 117.767 45.8267 118.407 45.56C119.074 45.32 119.7 45.0267 120.287 44.68C120.874 44.3333 121.327 44.04 121.647 43.8C122.26 43.32 122.887 42.72 123.527 42C124.167 41.28 124.727 40.5867 125.207 39.92C125.66 39.28 126.087 38.6 126.487 37.88C126.914 37.1867 127.274 36.4933 127.567 35.8C127.354 35.88 127.087 35.9733 126.767 36.08C126.474 36.1867 126.26 36.2667 126.127 36.32C125.247 36.6133 124.274 36.9467 123.207 37.32C122.167 37.72 121.127 38.1467 120.087 38.6C119.047 39.08 118.1 39.6 117.247 40.16C116.5 40.6667 115.887 41.3333 115.407 42.16C114.9 42.9867 114.647 43.7067 114.647 44.32C114.647 44.7733 114.807 45.16 115.127 45.48C115.42 45.8 115.9 45.96 116.567 45.96Z" fill="#955D34"/>
<path d="M179.993 30.8389C180.015 30.5245 179.977 30.1855 179.906 29.8492C179.824 29.5102 179.682 29.1764 179.491 28.8698C179.292 28.5697 179.049 28.3071 178.783 28.0897C178.516 27.8827 178.233 27.7029 177.947 27.5761C177.374 27.3044 176.798 27.1776 176.239 27.0974C175.678 27.025 175.129 27.012 174.594 27.0379C173.519 27.0896 172.495 27.2927 171.497 27.5502C170.5 27.8115 169.532 28.1389 168.59 28.5166C164.822 30.0394 161.432 32.3228 158.531 35.1069C157.109 36.4899 155.754 37.9014 154.428 39.3543C153.105 40.8058 151.822 42.2884 150.564 43.7866C148.044 46.7777 145.654 49.8555 143.131 52.7534C142.896 53.0213 142.651 53.2761 142.413 53.5387C143.533 51.7223 144.504 49.8063 145.256 47.7855C145.753 46.4491 146.146 45.0674 146.41 43.6533C146.67 42.2393 146.801 40.7929 146.763 39.3439C146.749 38.6194 146.688 37.8949 146.586 37.1756C146.541 36.8146 146.472 36.4589 146.407 36.1005C146.33 35.746 146.256 35.3889 146.16 35.0396C146.074 34.6864 145.962 34.341 145.857 33.993C145.739 33.6502 145.627 33.3048 145.49 32.9684L145.109 32.0019C144.987 31.6876 144.854 31.3771 144.741 31.0601C144.259 29.8013 143.836 28.527 143.462 27.2423C143.09 25.9576 142.779 24.66 142.562 23.352C142.12 20.7413 142.035 18.0891 142.472 15.5185C142.896 12.9453 143.867 10.482 145.191 8.19595C145.334 7.95014 145.494 7.71209 145.644 7.47016C145.546 7.7923 145.441 8.11186 145.348 8.43529C144.597 11.1056 144.023 13.8496 143.865 16.6777C143.789 18.0904 143.818 19.5265 144.043 20.9638C144.267 22.3973 144.684 23.8424 145.42 25.1723C145.788 25.8347 146.234 26.4635 146.754 27.0301C147.273 27.5968 147.863 28.0988 148.501 28.5218C149.138 28.9436 149.815 29.2967 150.515 29.5684C151.215 29.8375 151.93 30.0484 152.665 30.1972C154.137 30.4767 155.666 30.4947 157.129 30.2282C157.861 30.0989 158.579 29.9126 159.273 29.6758C159.966 29.4352 160.639 29.148 161.288 28.8271C161.939 28.5076 162.561 28.144 163.165 27.7598C163.77 27.3756 164.353 26.9628 164.915 26.5294C166.041 25.6652 167.088 24.7182 168.077 23.7246C170.054 21.7349 171.802 19.5614 173.396 17.2961C174.193 16.1628 174.952 15.0049 175.674 13.825C176.034 13.2351 176.387 12.6386 176.729 12.037C176.9 11.7356 177.068 11.4329 177.235 11.1275C177.402 10.8196 177.561 10.5208 177.728 10.1909C177.887 9.87262 177.884 9.48065 177.681 9.15721C177.371 8.66042 176.715 8.50905 176.216 8.81696L176.206 8.82343C176.045 8.92305 175.845 9.03818 175.66 9.14426C175.47 9.25164 175.279 9.35643 175.085 9.46122C174.698 9.66692 174.306 9.87004 173.911 10.0628C173.119 10.4509 172.313 10.8106 171.496 11.1418C169.861 11.8003 168.184 12.3501 166.479 12.7305C165.627 12.9271 164.768 13.0708 163.908 13.173C163.047 13.2816 162.185 13.3178 161.328 13.3127L160.686 13.2971L160.048 13.2493C159.835 13.2389 159.626 13.2066 159.415 13.1794L159.099 13.138L158.942 13.1173L158.786 13.0876L158.163 12.9685C157.956 12.9271 157.754 12.8663 157.55 12.8172L157.245 12.7395C157.145 12.7098 157.046 12.6749 156.946 12.6425C156.747 12.5765 156.546 12.5144 156.349 12.4446C154.791 11.8559 153.235 10.9969 152.28 9.85193C152.046 9.56602 151.852 9.26587 151.719 8.95925C151.592 8.65134 151.511 8.34086 151.506 8.03037C151.48 7.41196 151.728 6.78059 152.173 6.20876C152.615 5.63435 153.243 5.13887 153.936 4.72875C154.632 4.31605 155.407 3.99389 156.207 3.73255C157.816 3.21765 159.541 2.96409 161.277 2.90845C162.146 2.88387 163.019 2.90977 163.891 2.95635C164.762 3.00551 165.647 3.07407 166.509 3.17886C167.372 3.28495 168.224 3.43501 169.029 3.66141C169.431 3.77526 169.82 3.90852 170.179 4.06894C170.535 4.22936 170.869 4.41695 171.127 4.63171C171.387 4.84647 171.561 5.07807 171.638 5.30448C171.713 5.53088 171.707 5.78831 171.6 6.08716C171.497 6.38343 171.293 6.69523 171.046 6.98762C170.794 7.27871 170.497 7.55556 170.17 7.80655C169.518 8.3124 168.766 8.73028 167.981 9.06794C167.194 9.4069 166.364 9.66177 165.519 9.83255C165.314 9.87783 165.08 9.90886 164.86 9.95285C164.635 9.99942 164.426 10.0331 164.211 10.0654C163.783 10.1288 163.349 10.1676 162.914 10.1857C162.043 10.2219 161.164 10.1766 160.295 10.0512C159.428 9.92437 158.567 9.71867 157.756 9.41076C157.353 9.25293 156.959 9.0718 156.609 8.84669C156.433 8.73543 156.268 8.61125 156.131 8.47671C155.996 8.34345 155.882 8.19337 155.84 8.05753C155.796 7.92169 155.805 7.80913 155.887 7.67847C155.966 7.54909 156.115 7.42232 156.285 7.31753C156.627 7.10277 157.048 6.96171 157.47 6.84398C158.323 6.61499 159.22 6.49856 160.117 6.41577C161.016 6.33685 161.922 6.30193 162.827 6.28899C163.734 6.27605 164.641 6.2851 165.549 6.30968C163.74 6.14279 161.924 6.03024 160.096 6.07682C159.184 6.10657 158.265 6.16737 157.35 6.35496C157.236 6.37696 157.121 6.40413 157.007 6.43389C156.892 6.46106 156.778 6.496 156.665 6.53093C156.437 6.60338 156.21 6.68877 155.987 6.81038C155.767 6.932 155.541 7.08206 155.364 7.32787C155.273 7.4456 155.21 7.59952 155.176 7.75865C155.15 7.92037 155.155 8.08859 155.198 8.23737C155.277 8.5401 155.447 8.76392 155.619 8.95668C155.795 9.15074 155.987 9.30857 156.186 9.45218C156.583 9.74068 157.007 9.9619 157.438 10.1585C158.304 10.5428 159.208 10.8106 160.128 10.9969C161.047 11.1819 161.985 11.2828 162.93 11.2957C163.402 11.3022 163.877 11.2854 164.349 11.2427C164.586 11.2207 164.826 11.1935 165.047 11.1612C165.275 11.1275 165.492 11.112 165.734 11.0745C166.678 10.9374 167.605 10.6993 168.502 10.3655C169.4 10.0292 170.271 9.60484 171.082 9.03948C171.488 8.75744 171.877 8.43528 172.237 8.0601C172.592 7.68103 172.928 7.24634 173.158 6.70039C173.272 6.4287 173.358 6.12856 173.391 5.80901C173.424 5.48946 173.401 5.15178 173.315 4.83093C173.231 4.51009 173.086 4.21513 172.913 3.95768C172.74 3.70152 172.543 3.47253 172.331 3.28365C171.909 2.89553 171.454 2.61865 170.997 2.38319C170.539 2.15032 170.075 1.96662 169.61 1.81008C168.681 1.49829 167.748 1.28872 166.817 1.127C165.883 0.963994 164.96 0.850124 164.02 0.789318C163.081 0.728513 162.136 0.728503 161.19 0.771196C159.301 0.860464 157.398 1.11922 155.548 1.71433C154.624 2.01577 153.713 2.39227 152.847 2.90459C151.986 3.4169 151.154 4.05083 150.484 4.91116C150.153 5.34197 149.858 5.82324 149.661 6.36661C149.557 6.63441 149.486 6.92034 149.432 7.21014C149.389 7.50123 149.358 7.79748 149.372 8.09504C149.385 8.68886 149.536 9.26847 149.757 9.79243C149.983 10.3151 150.289 10.7808 150.627 11.1935C151.311 12.0189 152.128 12.6399 152.968 13.16C153.39 13.4175 153.822 13.6465 154.258 13.8586C154.689 14.0721 155.151 14.2442 155.602 14.4305C155.832 14.512 156.065 14.5844 156.297 14.662C156.412 14.6995 156.528 14.7397 156.645 14.7733L156.999 14.8638C157.236 14.9221 157.47 14.9906 157.708 15.0385L158.422 15.1744L158.6 15.208L158.779 15.2313L159.138 15.2779C159.377 15.3089 159.617 15.3438 159.857 15.3568L160.578 15.4111L161.297 15.4279C162.254 15.4344 163.21 15.3917 164.151 15.274C165.093 15.1614 166.028 15.0062 166.944 14.794C168.782 14.3826 170.565 13.7978 172.296 13.1005C172.907 12.8534 173.504 12.5714 174.101 12.2945C174.016 12.4355 173.936 12.5791 173.85 12.7188C173.151 13.8612 172.417 14.9816 171.645 16.0761C170.106 18.2625 168.426 20.3493 166.558 22.2278C165.625 23.1645 164.644 24.0507 163.606 24.8463C163.089 25.2474 162.557 25.6226 162.009 25.9706C161.463 26.3186 160.905 26.6446 160.331 26.9253C159.757 27.2087 159.171 27.4583 158.574 27.6666C157.975 27.8697 157.368 28.0276 156.754 28.135C155.528 28.3601 154.281 28.3394 153.068 28.113C152.463 27.9901 151.866 27.8141 151.29 27.5929C150.717 27.3717 150.178 27.0871 149.678 26.7572C148.678 26.0948 147.862 25.2034 147.278 24.1464C146.693 23.0894 146.335 21.8849 146.142 20.6365C145.945 19.3867 145.914 18.0891 145.984 16.7889C146.129 14.1833 146.668 11.5687 147.391 9.00841C147.757 7.72761 148.172 6.45718 148.628 5.20226C148.857 4.5748 149.098 3.95121 149.347 3.3328C149.473 3.0236 149.601 2.71572 149.731 2.41039C149.861 2.10766 149.999 1.79455 150.129 1.51381L150.133 1.50476C150.325 1.09077 150.232 0.584919 149.871 0.266661C149.43 -0.12146 148.758 -0.0813444 148.368 0.357231C146.51 2.44402 144.761 4.66922 143.334 7.13508C141.909 9.59318 140.83 12.3152 140.361 15.1614C140.122 16.5806 140.022 18.0206 140.047 19.4501C140.07 20.881 140.216 22.3015 140.451 23.6988C140.684 25.0973 141.013 26.4712 141.404 27.8206C141.797 29.1687 142.238 30.4999 142.738 31.8027C142.857 32.1313 142.992 32.4522 143.12 32.7782L143.493 33.7265C143.615 34.0254 143.714 34.3333 143.82 34.6386C143.913 34.9478 144.014 35.2544 144.088 35.5675C144.174 35.878 144.238 36.1937 144.308 36.5093C144.364 36.8263 144.428 37.1433 144.467 37.4628C144.556 38.1006 144.611 38.7449 144.624 39.3918C144.693 41.9792 144.162 44.5796 143.247 47.0481C142.329 49.5204 141.034 51.8685 139.517 54.0692C138.758 55.1688 137.94 56.2323 137.075 57.2556C136.642 57.7666 136.197 58.2686 135.741 58.7564C135.512 59.0009 135.282 59.2415 135.048 59.477L134.695 59.8263C134.58 59.9388 134.454 60.0604 134.35 60.1549L134.342 60.1613C134.004 60.4718 133.896 60.9777 134.109 61.4098C134.37 61.9338 135.009 62.1498 135.536 61.8898C137.4 60.9725 139.066 59.7525 140.568 58.4161C141.318 57.7447 142.034 57.046 142.726 56.3306C143.413 55.6126 144.077 54.8803 144.728 54.1403C146.022 52.6564 147.263 51.144 148.493 49.6342C149.723 48.1258 150.945 46.6198 152.19 45.1385C153.433 43.6572 154.697 42.1979 155.995 40.7735C157.293 39.3529 158.635 37.957 160.003 36.6245C162.712 34.0215 165.905 31.8764 169.375 30.4779C170.24 30.126 171.127 29.8401 172.019 29.615C172.911 29.3977 173.815 29.2489 174.691 29.2075C175.128 29.1881 175.558 29.1894 175.967 29.2333C176.372 29.2734 176.763 29.3537 177.079 29.4843C177.244 29.5451 177.375 29.628 177.5 29.7069C177.616 29.7923 177.709 29.8854 177.789 29.985C177.859 30.0898 177.919 30.2011 177.96 30.333C177.993 30.4702 178.028 30.6151 178.023 30.7871C178.029 31.1222 177.952 31.5103 177.819 31.9023C177.685 32.2956 177.497 32.6928 177.284 33.0848C176.856 33.8701 176.309 34.6282 175.722 35.3592C175.579 35.5429 175.421 35.7227 175.267 35.9038L174.803 36.4459C174.487 36.803 174.16 37.151 173.839 37.5029C173.504 37.8432 173.175 38.1899 172.834 38.5249L172.317 39.023C172.145 39.1899 171.972 39.3555 171.792 39.5147C170.379 40.811 168.89 42.0349 167.335 43.1785C165.781 44.3235 164.159 45.3831 162.497 46.3805C159.165 48.3612 155.676 50.1155 152.033 51.5063C153.904 50.9487 155.734 50.2552 157.539 49.5049C159.344 48.7506 161.12 47.9239 162.856 47.0131C166.325 45.1903 169.661 43.0711 172.704 40.5432C174.226 39.2792 175.665 37.9156 176.999 36.4291C177.668 35.6762 178.308 34.8831 178.858 33.9878C179.132 33.5389 179.386 33.068 179.592 32.5505C179.804 32.0421 179.964 31.4754 179.993 30.8389Z" fill="#955D34"/>
<path d="M85.1409 45.3523C85.3278 45.3818 85.4974 45.458 85.6498 45.581C85.8072 45.7039 85.9301 45.8563 86.0186 46.0382C86.112 46.2201 86.1587 46.4144 86.1587 46.6209C86.1587 46.8814 86.0923 47.1174 85.9596 47.3289C85.8268 47.5354 85.6326 47.7001 85.3769 47.823C85.1262 47.941 84.8287 48 84.4846 48H82.567V42.8596H84.4108C84.7599 42.8596 85.0574 42.9186 85.3032 43.0366C85.549 43.1496 85.7334 43.3045 85.8563 43.5012C85.9792 43.6979 86.0407 43.9191 86.0407 44.1649C86.0407 44.4698 85.9571 44.723 85.7899 44.9246C85.6277 45.1213 85.4114 45.2638 85.1409 45.3523ZM83.2382 45.0795H84.3666C84.6812 45.0795 84.9246 45.0057 85.0967 44.8582C85.2688 44.7107 85.3548 44.5067 85.3548 44.2461C85.3548 43.9855 85.2688 43.7814 85.0967 43.6339C84.9246 43.4864 84.6763 43.4127 84.3518 43.4127H83.2382V45.0795ZM84.4256 47.4469C84.7599 47.4469 85.0205 47.3682 85.2073 47.2109C85.3942 47.0535 85.4876 46.8347 85.4876 46.5545C85.4876 46.2693 85.3892 46.0456 85.1926 45.8833C84.9959 45.7162 84.7328 45.6326 84.4034 45.6326H83.2382V47.4469H84.4256ZM87.7612 43.4053V45.1237H89.6344V45.6768H87.7612V47.4469H89.8557V48H87.09V42.8522H89.8557V43.4053H87.7612ZM93.9098 46.8569H91.6677L91.2547 48H90.5467L92.4052 42.8891H93.1796L95.0308 48H94.3228L93.9098 46.8569ZM93.718 46.3111L92.7887 43.7151L91.8595 46.3111H93.718ZM96.4972 42.8596V46.112C96.4972 46.5692 96.6078 46.9085 96.829 47.1297C97.0552 47.351 97.3674 47.4616 97.7657 47.4616C98.159 47.4616 98.4663 47.351 98.6876 47.1297C98.9137 46.9085 99.0268 46.5692 99.0268 46.112V42.8596H99.6979V46.1046C99.6979 46.5324 99.6119 46.8937 99.4398 47.1887C99.2677 47.4788 99.0342 47.6952 98.7392 47.8377C98.4491 47.9803 98.1221 48.0516 97.7583 48.0516C97.3945 48.0516 97.065 47.9803 96.77 47.8377C96.4799 47.6952 96.2489 47.4788 96.0768 47.1887C95.9096 46.8937 95.826 46.5324 95.826 46.1046V42.8596H96.4972ZM103.981 42.8596V43.4053H102.58V48H101.909V43.4053H100.5V42.8596H103.981ZM108.407 42.8596L106.732 46.0603V48H106.061V46.0603L104.38 42.8596H105.125L106.393 45.463L107.662 42.8596H108.407Z" fill="#955D34"/>
</svg>
