<svg width="64" height="64" viewBox="0 0 64 64" fill="none" xmlns="http://www.w3.org/2000/svg">
<rect width="64" height="64" fill="white"/>
<g clip-path="url(#clip0_1_163)">
<path d="M51.7838 19.7756C51.3758 18.0524 50.3955 16.348 49.0237 14.9762C47.6417 13.5942 45.9936 12.6426 44.2575 12.2241C42.5064 11.8019 40.8009 11.9805 39.4552 12.7269C39.0983 12.9249 38.5011 13.2562 36.1504 18.6552C35.2014 20.8348 34.3418 22.9836 34.1088 23.5705L28.773 29.2398C28.4183 28.9059 27.8599 28.9124 27.513 29.2591C27.1596 29.6125 27.1596 30.1856 27.513 30.5391L27.5322 30.5582L12.9506 46.0512C11.6544 47.4286 11.688 49.6372 13.0254 50.9746C13.7079 51.6571 14.6171 51.9999 15.5271 51.9999C16.4003 51.9999 17.2743 51.684 17.9489 51.0494L33.442 36.4677L33.461 36.4868C33.8144 36.8401 34.3875 36.8401 34.741 36.4868C35.0878 36.1399 35.0942 35.5816 34.7604 35.2269L40.4946 29.83C41.091 29.5972 43.205 28.7651 45.3511 27.8445C50.7004 25.5499 51.0394 24.9554 51.2419 24.6002C52.0095 23.2541 52.202 21.5407 51.7838 19.7756ZM16.7083 49.7312C16.0474 50.3533 14.947 50.3365 14.3052 49.6947C13.6635 49.0531 13.6468 47.9526 14.2687 47.2917L28.8127 31.8385L32.1614 35.1873L16.7083 49.7312ZM33.4801 33.9462L30.0538 30.5198L34.9692 25.2972L35.9834 26.3115C35.9897 26.3179 35.9961 26.3244 36.0026 26.3307L37.6715 27.9994C37.6765 28.0046 37.6814 28.0096 37.6865 28.0145L38.7028 29.0308L33.4801 33.9462ZM49.6931 23.6617C49.0513 24.3068 44.4146 26.3517 40.2246 27.9928L39.694 27.4622L45.0477 23.426C45.4468 23.1251 45.5264 22.5575 45.2255 22.1584C44.9247 21.7596 44.3572 21.6798 43.958 21.9806L38.4016 26.1697L37.8302 25.5983L42.0193 20.042C42.3202 19.6429 42.2406 19.0754 41.8415 18.7744C41.4423 18.4736 40.8748 18.5533 40.574 18.9523L36.5378 24.3059L35.9839 23.752C37.662 19.5467 39.7302 14.9288 40.3782 14.2851C42.4155 13.1922 45.5031 14.0152 47.744 16.256C50.0061 18.5182 50.8203 21.6233 49.6931 23.6617Z" fill="#6B0606"/>
</g>
<defs>
<clipPath id="clip0_1_163">
<rect width="40" height="40" fill="white" transform="translate(12 12)"/>
</clipPath>
</defs>
</svg>
