<svg width="64" height="64" viewBox="0 0 64 64" fill="none" xmlns="http://www.w3.org/2000/svg">
<rect width="64" height="64" fill="white"/>
<path d="M51.7419 23.6129L45.8506 17.7216C45.8499 17.7209 45.8492 17.7202 45.8486 17.7195L43.8733 15.7444C43.4987 15.3699 43.0007 15.1635 42.471 15.1633C42.4709 15.1633 42.4706 15.1633 42.4704 15.1633C41.9407 15.1633 41.4427 15.3695 41.0681 15.7441L12.8287 43.9986C11.7238 45.1037 11.7238 46.9016 12.8287 48.0067C13.364 48.542 14.0757 48.8368 14.8328 48.8368C15.5898 48.8368 16.3015 48.542 16.8371 48.0064L27.5481 37.2861L32.8084 42.5464C33.1526 42.8905 33.7103 42.8905 34.0545 42.5464C34.3986 42.2024 34.3986 41.6445 34.0545 41.3004L28.7937 36.0395L30.4948 34.3369L35.7564 39.5985C36.1006 39.9426 36.6583 39.9426 37.0026 39.5985C37.3466 39.2544 37.3466 38.6965 37.0026 38.3525L31.7404 33.0903L33.4415 31.3877L38.7043 36.6506C39.0485 36.9946 39.6064 36.9947 39.9504 36.6506C40.2945 36.3065 40.2945 35.7486 39.9504 35.4045L34.687 30.1411L36.3881 28.4385L41.6523 33.7026C41.9965 34.0467 42.5542 34.0467 42.8984 33.7026C43.2425 33.3586 43.2425 32.8007 42.8984 32.4566L37.6336 27.1918L39.3348 25.4892L44.6003 30.7547C44.9444 31.0987 45.5021 31.0987 45.8464 30.7547C46.1905 30.4106 46.1905 29.8527 45.8464 29.5086L40.5803 24.2427L42.2814 22.54L47.5482 27.8068C47.8924 28.1509 48.4501 28.1509 48.7943 27.8068C49.1384 27.4628 49.1384 26.9049 48.7943 26.5608L43.527 21.2935L45.2281 19.5909L50.4961 24.8589C50.8402 25.203 51.3981 25.203 51.7423 24.8589C52.086 24.5149 52.086 23.957 51.7419 23.6129ZM41.6982 20.6305C41.684 20.643 41.6702 20.6559 41.6566 20.6695C41.6429 20.6832 41.6297 20.6973 41.6171 20.7117L38.7679 23.5633C38.7475 23.5803 38.7278 23.5983 38.7087 23.6174C38.6894 23.6367 38.6713 23.6567 38.6542 23.6772L35.8342 26.4997C35.8088 26.5199 35.7843 26.5419 35.7608 26.5654C35.7372 26.5891 35.7149 26.6138 35.6946 26.6394L32.8981 29.4383C32.8685 29.4612 32.8401 29.4862 32.8129 29.5133C32.7856 29.5406 32.7605 29.5693 32.7376 29.599L29.9609 32.3781C29.9275 32.4031 29.8955 32.4308 29.8651 32.4612C29.8345 32.4917 29.8066 32.524 29.7815 32.5576L27.0228 35.3188C26.9858 35.3457 26.9505 35.3758 26.9172 35.409C26.8837 35.4425 26.8534 35.4781 26.8265 35.5152L15.5908 46.7606C15.3883 46.9631 15.1191 47.0745 14.8328 47.0745C14.5464 47.0745 14.2772 46.963 14.0748 46.7606C13.6568 46.3426 13.6568 45.6625 14.0748 45.2444L42.3144 16.9901C42.3677 16.9367 42.4287 16.9255 42.4704 16.9255H42.4705C42.5124 16.9255 42.5736 16.9368 42.6272 16.9904L43.9817 18.3448L41.6982 20.6305Z" fill="#6B0606"/>
</svg>
