<svg width="64" height="64" viewBox="0 0 64 64" fill="none" xmlns="http://www.w3.org/2000/svg">
<rect width="64" height="64" fill="white"/>
<path d="M23.9165 44.7898C18.1548 43.9655 13.81 38.9477 13.81 33.1178C13.81 26.6154 19.1001 21.3253 25.6024 21.3253C26.3825 21.3253 27.1644 21.4025 27.9265 21.5547C28.4168 21.6527 28.8934 21.3345 28.9912 20.8445C29.0891 20.3544 28.7711 19.8776 28.2811 19.7797C27.4025 19.6043 26.5014 19.5153 25.6024 19.5153C18.1021 19.5153 12 25.6174 12 33.1178C12 36.4114 13.1925 39.5893 15.3579 42.066C17.5023 44.5188 20.4507 46.1223 23.6601 46.5816C23.7036 46.5877 23.7468 46.5908 23.7894 46.5908C24.2324 46.5908 24.6195 46.2652 24.6842 45.8139C24.7549 45.3191 24.4112 44.8606 23.9165 44.7898Z" fill="#6B0606"/>
<path d="M51.7622 29.5121C51.5908 29.325 51.3487 29.2184 51.095 29.2184H50.0466V28.0872H50.1182C50.6181 28.0872 51.0232 27.6819 51.0232 27.1822C51.0232 26.6825 50.6181 26.2772 50.1182 26.2772H50.0466V24.241C50.0466 23.7413 49.6414 23.3361 49.1416 23.3361H45.1508C44.8737 22.6648 44.4855 22.0297 43.9906 21.4417C42.9231 20.1731 41.4714 19.3143 39.6757 18.8894C37.8194 18.4501 37.113 17.0626 36.8954 16.4865C36.7326 16.0552 36.2719 15.8149 35.825 15.9293C34.0544 16.381 32.5272 17.7054 31.7395 19.4719C31.1691 20.7513 31.0486 22.1163 31.3673 23.3361H27.6534C27.1536 23.3361 26.7485 23.7413 26.7485 24.241V26.2772H26.6768C26.177 26.2772 25.7718 26.6825 25.7718 27.1822C25.7718 27.6819 26.177 28.0872 26.6768 28.0872H26.7485V29.2184H25.7C25.4463 29.2184 25.2041 29.325 25.0327 29.5121C24.8613 29.6991 24.7763 29.9496 24.7985 30.2025L25.9792 43.6671C26.1935 46.1109 28.3638 48.0991 30.8169 48.0991H45.9781C48.4312 48.0991 50.6014 46.1109 50.8157 43.6671L51.9964 30.2025C52.0186 29.9496 51.9337 29.6992 51.7622 29.5121ZM33.3926 20.209C33.849 19.1855 34.6406 18.3721 35.5821 17.9312C36.3591 19.2862 37.6826 20.2778 39.2589 20.6508C40.6877 20.989 41.7825 21.629 42.6057 22.6072C42.8031 22.8418 42.9766 23.0853 43.1278 23.3362H33.2758C32.8795 22.4144 32.9151 21.28 33.3926 20.209ZM28.5585 25.146H44.5063C44.5085 25.146 44.5106 25.1463 44.5128 25.1463C44.514 25.1463 44.5153 25.146 44.5165 25.146H48.2366V26.2772H28.5585V25.146ZM28.5585 28.0872H48.2366V29.2184H28.5585V28.0872ZM49.0127 43.5089C48.8806 45.016 47.4909 46.2892 45.9781 46.2892H30.817C29.3042 46.2892 27.9145 45.0161 27.7824 43.5089L26.6879 31.0284H50.1072L49.0127 43.5089Z" fill="#6B0606"/>
</svg>
