<svg width="97" height="142" viewBox="0 0 97 142" fill="none" xmlns="http://www.w3.org/2000/svg">
<path d="M29.8553 120.929H20.1757V119.862C20.9413 119.862 21.5428 119.808 21.9803 119.698C22.746 119.452 23.1288 118.769 23.1288 117.648V95.9093C21.8163 95.3898 20.3807 95.13 18.8221 95.13C17.6464 95.13 16.7303 95.4171 16.0741 95.9913C14.953 96.9757 14.3925 99.3819 14.3925 103.21V103.456H18.8221V104.523H14.3925V119.862H16.5253C16.6893 119.862 16.8397 119.876 16.9764 119.903C17.3319 119.958 17.5096 120.3 17.5096 120.929H7.78894V119.862C9.81238 119.862 10.8514 119.151 10.9061 117.73V104.523H7.91199V103.456H10.9061V102.841C10.9061 100.9 11.2479 99.2316 11.9315 97.837C13.162 95.3214 15.2811 94.0636 18.2889 94.0636C19.1913 94.0636 20.285 94.1319 21.5702 94.2687H26.6561V119.862H28.871C29.035 119.862 29.1854 119.876 29.3221 119.903C29.6776 119.958 29.8553 120.3 29.8553 120.929ZM36.2538 112.151C36.2811 117.538 38.0038 120.259 41.4218 120.314C44.7303 120.286 46.3983 117.511 46.4257 111.987C46.3983 106.737 44.703 104.085 41.3397 104.03C37.9764 104.058 36.2811 106.765 36.2538 112.151ZM41.4628 103.005C43.4042 103.005 45.1405 103.525 46.6718 104.564C49.1327 106.259 50.3632 108.775 50.3632 112.11C50.3632 114.626 49.5702 116.745 47.9843 118.468C46.2343 120.382 44.0057 121.339 41.2987 121.339C39.33 121.339 37.5526 120.765 35.9667 119.616C33.5604 117.866 32.3573 115.323 32.3573 111.987C32.3573 109.554 33.1229 107.503 34.6542 105.835C36.4315 103.948 38.701 103.005 41.4628 103.005ZM62.5448 119.903C62.7089 119.903 62.8456 119.917 62.955 119.944C63.3651 119.999 63.5702 120.327 63.5702 120.929H53.1522V119.903C53.9725 119.903 54.5741 119.849 54.9569 119.739C55.6952 119.493 56.0643 118.741 56.0643 117.484V104.482H53.1522V103.456H59.3456L59.5096 107.394C59.8378 106.628 60.2753 105.944 60.8221 105.343C62.1346 103.921 63.6385 103.21 65.3339 103.21C65.6346 103.21 65.9218 103.237 66.1952 103.292C67.453 103.566 68.0819 104.331 68.0819 105.589C68.0819 105.78 68.0546 105.985 67.9999 106.204C67.7264 107.052 67.1385 107.476 66.2362 107.476C66.0448 107.476 65.8534 107.448 65.662 107.394C65.2245 107.257 64.787 106.806 64.3495 106.04C63.9667 105.357 63.5702 105.015 63.16 105.015C62.8319 105.015 62.4354 105.206 61.9706 105.589C60.576 106.765 59.7831 108.528 59.5917 110.88V119.903H62.5448ZM84.2831 121.339C82.3143 121.312 81.1522 120.067 80.7968 117.607C80.5507 118.208 80.1815 118.769 79.6893 119.288C78.3768 120.655 76.7225 121.339 74.7264 121.339C73.9061 121.339 73.1405 121.202 72.4296 120.929C70.5428 120.191 69.5995 118.741 69.5995 116.581C69.5995 116.226 69.6268 115.898 69.6815 115.597C70.2557 112.48 73.9471 110.907 80.7557 110.88V108.296C80.7284 105.507 79.4979 104.085 77.0643 104.03C76.0253 104.03 75.246 104.386 74.7264 105.097C74.6444 105.234 74.412 105.835 74.0292 106.901C73.701 107.776 73.1678 108.214 72.4296 108.214C72.2655 108.214 72.0878 108.2 71.8964 108.173C71.076 107.982 70.6659 107.448 70.6659 106.573C70.6659 106.109 70.83 105.644 71.1581 105.179C72.1971 103.73 74.3026 103.005 77.4745 103.005C81.9315 103.032 84.1874 105.124 84.2421 109.28V117.935C84.2694 119.275 84.6249 119.972 85.3085 120.026C86.1561 119.999 86.6757 119.001 86.8671 117.032L87.9335 117.073C87.9061 117.538 87.8651 117.976 87.8104 118.386C87.4276 120.355 86.2518 121.339 84.2831 121.339ZM76.244 119.657C76.7362 119.657 77.2557 119.548 77.8026 119.329C79.3065 118.618 80.2909 117.319 80.7557 115.433V112.028C78.8417 112.056 77.3514 112.192 76.285 112.439C74.2616 112.931 73.2499 114.093 73.2499 115.925C73.2499 116.226 73.2635 116.513 73.2909 116.786C73.537 118.7 74.5214 119.657 76.244 119.657Z" fill="#955D34"/>
<path d="M30.3405 139.56V132.288H31.1786V134.972H31.2496C31.3112 134.878 31.3964 134.757 31.5053 134.61C31.6166 134.461 31.7752 134.328 31.9811 134.212C32.1895 134.094 32.4712 134.035 32.8263 134.035C33.2856 134.035 33.6904 134.15 34.0408 134.379C34.3912 134.609 34.6646 134.934 34.8611 135.356C35.0576 135.777 35.1559 136.274 35.1559 136.847C35.1559 137.425 35.0576 137.926 34.8611 138.349C34.6646 138.771 34.3924 139.098 34.0444 139.33C33.6963 139.559 33.2951 139.674 32.8405 139.674C32.4901 139.674 32.2096 139.616 31.9989 139.5C31.7882 139.382 31.626 139.248 31.5124 139.099C31.3988 138.947 31.3112 138.822 31.2496 138.722H31.1502V139.56H30.3405ZM31.1644 136.833C31.1644 137.245 31.2248 137.608 31.3455 137.923C31.4662 138.236 31.6426 138.481 31.8746 138.658C32.1066 138.834 32.3907 138.921 32.7269 138.921C33.0773 138.921 33.3696 138.829 33.604 138.644C33.8408 138.457 34.0183 138.206 34.1367 137.891C34.2574 137.574 34.3178 137.221 34.3178 136.833C34.3178 136.45 34.2586 136.104 34.1402 135.796C34.0242 135.486 33.8479 135.241 33.6111 135.061C33.3767 134.879 33.082 134.788 32.7269 134.788C32.386 134.788 32.0995 134.874 31.8675 135.047C31.6355 135.217 31.4603 135.456 31.3419 135.764C31.2236 136.07 31.1644 136.426 31.1644 136.833ZM38.7248 139.674C38.1992 139.674 37.7458 139.558 37.3647 139.326C36.9859 139.092 36.6935 138.765 36.4875 138.346C36.2839 137.925 36.1821 137.434 36.1821 136.876C36.1821 136.317 36.2839 135.825 36.4875 135.398C36.6935 134.97 36.98 134.636 37.3469 134.397C37.7162 134.156 38.1471 134.035 38.6395 134.035C38.9236 134.035 39.2042 134.082 39.4811 134.177C39.7581 134.272 40.0103 134.425 40.2375 134.639C40.4648 134.849 40.6459 135.129 40.7809 135.477C40.9158 135.825 40.9833 136.253 40.9833 136.762V137.117H36.7787V136.393H40.131C40.131 136.085 40.0695 135.81 39.9463 135.569C39.8256 135.327 39.6528 135.137 39.4279 134.997C39.2053 134.858 38.9426 134.788 38.6395 134.788C38.3057 134.788 38.0169 134.871 37.773 135.036C37.5316 135.2 37.3457 135.413 37.2155 135.675C37.0853 135.938 37.0202 136.22 37.0202 136.521V137.004C37.0202 137.416 37.0912 137.765 37.2333 138.051C37.3777 138.335 37.5777 138.552 37.8334 138.701C38.0891 138.848 38.3862 138.921 38.7248 138.921C38.9449 138.921 39.1438 138.89 39.3213 138.829C39.5013 138.765 39.6563 138.67 39.7865 138.545C39.9168 138.417 40.0174 138.258 40.0884 138.069L40.898 138.296C40.8128 138.571 40.6696 138.812 40.4684 139.021C40.2671 139.227 40.0186 139.388 39.7226 139.504C39.4267 139.617 39.0941 139.674 38.7248 139.674ZM43.8632 139.688C43.5176 139.688 43.2039 139.623 42.9222 139.493C42.6405 139.36 42.4168 139.17 42.251 138.921C42.0853 138.67 42.0025 138.367 42.0025 138.012C42.0025 137.7 42.064 137.446 42.1871 137.252C42.3102 137.056 42.4748 136.902 42.6807 136.791C42.8867 136.679 43.114 136.596 43.3625 136.542C43.6135 136.485 43.8656 136.44 44.1189 136.407C44.4504 136.364 44.7191 136.332 44.925 136.311C45.1334 136.287 45.2849 136.248 45.3796 136.194C45.4766 136.139 45.5252 136.045 45.5252 135.91V135.881C45.5252 135.531 45.4293 135.259 45.2375 135.065C45.0481 134.871 44.7605 134.773 44.3746 134.773C43.9745 134.773 43.6608 134.861 43.4336 135.036C43.2063 135.211 43.0465 135.398 42.9542 135.597L42.1587 135.313C42.3007 134.982 42.4901 134.724 42.7269 134.539C42.966 134.352 43.2264 134.222 43.5081 134.148C43.7922 134.073 44.0716 134.035 44.3462 134.035C44.5214 134.035 44.7226 134.056 44.9499 134.099C45.1795 134.139 45.4009 134.223 45.614 134.351C45.8294 134.479 46.0081 134.672 46.1502 134.93C46.2922 135.188 46.3632 135.533 46.3632 135.967V139.56H45.5252V138.822H45.4826C45.4257 138.94 45.3311 139.067 45.1985 139.202C45.0659 139.337 44.8895 139.452 44.6694 139.546C44.4492 139.641 44.1805 139.688 43.8632 139.688ZM43.9911 138.935C44.3225 138.935 44.6019 138.87 44.8292 138.74C45.0588 138.61 45.2316 138.442 45.3476 138.236C45.466 138.03 45.5252 137.813 45.5252 137.586V136.819C45.4897 136.862 45.4115 136.901 45.2908 136.936C45.1724 136.969 45.0351 136.999 44.8789 137.025C44.725 137.049 44.5747 137.07 44.4279 137.089C44.2835 137.105 44.1663 137.12 44.0763 137.131C43.8585 137.16 43.6549 137.206 43.4655 137.27C43.2785 137.331 43.127 137.425 43.011 137.55C42.8973 137.674 42.8405 137.842 42.8405 138.055C42.8405 138.346 42.9482 138.566 43.1637 138.715C43.3815 138.862 43.6573 138.935 43.9911 138.935ZM51.3304 137.33V134.106H52.1685V139.56H51.3304V138.637H51.2736C51.1457 138.914 50.9469 139.15 50.677 139.344C50.4071 139.536 50.0662 139.631 49.6543 139.631C49.3134 139.631 49.0103 139.557 48.7452 139.408C48.48 139.256 48.2717 139.029 48.1202 138.726C47.9687 138.42 47.8929 138.036 47.8929 137.572V134.106H48.731V137.515C48.731 137.913 48.8422 138.23 49.0648 138.467C49.2897 138.703 49.5761 138.822 49.9242 138.822C50.1325 138.822 50.3444 138.769 50.5598 138.662C50.7776 138.555 50.9599 138.392 51.1067 138.172C51.2558 137.952 51.3304 137.671 51.3304 137.33ZM56.0756 134.106V134.816H53.2489V134.106H56.0756ZM54.0728 132.799H54.9108V137.998C54.9108 138.235 54.9452 138.412 55.0138 138.531C55.0848 138.647 55.1748 138.725 55.2837 138.765C55.395 138.803 55.5122 138.822 55.6353 138.822C55.7276 138.822 55.8034 138.817 55.8625 138.808C55.9217 138.796 55.9691 138.786 56.0046 138.779L56.175 139.532C56.1182 139.553 56.0389 139.575 55.9371 139.596C55.8353 139.62 55.7063 139.631 55.55 139.631C55.3133 139.631 55.0813 139.581 54.854 139.479C54.6291 139.377 54.4421 139.222 54.2929 139.014C54.1462 138.805 54.0728 138.542 54.0728 138.225V132.799ZM57.876 141.606C57.734 141.606 57.6073 141.594 57.4961 141.57C57.3848 141.549 57.3079 141.528 57.2652 141.506L57.4783 140.768C57.6819 140.82 57.8618 140.839 58.0181 140.825C58.1743 140.81 58.3128 140.741 58.4336 140.615C58.5567 140.492 58.6691 140.292 58.7709 140.015L58.9272 139.589L56.9101 134.106H57.8192L59.3249 138.452H59.3817L60.8874 134.106H61.7965L59.4811 140.356C59.377 140.638 59.248 140.871 59.0941 141.055C58.9402 141.242 58.7614 141.381 58.5579 141.471C58.3566 141.561 58.1293 141.606 57.876 141.606Z" fill="#955D34"/>
<path d="M36.8201 63.9066C36.9561 63.6026 37.0461 63.3346 37.1871 63.0966C37.9871 61.7476 38.5061 60.3046 38.7041 58.7446C38.8631 57.4846 39.0401 56.2276 39.2131 54.9696C39.3931 53.6606 39.9411 52.5476 40.9511 51.6696C41.2631 51.3986 41.5531 51.0916 41.7981 50.7606C41.9721 50.5256 42.0991 50.2326 42.1681 49.9466C42.3231 49.3076 42.4281 48.6576 42.5701 47.9286C42.1631 47.8906 41.7121 47.8426 41.2611 47.8086C37.9901 47.5616 35.0291 46.3896 32.2101 44.7866C31.5371 44.4036 30.8471 44.0476 30.1841 43.6496C28.3451 42.5446 26.4051 41.6966 24.3111 41.2036C23.8571 41.0966 23.3901 40.9506 22.9951 40.7136C22.5551 40.4496 22.1191 40.1146 21.8091 39.7116C21.2581 38.9966 21.4411 38.3106 22.2821 37.9796C22.9411 37.7206 23.6551 37.5546 24.3591 37.4696C25.3691 37.3476 26.3921 37.3376 27.6111 37.2676C27.2961 36.9236 27.1091 36.7056 26.9081 36.5016C25.4131 34.9926 24.2071 33.2826 23.3251 31.3496C22.7921 30.1816 22.4571 28.9616 22.4341 27.6676C22.3881 24.9896 24.7361 23.2366 27.5051 24.6356C28.1651 24.9686 28.7401 25.4706 29.3531 25.8966C29.5071 26.0036 29.6571 26.1166 29.9451 26.3266C29.8711 25.9716 29.8371 25.7696 29.7881 25.5726C28.6511 21.0116 28.9621 16.6236 31.4331 12.5276C31.9291 11.7046 32.5331 10.9266 33.1941 10.2296C34.3441 9.01661 35.7941 8.47363 37.4771 8.68863C38.5201 8.82163 39.4561 8.71061 40.4061 8.13861C42.2811 7.00961 44.3241 6.8936 46.4151 7.4996C46.5991 7.5526 46.7881 7.5886 46.9231 7.6206C47.0341 7.5916 47.0961 7.59062 47.1401 7.56262C49.4061 6.12262 51.7641 6.35062 54.1601 7.16162C55.6441 7.66462 56.8881 8.49861 57.8061 9.78061C58.3431 10.5296 59.0291 10.9526 59.9741 10.9416C60.4431 10.9366 60.9131 11.0306 61.3811 11.0236C62.5501 11.0066 63.3821 11.5476 63.9861 12.5096C65.1961 14.4386 65.6271 16.5416 65.3441 18.7856C65.1791 20.0946 64.9401 21.3946 64.7341 22.7016C64.7661 22.7136 64.8181 22.7536 64.8621 22.7456C66.3231 22.4666 67.1601 22.8156 67.9731 24.0446C68.9251 25.4846 68.9371 27.0636 68.6611 28.6836C68.3391 30.5756 67.5881 32.2776 66.3791 33.7746C66.2801 33.8966 66.2061 34.0396 66.0141 34.3396C66.7581 34.3006 67.3461 34.2626 67.9351 34.2386C68.9011 34.2006 69.8731 34.0946 70.8321 34.1586C71.9741 34.2346 72.9561 34.7136 73.6471 35.6956C74.0791 36.3086 74.1801 36.9886 74.0101 37.6716C73.9271 38.0076 73.6471 38.4006 73.3471 38.5536C72.8211 38.8236 72.2211 39.0216 71.6341 39.0856C69.8481 39.2786 68.0501 39.3526 66.2641 39.5486C63.8221 39.8166 61.6291 40.7766 59.6101 42.1486C58.8551 42.6616 58.1241 43.2096 57.3861 43.7476C55.9491 44.7936 54.4151 45.6686 52.7901 46.3866C52.6411 46.4526 52.4971 46.5296 52.2491 46.6506C52.6481 46.8226 52.9571 46.9646 53.2731 47.0906C54.5191 47.5866 55.3181 48.4716 55.6281 49.7846C55.6851 50.0266 55.7561 50.2656 55.8001 50.5096C56.0471 51.8586 56.5431 53.0886 57.3091 54.2446C58.2441 55.6556 58.9701 57.1876 59.1971 58.8946C59.3691 60.1936 59.3301 61.4906 58.9291 62.7526C58.8421 63.0256 58.6741 63.2736 58.5431 63.5326C58.4761 63.5306 58.4091 63.5276 58.3421 63.5256C58.2801 63.2556 58.1801 62.9886 58.1641 62.7166C58.0891 61.4986 57.7271 60.3876 57.0041 59.3986C56.4161 58.5946 55.8511 57.7726 55.2381 56.9896C53.9391 55.3306 53.1171 53.5156 53.1311 51.3546C53.1351 50.7036 52.9841 50.0316 52.7921 49.4026C52.3651 48.0036 51.5891 47.4286 50.1331 47.3246C49.8861 47.3066 49.6371 47.3226 49.3751 47.3226C48.8321 47.6226 48.6701 48.1456 48.6441 48.7136C48.6091 49.4876 48.5681 50.2666 48.6201 51.0366C48.7871 53.5026 48.3711 55.8836 47.7101 58.2436C47.0801 60.4956 46.6791 62.7916 47.0061 65.1316C47.2241 66.6886 47.4891 68.2566 47.9351 69.7606C48.9791 73.2806 49.3081 76.8656 49.2061 80.5096C49.1251 83.3866 48.9811 86.2616 48.9311 89.1386C48.8951 91.1576 48.9701 93.1776 48.9941 95.1976C48.9971 95.4466 49.0271 95.7036 48.9751 95.9416C48.9381 96.1116 48.7851 96.2566 48.6831 96.4136C48.6111 96.3986 48.5381 96.3846 48.4661 96.3696C48.4091 96.1476 48.3041 95.9256 48.3031 95.7036C48.2841 92.1906 48.2291 88.6766 48.2831 85.1646C48.3291 82.2336 48.5981 79.3086 48.3751 76.3706C48.2321 74.4856 47.8981 72.6476 47.4381 70.8176C47.0141 69.1306 46.6521 67.4246 46.3491 65.7116C45.9331 63.3546 46.2451 61.0256 46.8051 58.7226C47.0271 57.8096 47.2671 56.9006 47.5041 55.9906C48.0411 53.9206 47.9461 51.8166 47.8091 49.7166C47.7361 48.5926 47.1701 47.7736 46.3431 47.6326C45.3631 47.4656 44.5421 47.8316 43.9901 48.6786C43.5231 49.3966 43.0601 50.1216 42.6661 50.8806C42.5121 51.1766 42.5031 51.5746 42.5101 51.9236C42.5471 53.5626 42.4321 55.1826 42.0351 56.7786C41.6291 58.4076 41.0191 59.9306 39.8721 61.2026C39.1891 61.9606 38.5651 62.7706 37.8811 63.5276C37.6561 63.7746 37.3721 64.0406 36.8201 63.9066ZM48.9331 38.6556C48.9921 38.6456 49.0511 38.6346 49.1101 38.6246C49.2441 37.8386 49.3731 37.0516 49.5131 36.2666C49.9201 33.9816 50.3411 31.7116 51.3351 29.5726C52.3271 27.4386 53.9771 26.2396 56.1841 25.6626C57.7411 25.2556 59.2901 25.2546 60.8651 25.5686C62.3871 25.8716 62.7481 25.6916 63.3731 24.2586C64.4621 21.7616 64.9161 19.1296 64.7621 16.4156C64.6871 15.1006 64.1781 13.8936 63.4631 12.7836C62.9791 12.0326 62.3241 11.5966 61.3971 11.6346C61.0381 11.6496 60.6781 11.6256 60.3191 11.6276C58.9901 11.6346 57.9181 11.1876 57.1391 10.0376C56.2431 8.71562 54.8791 8.03462 53.3921 7.59262C52.0291 7.18762 50.6451 6.97261 49.2271 7.32361C46.1021 8.0976 43.7991 11.8196 43.6681 14.2356C43.5901 15.6656 43.6161 17.1076 43.6961 18.5386C43.7701 19.8586 43.4961 20.9866 42.7321 22.1156C41.2451 24.3156 40.9821 26.7816 41.6431 29.3446C41.8701 30.2256 42.3391 30.8766 43.1271 31.4306C45.5841 33.1576 47.6021 35.2886 48.6741 38.1756C48.7371 38.3426 48.8461 38.4956 48.9331 38.6556ZM41.2301 30.2136C41.2221 30.0756 41.2301 30.0166 41.2151 29.9666C40.2411 26.8356 40.6221 23.9066 42.5441 21.2206C42.9331 20.6766 43.1131 20.0996 43.0821 19.4376C43.0321 18.3886 42.9631 17.3376 42.9681 16.2886C42.9731 15.3806 42.9961 14.4606 43.1431 13.5676C43.4501 11.7086 44.4571 10.1896 45.6671 8.79263C45.8361 8.59763 46.0081 8.4046 46.2491 8.1296C44.3521 7.6296 42.6151 7.65862 41.0481 8.58462C39.8101 9.31762 38.5861 9.55063 37.1821 9.33963C35.8391 9.13763 34.6791 9.6666 33.7271 10.6076C33.2971 11.0326 32.8881 11.4956 32.5471 11.9946C29.4211 16.5616 29.1531 21.4996 30.7091 26.6546C30.7891 26.9216 31.0241 27.1646 31.2381 27.3636C32.0991 28.1616 33.2011 28.3776 34.3031 28.4666C36.6151 28.6546 38.8171 29.2166 40.9291 30.1616C41.0011 30.1916 41.0871 30.1896 41.2301 30.2136ZM65.0531 34.3176C67.1041 32.3686 68.4091 28.9136 68.1171 26.2576C68.0051 25.2376 67.6141 24.3146 66.8101 23.6506C65.9741 22.9616 65.0831 22.9776 64.5691 24.0586C64.3801 24.4566 64.1531 24.8396 63.9211 25.2156C63.4821 25.9256 62.8481 26.3286 61.9991 26.3116C61.4211 26.2996 60.8341 26.2936 60.2681 26.1906C58.8181 25.9266 57.4001 26.0426 56.0061 26.4696C54.3601 26.9736 53.0071 27.8506 52.2251 29.4686C51.6821 30.5916 51.1561 31.7156 50.9161 32.9496C50.5991 34.5766 50.2821 36.2036 49.9711 37.8316C49.5321 40.1306 49.3761 42.5126 47.9161 44.5736C48.3281 45.0516 47.8631 45.9186 48.7391 46.2646C49.9651 45.6226 51.1481 44.9056 51.9991 43.7776C52.6641 42.8966 53.2881 41.9796 53.8651 41.0386C54.8501 39.4306 55.8581 37.8506 57.2841 36.5786C59.1751 34.8916 61.2831 33.8166 63.9081 34.1376C64.2881 34.1876 64.6661 34.2576 65.0531 34.3176ZM22.0791 38.8596C22.2841 39.5586 22.7281 39.9196 23.2811 40.1406C23.7661 40.3346 24.2711 40.4936 24.7791 40.6136C26.5671 41.0366 28.2491 41.7006 29.8451 42.6196C31.5451 43.5976 33.2581 44.5606 35.0161 45.4276C38.0341 46.9166 41.2391 47.4946 44.5911 47.0766C45.2961 46.9886 46.0031 46.7976 46.6681 46.5456C47.4731 46.2396 47.6451 45.7826 47.4011 44.9656C47.3141 44.6756 47.2051 44.3896 47.0791 44.1146C45.5681 40.7856 43.0041 38.3736 40.1521 36.2246C39.5631 35.7806 38.8591 35.6216 38.0661 35.9406C37.9561 36.3016 37.8401 36.6656 37.7351 37.0336C37.4881 37.9036 37.2561 38.0206 36.4291 37.6696C35.7681 37.3886 35.1231 37.0646 34.4491 36.8236C32.7171 36.2046 31.0281 36.2916 29.4221 37.2456C28.4631 37.8146 27.4121 37.9856 26.3191 38.0076C25.5731 38.0226 24.8241 38.0266 24.0821 38.0906C23.3701 38.1516 22.6661 38.2896 22.0791 38.8596ZM47.6841 43.7446C48.4201 42.2586 49.0121 40.9316 48.4931 39.4126C48.2801 38.7876 48.0201 38.1626 47.6731 37.6046C47.2831 36.9776 46.8581 36.3216 46.2971 35.8626C44.6191 34.4866 42.6321 33.6916 40.5201 33.3086C39.1411 33.0586 37.7191 33.0296 36.3141 32.9426C33.8461 32.7896 31.8301 31.8366 30.4591 29.7126C30.0541 29.0856 29.6881 28.4336 29.2821 27.8076C28.8611 27.1586 28.4501 26.4986 27.9701 25.8946C27.1621 24.8786 25.7191 24.5146 24.6041 24.9836C23.6081 25.4026 22.9041 26.6896 23.1201 27.9656C23.2891 28.9646 23.5421 29.9696 23.9161 30.9096C24.5421 32.4856 25.4761 33.8976 26.5951 35.1756C27.1381 35.7956 27.7161 36.3856 28.3001 37.0126C28.6371 36.8436 28.9131 36.7216 29.1721 36.5716C30.1301 36.0216 31.1601 35.7656 32.2621 35.7576C33.5951 35.7476 34.8211 36.1386 36.0061 36.7056C36.3161 36.8546 36.6301 36.9956 36.9991 37.1666C37.1211 36.7336 37.1991 36.4146 37.3001 36.1036C37.5331 35.3866 37.8111 35.1836 38.5651 35.1386C39.5031 35.0816 40.3041 35.4126 41.0001 36.0106C41.9651 36.8396 42.9621 37.6396 43.8551 38.5406C44.6861 39.3796 45.4411 40.3046 46.1491 41.2526C46.6911 41.9776 47.1071 42.7956 47.6841 43.7446ZM49.8301 46.4686C50.5921 46.5706 51.3721 46.4336 52.4061 45.9956C54.0181 45.3136 55.5161 44.4286 56.9341 43.4056C57.7421 42.8226 58.5331 42.2156 59.3541 41.6526C61.2241 40.3716 63.2511 39.4066 65.5061 39.0996C67.3651 38.8456 69.2501 38.7896 71.1201 38.6116C71.6891 38.5576 72.2731 38.4556 72.8041 38.2546C73.5321 37.9796 73.7601 37.3586 73.5131 36.6316C73.1311 35.5076 71.6071 34.4086 70.2391 35.0126C69.7091 35.2466 69.1821 35.4946 68.6821 35.7856C67.6531 36.3846 66.5481 36.6896 65.3661 36.7156C64.7301 36.7296 64.0921 36.6686 63.4571 36.6986C62.2451 36.7566 61.0141 36.7426 59.8291 36.9616C57.8901 37.3196 56.2281 38.1876 55.2471 40.0446C54.8601 40.7766 54.3861 41.4636 53.9441 42.1656C52.9461 43.7486 51.8031 45.1956 50.1561 46.1646C50.0671 46.2156 50.0011 46.3066 49.8301 46.4686ZM45.6641 34.8436C45.6231 34.6586 45.6231 34.6276 45.6101 34.6056C45.5681 34.5346 45.5271 34.4616 45.4741 34.3996C42.9561 31.4206 39.6211 29.9736 35.8801 29.3036C35.0941 29.1626 34.2971 29.0716 33.5011 28.9926C32.3891 28.8816 31.4321 28.4426 30.5811 27.7336C30.2331 27.4446 29.8641 27.1816 29.5041 26.9056C29.4551 26.9536 29.4071 27.0006 29.3591 27.0486C30.0681 28.0906 30.7241 29.1756 31.5011 30.1646C32.4791 31.4086 33.8191 32.1056 35.3881 32.3236C36.3161 32.4526 37.2471 32.5766 38.1811 32.6396C40.4961 32.7956 42.6991 33.3376 44.7581 34.4266C45.0171 34.5626 45.2911 34.6726 45.6641 34.8436ZM37.6861 63.0546C40.5031 60.6526 42.6971 54.6696 41.8911 51.8066C41.2881 52.2316 41.2671 52.8906 41.1631 53.4946C40.9771 54.5816 40.8531 55.6806 40.6481 56.7646C40.5241 57.4226 40.4161 58.1036 39.9271 58.8496C40.3111 56.7096 40.6601 54.7626 41.0351 52.6696C40.3981 53.1406 40.1541 53.6716 40.0191 54.2306C39.7601 55.3026 39.5051 56.3816 39.3491 57.4716C39.0931 59.2546 38.8891 61.0406 37.8411 62.5866C37.7861 62.6696 37.7751 62.7816 37.6861 63.0546ZM58.1121 36.8926C58.1891 36.8876 58.2711 36.9006 58.3411 36.8756C60.1691 36.2386 62.0571 36.1196 63.9741 36.1876C64.7171 36.2136 65.4651 36.1846 66.2081 36.1356C67.1261 36.0746 68.6671 35.3606 69.2161 34.7586C68.8081 34.7936 68.4541 34.8256 68.1001 34.8546C66.8091 34.9606 65.5221 35.1506 64.2261 34.8676C61.8171 34.3396 59.8671 35.2976 58.1121 36.8926ZM53.6421 48.0406C54.0561 49.3276 54.5021 50.5416 54.8321 51.7866C55.2111 53.2156 55.7671 54.5426 56.5871 55.7776C57.3661 56.9506 58.0691 58.1776 58.3641 59.5816C58.4911 60.1846 58.5721 60.7966 58.6741 61.4046C58.9111 60.0026 58.7961 58.6346 58.2141 57.3566C57.7241 56.2796 57.1761 55.2206 56.5561 54.2136C55.9671 53.2576 55.5491 52.2616 55.3201 51.1676C55.1851 50.5226 55.0031 49.8816 54.7741 49.2636C54.5721 48.7146 54.2071 48.2696 53.6421 48.0406ZM57.8111 59.5246C57.6511 58.1276 56.9341 56.9766 56.2021 55.8506C55.3451 54.5326 54.8031 53.1186 54.4791 51.5816C54.2591 50.5386 53.8641 49.5296 53.5061 48.5196C53.4071 48.2416 53.1571 48.0166 52.9761 47.7676C52.9141 47.7956 52.8531 47.8236 52.7911 47.8516C53.7191 49.2416 53.7321 50.8116 53.8331 52.3776C53.8971 53.3776 54.2181 54.3376 54.7851 55.1756C55.7741 56.6386 56.8001 58.0766 57.8111 59.5246Z" fill="#955D34"/>
<path d="M45.4281 96.5776C45.2961 96.3336 45.1591 96.1396 45.0811 95.9246C44.5651 94.4996 43.6661 93.3256 42.4501 92.4816C40.7661 91.3126 39.5161 89.8096 38.5171 88.0586C37.9961 87.1456 37.4721 86.2346 36.9731 85.3096C36.3851 84.2216 35.5641 83.3466 34.6561 82.5166C33.0051 81.0046 31.3391 79.4986 29.8061 77.8706C27.3281 75.2366 25.5741 72.1426 24.4311 68.7076C23.9681 67.3176 23.5311 65.9196 23.0581 64.5326C22.1261 61.8006 20.8941 59.2096 19.3931 56.7426C18.8761 55.8926 18.4091 55.0126 17.9281 54.1406C17.7981 53.9056 17.7031 53.6516 17.5741 53.3676C18.0881 53.1506 18.2951 53.5116 18.5401 53.7286C19.8041 54.8466 21.0181 56.0256 22.3251 57.0906C25.2201 59.4496 28.1811 61.7266 31.0751 64.0856C34.3481 66.7546 36.7881 70.0796 38.5521 73.9056C39.6671 76.3236 40.1831 78.8886 40.3421 81.5326C40.4761 83.7486 40.7801 85.9316 41.4801 88.0506C41.7781 88.9526 42.1801 89.7836 42.7261 90.5636C43.5351 91.7176 44.3141 92.8946 45.0551 94.0936C45.3561 94.5816 45.5451 95.1436 45.7461 95.6866C45.8491 95.9616 45.9471 96.2856 45.4281 96.5776ZM19.2351 55.1146C19.1971 55.1406 19.1601 55.1676 19.1221 55.1936C19.2881 55.4636 19.4461 55.7386 19.6211 56.0026C21.2951 58.5266 22.6611 61.2056 23.6471 64.0726C24.1321 65.4836 24.5861 66.9066 25.0551 68.3226C26.1661 71.6766 27.8631 74.7056 30.2661 77.2966C31.6181 78.7536 33.0421 80.1586 34.5511 81.4516C36.0941 82.7746 37.3061 84.2996 38.2401 86.0906C38.8141 87.1916 39.4991 88.2356 40.1461 89.2976C40.2951 89.5416 40.4941 89.7546 40.6701 89.9826C39.8931 88.4926 39.3891 86.9266 38.8721 85.3596C38.0751 82.9446 36.8761 80.7716 35.1231 78.8796C34.1741 77.8556 33.3951 76.6476 32.6831 75.4376C31.5621 73.5326 30.5571 71.5576 29.5131 69.6076C27.6411 66.1126 25.5761 62.7456 22.9261 59.7716C22.8631 59.7016 22.8201 59.6136 22.7681 59.5346C22.8171 59.4916 22.8671 59.4486 22.9161 59.4056C23.0091 59.5446 23.0821 59.7026 23.1971 59.8186C25.9651 62.6166 28.1431 65.8376 30.0071 69.2856C31.0461 71.2076 32.0741 73.1356 33.1171 75.0546C33.8731 76.4456 34.7631 77.7416 35.8471 78.9026C36.9311 80.0646 37.8341 81.3536 38.4381 82.8306C38.8771 83.9036 39.2771 84.9926 39.6911 86.0756C39.9621 86.7856 40.1501 87.5336 40.6731 88.2796C40.6731 88.0406 40.7001 87.9266 40.6691 87.8316C39.8811 85.4416 39.7461 82.9526 39.5271 80.4726C39.3511 78.4806 38.9071 76.5376 38.1171 74.6926C36.0971 69.9766 32.9781 66.1186 28.8451 63.1026C25.6191 60.7486 22.6051 58.1506 19.6661 55.4576C19.5301 55.3356 19.3781 55.2296 19.2351 55.1146Z" fill="#955D34"/>
<path d="M52.3 96.6306C52.357 96.3626 52.3801 96.1196 52.4611 95.8976C53.8411 92.1256 54.4141 88.1896 54.8391 84.2236C55.1531 81.2956 56.2171 78.6576 57.9131 76.2616C59.5981 73.8806 61.5441 71.7276 63.6131 69.6796C64.6751 68.6286 65.7341 67.5726 66.8201 66.5466C69.5041 64.0086 71.6241 61.0596 73.3121 57.7856C73.4511 57.5146 73.5011 57.1396 73.8701 57.0656C73.9401 57.1286 74.0091 57.1606 74.0101 57.1956C74.1181 61.1336 74.009 65.0626 72.897 68.8706C71.409 73.9656 68.537 78.0866 64.009 80.9716C63.285 81.4326 62.5861 81.9316 61.8531 82.3766C60.1051 83.4396 59.0391 85.0786 58.3831 86.9096C57.5041 89.3586 56.0221 91.4096 54.5081 93.4486C53.8961 94.2736 53.5001 95.1466 53.2231 96.1096C53.1191 96.4736 53.027 96.7156 52.3 96.6306ZM73.6311 58.5976C73.4281 58.7386 73.3691 58.7586 73.3441 58.7996C73.0851 59.2246 72.8201 59.6456 72.5791 60.0806C71.2441 62.4946 69.6 64.6736 67.6451 66.6196C66.4101 67.8506 65.1721 69.0786 63.9441 70.3166C61.9921 72.2836 60.1411 74.3386 58.5381 76.6066C56.9641 78.8346 55.9251 81.2676 55.5691 83.9976C55.2441 86.4916 54.82 88.9726 54.44 91.4586C54.402 91.7076 54.3591 91.9566 54.3181 92.2056C54.6191 91.9926 54.8171 91.7546 54.9221 91.4806C55.3471 90.3736 55.8401 89.2796 56.1251 88.1356C56.4571 86.7986 56.6161 85.4176 56.8171 84.0506C57.2031 81.4356 58.1501 79.0836 60.0421 77.1906C60.8221 76.4106 61.659 75.6806 62.5201 74.9896C63.8151 73.9496 65.142 72.9546 66.2421 71.6926C68.9601 68.5756 71.0251 65.0636 72.6091 61.2566C72.7181 60.9946 72.8291 60.7336 72.9991 60.3276C72.9991 60.5506 73.0111 60.6066 72.9971 60.6546C71.9691 64.2666 70.1641 67.4886 67.9721 70.5006C66.8121 72.0946 65.4381 73.4986 63.8631 74.7016C63.0061 75.3566 62.1551 76.0256 61.3511 76.7436C59.3541 78.5296 57.9831 80.6846 57.5641 83.3806C57.3051 85.0456 57.0241 86.7086 56.7551 88.3716C56.7291 88.5336 56.7091 88.6966 56.6871 88.8586C57.0841 88.2546 57.3531 87.6216 57.6111 86.9856C58.5611 84.6486 59.9081 82.6366 62.1681 81.3566C62.6011 81.1116 63.0001 80.8086 63.4221 80.5446C68.0891 77.6236 70.9231 73.3706 72.4451 68.1586C73.0381 66.1286 73.2261 64.0356 73.4181 61.9446C73.5171 60.8736 73.5571 59.7996 73.6311 58.5976Z" fill="#955D34"/>
<path d="M31.5732 41.3446C31.7742 41.5086 31.9762 41.6706 32.1762 41.8366C34.5962 43.8446 37.1872 45.5686 40.2272 46.4916C42.3052 47.1236 44.4222 47.4026 46.6862 46.8906C45.7262 44.2646 43.6462 42.5706 41.8602 40.6066C44.1692 42.3346 47.1742 45.6266 47.0862 47.0076C46.7172 47.1056 46.3682 47.2356 46.0092 47.2846C45.2492 47.3876 44.4752 47.5626 43.7222 47.5076C38.9102 47.1566 35.0372 44.8416 31.6232 41.6046C31.5712 41.5556 31.5502 41.4746 31.5142 41.4086C31.5342 41.3866 31.5542 41.3656 31.5732 41.3446Z" fill="#955D34"/>
<path d="M47.3042 12.8256C46.7432 16.6156 46.7042 20.4276 46.8182 24.2416C46.9322 28.0446 47.5762 31.7956 48.0762 35.5596C46.4012 32.7356 45.8662 16.7096 47.3042 12.8256Z" fill="#955D34"/>
<path d="M47.8911 46.9816C52.2141 42.7616 54.2991 37.3936 55.8301 31.7366C55.6391 36.5386 51.0451 45.4076 47.8911 46.9816Z" fill="#955D34"/>
<path d="M48.0211 30.9306C47.0451 25.9586 47.0511 20.9516 47.7271 15.9296C47.5731 20.9316 47.3961 25.9336 48.0211 30.9306Z" fill="#955D34"/>
<path d="M34.3842 16.7126C34.2012 20.9186 34.5442 25.0276 36.5692 28.8546C36.1172 28.6356 35.9372 28.2146 35.7482 27.8116C34.9952 26.1976 34.5052 24.5006 34.2812 22.7386C34.0262 20.7356 33.9532 18.7256 34.3842 16.7126Z" fill="#955D34"/>
<path d="M40.5492 11.7926C41.6942 15.4096 41.9902 19.1246 41.9632 22.8766C41.9022 22.8836 41.8422 22.8906 41.7812 22.8976C41.6442 21.0316 41.5602 19.1596 41.3542 17.3016C41.1502 15.4576 40.8232 13.6276 40.5492 11.7926Z" fill="#955D34"/>
<path d="M53.0011 45.8086C55.7351 43.8366 58.2341 41.6106 60.5001 39.1196C58.5261 41.9386 56.1201 44.2756 53.0011 45.8086Z" fill="#955D34"/>
<path d="M54.6471 7.77159C55.5861 10.9326 55.3411 14.1406 54.9351 17.3556C55.0361 14.1576 55.2101 10.9566 54.6471 7.77159Z" fill="#955D34"/>
<path d="M35.1351 19.9446C35.4111 21.5856 35.6491 23.2336 35.9741 24.8646C36.2981 26.4906 36.9751 27.9946 37.7271 29.4976C37.5941 29.3516 37.4421 29.2196 37.3311 29.0586C36.5681 27.9516 36.1531 26.6976 35.8081 25.4156C35.3261 23.6236 35.1691 21.7916 35.1351 19.9446Z" fill="#955D34"/>
<path d="M41.8171 46.1886C38.9361 45.7226 36.5371 44.2916 34.3751 42.4026C36.6521 44.0606 39.1821 45.2166 41.8171 46.1886Z" fill="#955D34"/>
<path d="M32.1791 36.3236C29.8801 34.7476 28.4411 32.5156 27.3271 30.0376C28.6921 32.3286 30.1971 34.5106 32.1791 36.3236Z" fill="#955D34"/>
<path d="M56.0672 33.9356C55.5982 36.9936 54.4112 39.7546 52.5812 42.2456C54.0782 39.6146 55.4082 36.9156 56.0672 33.9356Z" fill="#955D34"/>
<path d="M60.8931 18.9516C60.9811 20.8726 60.1971 24.5226 59.4581 25.4776C59.9461 23.2616 60.4331 21.0446 60.8931 18.9516Z" fill="#955D34"/>
<path d="M61.3002 34.2456C61.9672 32.1876 62.5962 30.2486 63.1822 28.4376C63.3412 29.5026 62.2012 33.2896 61.3002 34.2456Z" fill="#955D34"/>
<path d="M52.9292 45.2946C54.6682 43.6656 56.2712 42.1646 57.9192 40.6216C56.5692 42.4756 55.0602 44.0766 52.9292 45.2946Z" fill="#955D34"/>
<path d="M58.4142 25.3746C58.4522 24.0756 58.9072 22.8656 59.2172 21.6246C59.0802 22.9026 59.0282 24.1986 58.4142 25.3746Z" fill="#955D34"/>
<path d="M30.4511 36.2406C29.5711 35.6436 28.9811 34.7906 28.5471 33.7986C29.2251 34.5746 29.9031 35.3496 30.5801 36.1256C30.5371 36.1646 30.4941 36.2026 30.4511 36.2406Z" fill="#955D34"/>
<path d="M48.2092 96.8596C21.6262 96.8596 -0.000854492 75.2326 -0.000854492 48.6496C-0.000854492 22.0666 21.6262 0.43959 48.2092 0.43959C74.7922 0.43959 96.4191 22.0666 96.4191 48.6496C96.4191 75.2336 74.7922 96.8596 48.2092 96.8596ZM48.2092 1.26961C22.0842 1.26961 0.829147 22.5246 0.829147 48.6496C0.829147 74.7746 22.0832 96.0296 48.2092 96.0296C74.3342 96.0296 95.5891 74.7746 95.5891 48.6496C95.5891 22.5246 74.3342 1.26961 48.2092 1.26961Z" fill="#955D34"/>
</svg>
