<svg width="112" height="112" viewBox="0 0 112 112" fill="none" xmlns="http://www.w3.org/2000/svg">
<g clip-path="url(#clip0_1_713)">
<path d="M70.2303 71.5635C70.289 71.3406 70.282 71.1052 70.2102 70.8863C70.1384 70.6673 70.005 70.4741 69.8262 70.3304C67.7057 68.1982 65.2729 66.4075 62.6129 65.0211C58.3806 62.7927 53.6919 61.589 48.9184 61.5053L51.3027 60.6086C53.3232 59.8545 55.4045 59.08 57.42 58.224C59.4636 57.3668 61.4496 56.3762 63.3655 55.2585C63.5928 56.1705 64.5879 56.7871 65.9568 56.9043C67.5228 57.0164 69.0837 57.0775 70.6446 57.0775C76.9664 57.0757 83.2524 56.1208 89.2944 54.2445C89.3804 54.2181 89.4604 54.1748 89.5298 54.1171C89.5991 54.0594 89.6564 53.9884 89.6985 53.9082C89.7973 53.7348 89.8522 53.5394 89.8583 53.3395C89.8645 53.1395 89.8218 52.9411 89.7339 52.7618C89.5407 52.449 89.2817 52.1829 88.9753 51.9822C88.6689 51.7814 88.3227 51.651 87.9608 51.6001C82.827 50.6772 77.5831 50.5551 72.4126 51.2383C72.0034 51.2892 71.5438 51.3351 71.0588 51.3861C70.2001 51.4778 69.2604 51.5746 68.3411 51.7275C70.4301 49.9546 72.1739 47.8051 73.4834 45.3889C75.5696 41.4553 76.2516 36.8491 76.8477 32.7882C76.8651 32.6745 76.8543 32.5583 76.8164 32.4499C76.7785 32.3414 76.7147 32.2441 76.6305 32.1666C76.5447 32.0908 76.4421 32.0368 76.3314 32.0093C76.2206 31.9818 76.1049 31.9816 75.9941 32.0086C67.9926 34.0467 61.9965 42.5049 62.6279 50.8103C62.6397 51.7926 62.95 52.7477 63.517 53.5465C61.3969 54.8483 59.1794 55.9812 56.8845 56.9349C55.4752 57.531 54.0305 58.0864 52.5959 58.6265L52.6615 58.55C53.601 57.4087 54.768 56.461 55.6065 55.233C57.0057 53.1949 57.3442 50.5402 57.0462 48.069C56.7482 45.5978 55.8641 43.2387 54.9852 40.9356C54.251 38.9892 53.5168 37.0394 52.7827 35.0862C51.6057 35.2288 50.843 36.4008 50.3934 37.5064C49.3225 40.1458 49.0952 43.0603 49.1659 45.9137C49.255 49.4039 49.7639 52.8703 50.6814 56.2368C50.8604 57.0922 51.1157 57.9295 51.4441 58.7386C51.5047 58.8558 51.5553 58.9526 51.6058 59.0341L50.8329 59.3245C47.8021 60.4608 44.6803 61.6327 41.6999 63.0849C42.9461 60.5027 43.1894 57.5436 42.3819 54.7897C41.0483 50.3874 37.487 47.3149 34.734 45.5112C34.5455 45.3601 34.3273 45.2516 34.0938 45.1927C33.8603 45.1338 33.617 45.126 33.3803 45.1698C32.9105 45.2921 32.37 45.6793 32.2892 46.9684L32.0113 53.7961C31.9026 55.2017 31.9501 56.6151 32.1528 58.01C32.4862 59.8392 34.1986 63.2785 36.4313 64.7307C36.8198 64.9835 37.2438 65.1758 37.6891 65.3013C35.0226 66.9835 32.5812 69.0042 30.4251 71.3138C29.0916 72.7456 27.2326 74.962 26.5255 77.6728C26.5028 77.7621 26.498 77.8551 26.5111 77.9464C26.5243 78.0376 26.5552 78.1253 26.6022 78.2044C26.6491 78.2835 26.7113 78.3525 26.7848 78.4073C26.8583 78.4621 26.9418 78.5017 27.0306 78.5237C27.0893 78.5311 27.1487 78.5311 27.2074 78.5237C27.3585 78.5238 27.5054 78.4741 27.6258 78.3821C27.7462 78.2901 27.8335 78.1609 27.8743 78.0142C28.3794 76.1595 29.4603 74.3812 31.4455 72.2564C32.2461 71.3924 33.089 70.5693 33.9712 69.7903C33.9452 69.8841 33.925 69.9793 33.9107 70.0756C33.451 73.6423 42.8416 72.1647 44.4227 71.431C44.4933 71.408 44.5539 71.3612 44.5944 71.2985C44.6651 71.1406 44.4832 70.9979 44.3317 70.9266C43.2406 70.417 37.8204 68.1242 35.2391 68.7254C36.3552 67.8323 37.5243 67.0087 38.7399 66.2592C40.1153 65.4237 41.5351 64.665 42.9931 63.9868C42.9639 64.3648 43.012 64.7449 43.1346 65.1034C43.2571 65.4619 43.4514 65.7911 43.7053 66.0707C45.5036 68.4095 48.4335 69.8107 50.5753 70.575C53.6668 71.6756 56.9654 72.0527 60.077 72.3482C61.7592 72.501 63.5019 72.6437 65.2497 72.6437C66.5635 72.6513 67.876 72.5542 69.1746 72.3533C69.4089 72.3439 69.6349 72.2635 69.8232 72.1226C70.0115 71.9817 70.1534 71.7869 70.2303 71.5635ZM74.7463 33.8582C74.0492 35.4581 73.3167 37.0835 72.4782 38.6274C72.0033 39.4936 71.4679 40.3547 70.9627 41.175C70.2303 42.3877 69.4473 43.6412 68.8412 44.9456C68.5482 45.5519 68.2552 46.1838 67.9622 46.8258C67.1104 48.8691 66.0561 50.8203 64.8152 52.6497L64.6839 52.7465C64.5461 52.6095 64.4333 52.4491 64.3505 52.2726C64.5904 50.3441 64.9738 48.4365 65.4972 46.5659C66.0493 44.4581 66.8711 42.4318 67.942 40.5381C69.1391 38.6115 70.5289 36.8136 72.0893 35.1728C72.9326 34.6565 73.8221 34.2215 74.7463 33.8735V33.8582ZM75.3171 33.6493C75.0797 35.2441 74.812 36.8491 74.4584 38.4287C71.8064 42.6731 69.1898 46.9888 66.654 51.2994C66.3307 51.5593 65.9973 51.809 65.6437 52.0739C66.6435 50.442 67.5248 48.7391 68.2805 46.9786C68.5735 46.3366 68.8665 45.7048 69.1595 45.1036C69.7808 43.8145 70.5334 42.5559 71.2659 41.3585C71.771 40.5228 72.2762 39.6567 72.7813 38.7854C73.6855 37.1345 74.4533 35.3868 75.1959 33.6901L75.3171 33.6493ZM66.0629 55.4929C65.2143 55.4317 64.7597 55.1108 64.7091 54.9018C64.7028 54.8665 64.7028 54.8302 64.7091 54.7948C70.6021 53.9912 76.5437 53.6064 82.4901 53.6433H82.8135C84.2061 53.6919 85.6003 53.6203 86.9809 53.4293C80.177 55.3215 73.1021 56.0246 66.0629 55.5082V55.4929ZM71.2003 52.7618C71.7054 52.7108 72.1752 52.6599 72.5894 52.6039C74.7268 52.3252 76.8798 52.1856 79.035 52.186C81.9139 52.1864 84.7873 52.4404 87.6224 52.9452C86.0435 53.2499 84.4344 53.3662 82.8285 53.2917H82.5103C76.6525 53.2585 70.7993 53.6313 64.9921 54.4075C65.1204 54.2832 65.2608 54.1722 65.4112 54.0764C66.7448 53.2408 69.2151 52.9809 71.2003 52.7771V52.7618ZM72.261 44.7163C71.0332 46.9704 69.4028 48.976 67.452 50.632C69.6544 46.9022 71.9175 43.1673 74.2109 39.4834C73.7717 41.3053 73.117 43.0673 72.261 44.7316V44.7163ZM70.9072 36.0135C69.6916 37.3616 68.6042 38.8219 67.6592 40.3751C66.5748 42.297 65.7411 44.3521 65.1789 46.4895C64.7171 48.1476 64.3628 49.8344 64.1182 51.5389C64.0623 51.2599 64.0252 50.9773 64.0071 50.6931C63.5827 45.0883 66.4418 39.407 70.8921 36.0288L70.9072 36.0135ZM45.2865 63.3345C52.4151 64.0264 59.3881 65.8636 65.9417 68.7764C66.2043 68.9802 66.4468 69.1789 66.7196 69.3878C65.6335 69.2757 64.593 69.24 63.5776 69.2043C61.9169 69.1872 60.26 69.039 58.6222 68.7611C54.97 68.0732 51.1915 67.365 47.6252 66.1115C47.0068 65.9086 46.4354 65.5814 45.9458 65.1497C45.4561 64.7179 45.0583 64.1906 44.7763 63.5995C44.9392 63.5022 45.1098 63.4187 45.2865 63.3498V63.3345ZM64.5778 67.8133C58.685 65.3612 52.4774 63.764 46.1401 63.0696C46.5701 62.9725 47.0082 62.9163 47.4485 62.9015C47.7718 62.9015 48.095 62.9015 48.4234 62.9015C53.141 62.9087 57.7876 64.0603 61.9713 66.2592C62.8663 66.7313 63.7363 67.25 64.5778 67.8133ZM37.9518 55.7578C38.1984 57.5204 38.2306 59.3069 38.0478 61.0774C37.9972 61.9283 37.9417 62.7995 37.9366 63.6657C36.593 61.6684 35.8807 59.3195 35.3654 57.2508C34.4908 53.744 33.9496 50.161 33.749 46.5506C35.8201 48.6397 37.1941 51.6612 37.9518 55.7731V55.7578ZM38.2902 55.6967C37.6285 52.079 36.4768 49.2919 34.8098 47.2181C35.6899 47.8478 36.5223 48.5427 37.3002 49.297C39.643 53.8161 40.166 59.0729 38.76 63.9715C38.6022 63.9892 38.443 63.9892 38.2852 63.9715C38.2852 63.0186 38.3357 62.0505 38.3912 61.1079C38.5768 59.3119 38.5429 57.4997 38.2902 55.712V55.6967ZM41.0483 55.1871C41.5494 56.8644 41.5982 58.6461 41.1897 60.3487C40.7098 62.3104 39.9521 63.6199 39.1692 63.9154C40.4355 59.3368 40.0599 54.4543 38.1084 50.1275C39.4456 51.5714 40.4495 53.2957 41.0483 55.1769V55.1871ZM33.5065 57.7348C33.322 56.4424 33.2813 55.1333 33.3853 53.8318L33.5823 48.9505C33.8599 51.7834 34.3445 54.5917 35.0321 57.3527C35.5129 59.6135 36.3666 61.7768 37.5578 63.7524C37.4185 63.6864 37.2835 63.6115 37.1537 63.5282C35.3351 62.3359 33.7995 59.35 33.5116 57.7348H33.5065ZM60.2134 70.9419C57.1826 70.6616 53.985 70.2998 51.045 69.2502C49.075 68.547 46.3928 67.2783 44.8016 65.2045C44.5338 64.853 44.2459 64.3587 44.4126 64.0072C44.4378 63.9541 44.472 63.9058 44.5136 63.8645C45.1329 65.0944 46.2099 66.0269 47.5091 66.458C51.1006 67.7165 54.8943 68.4298 58.5566 69.1228C60.2128 69.4028 61.8883 69.551 63.5675 69.5661C64.7395 69.6069 65.9417 69.6477 67.2096 69.8056C67.6693 70.198 68.1189 70.6005 68.5533 71.0234C65.8407 71.4107 63.0422 71.2068 60.2134 70.9419ZM68.8917 71.268L69.3362 70.8247L68.9221 71.4056C68.8934 71.365 68.8759 71.3175 68.8715 71.268H68.8917Z" fill="#955D34"/>
<path d="M80.8425 39.3511C80.2835 39.1819 79.6935 39.1435 79.1176 39.2389C78.5416 39.3342 77.9949 39.5608 77.5188 39.9013C77.0337 40.3209 76.6948 40.8864 76.552 41.5147C76.4093 42.143 76.4701 42.8008 76.7257 43.3916C76.9618 43.8881 77.3312 44.308 77.7919 44.6034C78.2527 44.8988 78.7862 45.058 79.3321 45.0629C79.5296 45.0623 79.7263 45.0383 79.9182 44.9916C80.459 44.836 80.9545 44.5509 81.3626 44.1605C81.7707 43.7702 82.0793 43.2862 82.262 42.7497C82.528 42.1476 82.585 41.4726 82.4237 40.8338C82.3076 40.471 82.1013 40.1443 81.8246 39.8847C81.5478 39.6252 81.2097 39.4414 80.8425 39.3511ZM80.9688 42.2401C80.8635 42.5626 80.6856 42.8559 80.449 43.0973C80.2123 43.3386 79.9234 43.5214 79.6049 43.6311C79.2828 43.6943 78.9489 43.6481 78.6556 43.4997C78.3622 43.3513 78.1259 43.1091 77.9835 42.8108C77.8579 42.4962 77.8317 42.1502 77.9086 41.82C77.9855 41.4898 78.1615 41.1917 78.4128 40.9663C78.8073 40.7037 79.2741 40.5734 79.7464 40.5943C79.9822 40.5925 80.2169 40.6251 80.4434 40.6911C80.5854 40.715 80.7193 40.774 80.833 40.8629C80.9468 40.9519 81.0368 41.068 81.0951 41.2007C81.1716 41.5492 81.1363 41.9133 80.9941 42.2401H80.9688Z" fill="#955D34"/>
<path d="M85.1308 49.3329C85.6285 49.754 86.2592 49.9817 86.9089 49.9749C87.3158 49.9752 87.7183 49.8902 88.0909 49.7252C88.4197 49.5808 88.7129 49.3651 88.9497 49.0934C89.1898 48.7895 89.3512 48.4301 89.4192 48.0476C89.4871 47.665 89.4594 47.2714 89.3386 46.9024C89.2322 46.469 89.0223 46.0684 88.7274 45.7353C88.4325 45.4023 88.0614 45.147 87.6463 44.9916C87.2335 44.8781 86.7993 44.8684 86.3819 44.9635C85.9645 45.0585 85.5765 45.2554 85.252 45.5369C84.9829 45.7412 84.755 45.9954 84.5802 46.2859C84.3149 46.7812 84.2249 47.353 84.3249 47.9069C84.425 48.4608 84.7092 48.9638 85.1308 49.3329ZM85.7774 46.9992C85.8608 46.8601 85.9708 46.7388 86.1007 46.6425C86.2493 46.502 86.4291 46.3996 86.6251 46.3437C86.8211 46.2879 87.0276 46.2802 87.2272 46.3215C87.43 46.4151 87.6074 46.5566 87.7445 46.7339C87.8817 46.9113 87.9745 47.1194 88.0151 47.3406C88.0654 47.4859 88.0807 47.6411 88.0596 47.7936C88.0385 47.946 87.9817 48.0912 87.8939 48.217C87.7895 48.3265 87.664 48.4132 87.5251 48.4718C87.2849 48.5838 87.0188 48.6269 86.7559 48.5964C86.4931 48.5658 86.2436 48.4627 86.035 48.2985C85.8536 48.1426 85.7295 47.9296 85.6828 47.6939C85.636 47.4582 85.6694 47.2135 85.7774 46.9992Z" fill="#955D34"/>
<path d="M87.344 39.3969C87.592 39.5917 87.8938 39.7039 88.2078 39.7179C88.4102 39.6979 88.6038 39.6243 88.7688 39.5043C88.9338 39.3844 89.0644 39.2225 89.1473 39.0352C89.311 38.6589 89.3788 38.2472 89.3444 37.8378C89.2888 36.2379 87.0712 36.8187 86.7025 37.9703C86.6379 38.146 86.6204 38.3358 86.6519 38.5205C86.7045 38.7053 86.7926 38.8779 86.9114 39.0283C87.0301 39.1786 87.1772 39.3039 87.344 39.3969Z" fill="#955D34"/>
<path d="M12.2453 34.8877L9.71457 33.6189L10.8511 31.3006L13.3869 32.5642L14.1144 31.0764L8.05265 28.0447L7.3202 29.5325L9.6691 30.7095L8.52748 33.0279L6.17858 31.8509L5.45117 33.3336L11.5179 36.3653L12.2453 34.8877Z" fill="#955D34"/>
<path d="M19.5995 23.3773L18.5741 22.5569L16.9677 24.5951L15.7907 23.6473L17.2152 21.8436L16.2454 21.064L14.8259 22.8779L13.7146 21.9863L15.3159 19.9532L14.2955 19.1329L11.6738 22.4652L16.9829 26.7096L19.5995 23.3773Z" fill="#955D34"/>
<path d="M24.3332 18.654L22.6865 16.6821L22.9743 16.4427L25.7375 17.4617L27.1267 16.2847L24.1817 15.2656C24.4745 14.8916 24.6313 14.4276 24.6261 13.951C24.6066 13.4929 24.4278 13.0564 24.121 12.718C23.8777 12.4148 23.5587 12.1826 23.1967 12.0454C22.8341 11.9174 22.4418 11.9013 22.0702 11.9995C21.6188 12.1242 21.202 12.3527 20.8527 12.667L18.7109 14.486L23.0704 19.7087L24.3332 18.654ZM20.8628 14.4962L21.6357 13.8339C21.823 13.6518 22.0728 13.5495 22.3329 13.5485C22.4478 13.5623 22.5588 13.5992 22.6595 13.657C22.7601 13.7147 22.8483 13.7922 22.9188 13.8848C23.0002 13.9693 23.063 14.0701 23.1031 14.1807C23.1431 14.2914 23.1595 14.4093 23.1512 14.5268C23.0999 14.7825 22.9535 15.0086 22.742 15.1586L21.964 15.8159L20.8628 14.4962Z" fill="#955D34"/>
<path d="M33.9459 12.0758C34.4891 11.8316 34.928 11.3997 35.1834 10.858C35.2778 10.6173 35.316 10.3579 35.2949 10.0999C35.2739 9.84186 35.1943 9.59219 35.0622 9.37022C34.8888 9.02981 34.6029 8.76126 34.2539 8.61102C33.8943 8.45675 33.4932 8.43156 33.1174 8.53968C33.3797 8.31401 33.5579 8.00482 33.6225 7.66324C33.6811 7.29821 33.6134 6.924 33.4306 6.60344C33.3289 6.3794 33.176 6.18277 32.9847 6.02959C32.7933 5.87641 32.5687 5.77101 32.3293 5.72196C31.7644 5.65322 31.1931 5.77887 30.7078 6.0786L27.9902 7.53585L31.1625 13.5687L33.9459 12.0758ZM32.9911 9.56384C33.1 9.58439 33.2026 9.63062 33.2904 9.69881C33.3782 9.767 33.4487 9.85516 33.4962 9.95613C33.7286 10.4045 33.5771 10.7663 33.0417 11.0516L32.0314 11.607L31.319 10.2517L32.3293 9.70136C32.5319 9.57674 32.7716 9.52809 33.0063 9.56384H32.9911ZM30.0511 7.9282L30.9806 7.41867C31.4858 7.14353 31.8646 7.22504 32.0919 7.65814C32.3192 8.09124 32.1828 8.43775 31.6827 8.7078L30.7331 9.21733L30.0511 7.9282Z" fill="#955D34"/>
<path d="M41.7946 7.53595L44.2446 6.8685L44.972 7.95891L46.6542 7.50032L42.5019 1.61011L40.6834 2.11964L40.0469 9.31931L41.7088 8.86589L41.7946 7.53595ZM42.0472 3.56675L43.5122 5.7679L41.8755 6.21119L42.0472 3.56675Z" fill="#955D34"/>
<path d="M55.1418 6.69014L55.066 5.42141L52.8888 5.55389L52.5605 0L50.9238 0.0968109L51.3279 6.91433L55.1418 6.69014Z" fill="#955D34"/>
<path d="M68.3457 5.39593L70.8209 6.0838L70.0631 8.83017L71.6493 9.27346L73.4627 2.69542L71.8715 2.25213L71.1744 4.79978L68.6993 4.10682L69.4014 1.55916L67.8203 1.11587L66.0119 7.69901L67.593 8.13721L68.3457 5.39593Z" fill="#955D34"/>
<path d="M79.2322 12.8554C79.7587 13.1568 80.3544 13.3132 80.9598 13.3089C81.5557 13.2947 82.1369 13.1187 82.6419 12.7993C83.1695 12.4613 83.6052 11.9958 83.9095 11.4451C84.2138 10.8944 84.3771 10.2757 84.3846 9.6453C84.3829 9.04749 84.2168 8.46191 83.9048 7.95368C83.5884 7.4292 83.1383 6.99985 82.6015 6.71039C82.0765 6.40531 81.4797 6.24864 80.8739 6.2569C80.2793 6.26916 79.6993 6.44537 79.1968 6.76643C78.6626 7.0969 78.225 7.56467 77.9289 8.1218C77.6149 8.66784 77.4526 9.28921 77.4592 9.92046C77.4634 10.5211 77.6293 11.1093 77.939 11.6223C78.2554 12.1406 78.7014 12.5659 79.2322 12.8554ZM79.3889 8.93194C79.6145 8.46181 80.0105 8.09703 80.4951 7.91288C80.9558 7.78642 81.4473 7.84678 81.8645 8.081C82.2817 8.31522 82.5915 8.70477 82.7278 9.16637C82.8281 9.67761 82.7305 10.2082 82.455 10.6491C82.226 11.1168 81.8312 11.4805 81.3487 11.6682C80.8886 11.7976 80.3965 11.7392 79.9787 11.5056C79.5609 11.272 79.2511 10.882 79.1161 10.4198C79.0143 9.90692 79.112 9.37421 79.3889 8.93194Z" fill="#955D34"/>
<path d="M88.1918 19.3265C88.5606 19.6766 89.0077 19.9319 89.4952 20.0705C89.9623 20.1978 90.4564 20.1818 90.9145 20.0246C91.4427 19.8332 91.9116 19.5045 92.2734 19.0717L94.9001 16.1521L93.6877 15.0464L91.061 17.961C90.836 18.2546 90.5128 18.4556 90.1517 18.5266C89.9885 18.5412 89.824 18.5192 89.6703 18.4619C89.5165 18.4046 89.3774 18.3135 89.2628 18.1954C89.1346 18.0923 89.0312 17.9613 88.9603 17.8121C88.8894 17.663 88.853 17.4997 88.8536 17.3343C88.8871 16.9654 89.0522 16.6214 89.3183 16.3662L91.945 13.4466L90.7378 12.3459L88.1111 15.2604C87.722 15.6685 87.439 16.1674 87.2876 16.7126C87.165 17.1732 87.1862 17.6607 87.3483 18.1087C87.5244 18.5792 87.8144 18.9979 88.1918 19.3265Z" fill="#955D34"/>
<path d="M95.1384 27.2242C95.3844 27.5979 95.7151 27.9071 96.1031 28.1261C96.426 28.3038 96.7917 28.3867 97.1589 28.3656C97.5049 28.3364 97.8366 28.2132 98.1186 28.0089C98.437 27.8007 98.6813 27.4955 98.8158 27.1376C98.9241 26.8327 98.9587 26.506 98.9168 26.1848C98.8561 25.8032 98.7665 25.4267 98.6491 25.0587C98.5632 24.7479 98.5026 24.5085 98.4673 24.3352C98.431 24.1673 98.431 23.9936 98.4673 23.8257C98.4972 23.676 98.5819 23.5431 98.7047 23.4537C98.7695 23.4003 98.8453 23.3622 98.9266 23.3419C99.0078 23.3216 99.0924 23.3198 99.1744 23.3365C99.3387 23.3798 99.481 23.4834 99.5735 23.627C99.6331 23.7042 99.6767 23.7926 99.7019 23.8871C99.7271 23.9817 99.7332 24.0803 99.72 24.1772C99.6809 24.3739 99.5799 24.5526 99.4321 24.6868L100.442 26.1389C100.664 25.9586 100.847 25.7338 100.978 25.4785C101.11 25.2232 101.187 24.9432 101.205 24.6562C101.212 24.0068 100.996 23.3749 100.594 22.8678C100.353 22.5152 100.043 22.2153 99.6846 21.9863C99.3707 21.7902 99.0082 21.6877 98.639 21.6907C98.269 21.716 97.9131 21.8434 97.6102 22.0591C97.3072 22.2748 97.069 22.5704 96.9215 22.9136C96.817 23.2125 96.7858 23.5324 96.8306 23.846C96.8926 24.222 96.9804 24.5932 97.0933 24.9568C97.1792 25.2575 97.2448 25.497 97.2802 25.6753C97.3101 25.8438 97.3101 26.0163 97.2802 26.1848C97.2437 26.347 97.1482 26.4894 97.0125 26.5838C96.8768 26.6782 96.7109 26.7176 96.5477 26.6944C96.3687 26.6541 96.2125 26.5442 96.1132 26.3886C95.9801 26.2109 95.9204 25.9881 95.9466 25.767C95.9836 25.5402 96.1023 25.3351 96.28 25.1912L95.2697 23.7595C95.0296 23.9446 94.8336 24.1816 94.6964 24.4532C94.5591 24.7248 94.484 25.024 94.4766 25.3288C94.4791 26.0178 94.7123 26.6857 95.1384 27.2242Z" fill="#955D34"/>
<path d="M100.745 37.3843L101.942 36.8391L100.887 34.4698L102.256 33.8482L103.195 35.9525L104.322 35.443L103.382 33.3335L104.675 32.7476L105.731 35.1169L106.918 34.5768L105.19 30.7043L99.0176 33.5068L100.745 37.3843Z" fill="#955D34"/>
<path d="M3.85932 64.6391C4.48001 64.5804 5.07422 64.3571 5.58181 63.992C6.0625 63.6418 6.43969 63.1662 6.67293 62.6163C6.90577 62.0517 6.99271 61.4366 6.92556 60.8288C6.85842 60.221 6.63937 59.6404 6.28902 59.1413C5.94368 58.6546 5.47169 58.2737 4.92516 58.0407C4.34917 57.8067 3.72458 57.7206 3.10746 57.79C2.49034 57.8593 1.89997 58.082 1.38917 58.4381C0.906426 58.7896 0.527502 59.267 0.292989 59.819C0.0512316 60.3779 -0.0360447 60.9924 0.0404184 61.5973C0.0991963 62.2059 0.317092 62.7879 0.671845 63.2838C1.02026 63.7695 1.49359 64.1501 2.04076 64.3844C2.61412 64.6293 3.24148 64.7172 3.85932 64.6391ZM1.54573 61.4291C1.50853 61.191 1.52367 60.9476 1.59 60.716C1.65634 60.4845 1.77227 60.2704 1.92964 60.089C2.2845 59.7119 2.76882 59.4859 3.28345 59.4572C3.79548 59.3679 4.32188 59.4811 4.75337 59.7731C5.11801 60.0786 5.35085 60.515 5.40268 60.9903C5.45451 61.4656 5.32131 61.9426 5.03122 62.3207C4.67332 62.6964 4.18808 62.9221 3.67242 62.9526C3.16301 63.0376 2.64064 62.9228 2.21255 62.6316C2.02259 62.4909 1.86474 62.3108 1.74971 62.1034C1.63468 61.8959 1.56511 61.666 1.54573 61.4291Z" fill="#955D34"/>
<path d="M7.8701 74.3456C8.23865 74.2298 8.56995 74.017 8.82988 73.7291C9.08054 73.4433 9.24066 73.0884 9.28958 72.7101C9.34379 72.2396 9.28662 71.7629 9.12284 71.319L8.2439 68.6389L1.81851 70.7942L2.32365 72.3636L4.75335 71.5483L4.86959 71.905L2.90458 74.1215L3.47539 75.8539L5.49596 73.4693C5.7325 73.8824 6.10118 74.2022 6.54157 74.3762C6.97456 74.5215 7.44413 74.5107 7.8701 74.3456ZM6.57697 72.761C6.35911 72.6193 6.20352 72.3986 6.14249 72.1445L5.82425 71.1713L7.45085 70.6261L7.76909 71.5993C7.86789 71.8408 7.86789 72.1119 7.76909 72.3534C7.71725 72.455 7.64586 72.5451 7.55913 72.6186C7.47241 72.6921 7.37209 72.7474 7.26395 72.7814C7.15483 72.8285 7.03684 72.851 6.91821 72.8475C6.79958 72.8439 6.68316 72.8144 6.57697 72.761Z" fill="#955D34"/>
<path d="M10.5724 81.7136L9.56204 82.3148L10.6077 84.1134C10.2475 84.2152 9.86373 84.1911 9.51887 84.0449C9.17402 83.8987 8.88839 83.6392 8.70838 83.3084C8.56466 83.0924 8.46744 82.8484 8.42306 82.5921C8.37869 82.3358 8.38813 82.0729 8.45075 81.8206C8.65059 81.334 9.00109 80.9257 9.44993 80.6566C9.89877 80.3876 10.4219 80.2722 10.9411 80.3277C11.3107 80.4246 11.639 80.64 11.8768 80.9414C12.1146 81.2428 12.2488 81.6139 12.2595 81.9989C12.2586 82.268 12.1776 82.5307 12.0271 82.753L12.896 84.2816C13.4211 83.8403 13.7591 83.2133 13.8406 82.5288C13.9121 81.7787 13.7344 81.0259 13.3355 80.3888C13.0344 79.8404 12.5953 79.3816 12.0625 79.0589C11.5641 78.766 10.9918 78.6261 10.4158 78.6564C9.7957 78.699 9.19376 78.8853 8.6567 79.2008C8.11965 79.5162 7.66195 79.9524 7.31924 80.4754C7.01302 80.9702 6.8535 81.543 6.85954 82.1263C6.87072 82.755 7.04488 83.3698 7.36468 83.9096C7.61017 84.3632 7.95585 84.7537 8.37497 85.051C8.75107 85.3103 9.17848 85.4841 9.62771 85.5605C10.0448 85.6422 10.4735 85.6422 10.8906 85.5605L12.2898 84.7351L10.5724 81.7136Z" fill="#955D34"/>
<path d="M12.2051 91.0227L13.3719 92.3016L14.564 91.7921L16.2815 93.6824L15.6551 94.834L16.8321 96.1332L20.1105 89.703L18.8375 88.3018L12.2051 91.0227ZM16.9129 92.4952L15.7664 91.2367L18.1808 90.1718L16.9129 92.4952Z" fill="#955D34"/>
<path d="M26.0858 100.22L26.2777 95.1703L24.9441 94.2124L21.0293 99.7867L22.3629 100.74L24.7673 97.3205L24.5956 102.339L25.9342 103.292L29.8491 97.7231L28.5155 96.7652L26.0858 100.22Z" fill="#955D34"/>
<path d="M33.974 99.8989L31.0684 106.071L32.5468 106.779L35.4524 100.607L33.974 99.8989Z" fill="#955D34"/>
<path d="M41.1383 104.938C41.3185 104.809 41.5258 104.724 41.744 104.689C41.9622 104.655 42.1855 104.672 42.3961 104.739C42.7211 104.817 43.014 104.995 43.2346 105.249C43.4436 105.494 43.5724 105.798 43.6034 106.12L45.2754 106.584C45.337 105.845 45.1364 105.108 44.7096 104.505C44.2418 103.885 43.5762 103.448 42.8254 103.267C42.2435 103.093 41.6263 103.079 41.0372 103.226C40.4849 103.374 39.9868 103.68 39.6027 104.107C39.1839 104.57 38.8854 105.13 38.7339 105.738C38.5584 106.338 38.5288 106.973 38.6479 107.587C38.7621 108.153 39.0357 108.673 39.4359 109.085C39.8655 109.517 40.4033 109.824 40.9918 109.972C41.7283 110.211 42.5248 110.178 43.2397 109.88C43.9131 109.584 44.4608 109.057 44.7854 108.392L43.1134 107.929C42.9193 108.185 42.6536 108.377 42.3506 108.479C42.0314 108.579 41.6899 108.579 41.3707 108.479C41.1562 108.428 40.9563 108.328 40.7864 108.187C40.6164 108.045 40.4811 107.866 40.3907 107.664C40.1969 107.192 40.1789 106.665 40.3402 106.181C40.4535 105.685 40.736 105.245 41.1383 104.938Z" fill="#955D34"/>
<path d="M58.5913 105.045L55.9393 105.172L56.2627 111.995L57.8993 111.919L57.7882 109.524L58.7985 109.478C59.266 109.469 59.7247 109.349 60.1371 109.126C60.4778 108.939 60.7556 108.653 60.9353 108.306C61.1098 107.951 61.1881 107.555 61.1625 107.159C61.1635 106.858 61.101 106.56 60.979 106.285C60.8571 106.01 60.6786 105.765 60.4554 105.565C59.9241 105.155 59.2559 104.968 58.5913 105.045ZM58.5561 108.163L57.7225 108.204L57.6417 106.426L58.4701 106.39C59.1268 106.354 59.4804 106.64 59.4804 107.236C59.4804 107.832 59.2127 108.133 58.5561 108.163Z" fill="#955D34"/>
<path d="M70.8923 106.436C71.0744 106.019 71.1082 105.551 70.9882 105.111C70.9114 104.733 70.7372 104.381 70.4831 104.092C70.2084 103.812 69.8563 103.622 69.4728 103.547C69.0133 103.458 68.5396 103.477 68.0887 103.603L65.3711 104.276L66.9875 110.9L68.5787 110.502L67.9675 108L68.3312 107.909L70.3517 110.064L72.1096 109.626L69.9123 107.404C70.3385 107.203 70.6841 106.862 70.8923 106.436ZM69.3212 106.283C69.1622 106.489 68.9309 106.626 68.6747 106.665L67.6896 106.91L67.2805 105.233L68.2655 104.989C68.512 104.909 68.7796 104.927 69.0131 105.04C69.1124 105.102 69.1976 105.184 69.2629 105.282C69.3282 105.379 69.3722 105.49 69.392 105.605C69.4316 105.716 69.4472 105.833 69.4376 105.95C69.428 106.067 69.3935 106.181 69.3364 106.283H69.3212Z" fill="#955D34"/>
<path d="M80.8384 100.276C80.3522 99.9346 79.7828 99.7337 79.1917 99.695C78.5859 99.6644 77.9823 99.7885 77.4366 100.056C76.891 100.323 76.4209 100.725 76.0699 101.224C75.7323 101.714 75.5348 102.289 75.4992 102.885C75.4598 103.515 75.5871 104.144 75.8679 104.709C76.1338 105.282 76.545 105.774 77.06 106.135C77.5484 106.476 78.1193 106.677 78.7118 106.716C79.3155 106.757 79.9189 106.634 80.4596 106.36C81.0084 106.099 81.4789 105.696 81.8234 105.193C82.1613 104.701 82.3588 104.124 82.3943 103.527C82.4224 102.897 82.2949 102.271 82.0233 101.703C81.7518 101.136 81.3446 100.645 80.8384 100.276ZM80.7071 103.929C80.5499 104.384 80.2205 104.759 79.7908 104.97C79.3611 105.181 78.8659 105.211 78.4137 105.055C77.9409 104.843 77.5668 104.457 77.3682 103.975C77.1163 103.519 77.0476 102.983 77.1762 102.477C77.3343 102.021 77.665 101.648 78.0958 101.438C78.5266 101.227 79.0224 101.198 79.4746 101.356C79.9308 101.59 80.2985 101.968 80.5211 102.433C80.7438 102.898 80.809 103.423 80.7071 103.929Z" fill="#955D34"/>
<path d="M91.0979 95.1194C90.7244 94.626 90.2324 94.2367 89.6683 93.9883C89.1337 93.7627 88.5448 93.7024 87.9762 93.8151C87.3343 93.9455 86.7351 94.2363 86.2335 94.6608L84.2129 96.2557L88.4055 101.616L90.426 100.021C90.9495 99.6221 91.3649 99.0964 91.6334 98.4925C91.872 97.9542 91.9475 97.3569 91.8506 96.7754C91.746 96.167 91.4867 95.5964 91.0979 95.1194ZM90.2645 97.6161C90.1627 98.1561 89.8565 98.6349 89.4107 98.9511L88.7995 99.4606L86.4001 96.4034L87.0113 95.8939C87.4215 95.5352 87.9545 95.3523 88.4965 95.3844C89.0105 95.4862 89.4714 95.7703 89.7957 96.1853C90.12 96.6003 90.2864 97.1188 90.2645 97.6467V97.6161Z" fill="#955D34"/>
<path d="M98.7505 87.4865L95.75 84.9644L94.6993 86.2331L97.705 88.7552C98.0033 88.972 98.2133 89.2907 98.296 89.652C98.3201 89.9806 98.2166 90.3057 98.0073 90.5587C97.798 90.8116 97.4994 90.9726 97.1746 91.0074C96.8072 90.9894 96.459 90.8373 96.1946 90.5794L93.194 88.0317L92.1484 89.2954L95.1793 91.843C95.5984 92.2185 96.1035 92.4829 96.6492 92.6124C97.1117 92.7156 97.5943 92.6747 98.0333 92.4952C98.4903 92.2943 98.8911 91.9828 99.2002 91.5883C99.5325 91.2025 99.7665 90.7407 99.8821 90.2431C99.9882 89.7675 99.9512 89.2707 99.776 88.8164C99.5556 88.2901 99.2019 87.8315 98.7505 87.4865Z" fill="#955D34"/>
<path d="M105.084 77.4944L104.281 79.023C104.488 79.2677 104.616 79.5696 104.65 79.8892C104.683 80.2252 104.612 80.5633 104.448 80.8573C104.351 81.0588 104.21 81.2349 104.034 81.3719C103.859 81.509 103.655 81.6032 103.437 81.6471C102.94 81.7388 102.426 81.6446 101.993 81.3821C101.531 81.1673 101.16 80.7934 100.947 80.3274C100.862 80.1227 100.825 79.9012 100.837 79.6798C100.849 79.4583 100.911 79.2426 101.018 79.0485C101.167 78.7464 101.403 78.4963 101.695 78.3301C101.979 78.176 102.303 78.1138 102.624 78.1517L103.427 76.6231C102.723 76.4066 101.967 76.4481 101.29 76.7403C100.59 77.0682 100.026 77.6323 99.6942 78.3352C99.4021 78.8713 99.2573 79.4764 99.2749 80.0879C99.2979 80.6635 99.4876 81.2197 99.8204 81.6879C100.181 82.1973 100.66 82.6101 101.215 82.8903C101.76 83.1923 102.37 83.3567 102.993 83.3693C103.564 83.3731 104.124 83.2141 104.609 82.9107C105.118 82.5772 105.53 82.1128 105.801 81.5656C106.185 80.8903 106.323 80.1007 106.19 79.3338C106.047 78.6087 105.655 77.9575 105.084 77.4944Z" fill="#955D34"/>
<path d="M105.429 66.9267L104.176 66.5649L102.701 71.701L103.954 72.0679L104.459 70.3049L109.713 71.8386L110.172 70.2387L104.919 68.7101L105.429 66.9267Z" fill="#955D34"/>
<path d="M111.834 59.1515C111.707 58.805 111.487 58.5014 111.197 58.2751C110.919 58.0624 110.586 57.9351 110.238 57.9083C109.861 57.8518 109.476 57.9196 109.141 58.1018C108.865 58.2615 108.629 58.485 108.454 58.7541C108.25 59.0793 108.071 59.42 107.919 59.7731C107.783 60.0636 107.671 60.2827 107.586 60.4355C107.509 60.5811 107.405 60.7094 107.277 60.8126C107.158 60.9045 107.008 60.9464 106.858 60.9298C106.774 60.9284 106.691 60.908 106.616 60.8701C106.541 60.8322 106.475 60.7777 106.424 60.7107C106.333 60.5691 106.295 60.399 106.318 60.2317C106.323 60.1343 106.347 60.039 106.39 59.9514C106.432 59.8639 106.492 59.7859 106.565 59.7222C106.723 59.5981 106.916 59.53 107.116 59.5286L107.283 57.7503C106.997 57.7393 106.713 57.7884 106.448 57.8946C106.182 58.0008 105.942 58.1616 105.742 58.3668C105.313 58.8509 105.065 59.4708 105.04 60.1196C104.991 60.5461 105.031 60.9781 105.156 61.3884C105.263 61.7427 105.468 62.059 105.747 62.3004C106.032 62.5407 106.386 62.6833 106.757 62.708C107.13 62.7591 107.51 62.6914 107.843 62.5144C108.116 62.3597 108.347 62.1391 108.515 61.8724C108.706 61.5444 108.874 61.204 109.02 60.8533C109.118 60.6254 109.228 60.4026 109.348 60.1859C109.428 60.0351 109.536 59.9018 109.667 59.7935C109.799 59.6949 109.964 59.6501 110.128 59.6681C110.291 59.686 110.442 59.7653 110.551 59.8903C110.657 60.0371 110.702 60.2199 110.677 60.3998C110.663 60.6226 110.563 60.831 110.399 60.9807C110.224 61.1284 110.001 61.2047 109.773 61.1947L109.611 62.9475C109.913 62.9667 110.216 62.9172 110.497 62.8025C110.777 62.6878 111.029 62.511 111.233 62.2851C111.669 61.7731 111.925 61.13 111.96 60.4559C112.019 60.0171 111.976 59.5706 111.834 59.1515Z" fill="#955D34"/>
<path d="M6.78403 40.8083L5.19282 40.3395C4.1855 43.8059 3.52223 47.3646 3.21271 50.9633L4.86959 51.1059C5.17026 47.6182 5.81149 44.169 6.78403 40.8083Z" fill="#955D34"/>
<path d="M104.947 41.7815C106.027 45.1088 106.777 48.536 107.185 52.0128L108.837 51.8141C108.416 48.2277 107.641 44.6927 106.523 41.2617L104.947 41.7815Z" fill="#955D34"/>
</g>
<defs>
<clipPath id="clip0_1_713">
<rect width="112" height="112" fill="white"/>
</clipPath>
</defs>
</svg>
