<svg width="20" height="21" viewBox="0 0 20 21" fill="none" xmlns="http://www.w3.org/2000/svg">
<rect y="0.0698242" width="20" height="20" rx="10" fill="#6B0606"/>
<rect x="3.33325" y="3.40308" width="13.3333" height="13.3333" rx="6.66667" fill="#6B0606"/>
<path d="M9.99927 3.40308C11.8097 3.40308 12.0363 3.41076 12.7473 3.44312C13.4568 3.47562 13.9415 3.58789 14.3665 3.75269C14.8053 3.92283 15.1763 4.15138 15.5471 4.52222C15.9178 4.89272 16.1458 5.26448 16.3167 5.70288C16.4805 6.12676 16.5929 6.61136 16.6262 7.32104C16.6582 8.03205 16.6663 8.25962 16.6663 10.0701C16.6663 11.8804 16.6582 12.1071 16.6262 12.8181C16.5929 13.5276 16.4805 14.0122 16.3167 14.4363C16.1458 14.8746 15.9179 15.2464 15.5471 15.6169C15.1768 15.9877 14.8056 16.2162 14.3674 16.3865C13.9433 16.5513 13.4579 16.6635 12.7483 16.696C12.0372 16.7284 11.81 16.7361 9.99927 16.7361C8.18936 16.7361 7.96217 16.7284 7.25122 16.696C6.54178 16.6636 6.05716 16.5513 5.63306 16.3865C5.19488 16.2162 4.8228 15.9878 4.45239 15.6169C4.0817 15.2464 3.85328 14.8747 3.68286 14.4363C3.51814 14.0124 3.40593 13.5278 3.37329 12.8181C3.34107 12.107 3.33325 11.8804 3.33325 10.0701C3.33325 8.25974 3.3415 8.03193 3.37329 7.32104C3.40523 6.61174 3.51764 6.12685 3.68286 5.70288C3.85365 5.26465 4.08172 4.89268 4.45239 4.52222C4.82295 4.15152 5.19556 3.92297 5.63403 3.75269C6.05772 3.58797 6.54201 3.47563 7.25122 3.44312C7.96217 3.41076 8.18986 3.40308 9.99927 3.40308Z" fill="#DFBFA8"/>
<path d="M9.40356 4.6062C9.58107 4.60592 9.7797 4.6062 10.0022 4.6062C11.7817 4.6062 11.9928 4.61235 12.6956 4.64429C13.3456 4.67401 13.6988 4.78253 13.9338 4.87378C14.2448 4.99459 14.4664 5.13955 14.6995 5.3728C14.9327 5.60609 15.0774 5.82835 15.1985 6.1394C15.2897 6.37413 15.3984 6.72694 15.428 7.37671C15.4599 8.07944 15.467 8.29094 15.467 10.0701C15.467 11.8486 15.4599 12.06 15.428 12.7625C15.3983 13.4125 15.2897 13.766 15.1985 14.0007C15.0777 14.3117 14.9327 14.5332 14.6995 14.7664C14.4663 14.9995 14.2448 15.1436 13.9338 15.2644C13.6991 15.3561 13.3456 15.4652 12.6956 15.4949C11.9929 15.5268 11.7817 15.533 10.0022 15.533C8.22211 15.533 8.01058 15.5268 7.30786 15.4949C6.65785 15.4649 6.30472 15.3557 6.06958 15.2644C5.75866 15.1436 5.53621 14.9996 5.30298 14.7664C5.06964 14.533 4.92507 14.311 4.80396 13.9998C4.71272 13.7651 4.60405 13.4122 4.57446 12.7625C4.54252 12.0597 4.53638 11.8484 4.53638 10.0681C4.53638 8.28782 4.54252 8.07754 4.57446 7.37476C4.60418 6.7252 4.71274 6.37243 4.80396 6.13745C4.92474 5.82646 5.06981 5.60408 5.30298 5.37085C5.53623 5.13759 5.75863 4.99291 6.06958 4.87183C6.30458 4.78016 6.65785 4.67122 7.30786 4.64136C7.92279 4.61358 8.16118 4.60564 9.40356 4.60425V4.6062ZM9.82642 6.6521C8.01776 6.74402 6.57935 8.23956 6.57935 10.071C6.57944 11.9617 8.11252 13.4939 10.0032 13.4939C11.8937 13.4938 13.4259 11.9616 13.426 10.071C13.426 8.18044 11.8937 6.64739 10.0032 6.64722L9.82642 6.6521ZM13.4768 5.71851C13.0738 5.75967 12.7591 6.0995 12.759 6.51343C12.759 6.95503 13.1173 7.31312 13.5588 7.31323C14.0005 7.31323 14.3586 6.9551 14.3586 6.51343C14.3585 6.07185 14.0004 5.71362 13.5588 5.71362L13.4768 5.71851Z" fill="#6B0606"/>
<path d="M10.0008 7.84839C11.228 7.84839 12.2231 8.84326 12.2231 10.0706C12.2231 11.2979 11.228 12.2929 10.0008 12.2929C8.77344 12.2929 7.77856 11.2979 7.77856 10.0706C7.77856 8.84326 8.77344 7.84839 10.0008 7.84839Z" fill="#6B0606"/>
</svg>
