<svg width="180" height="180" viewBox="0 0 180 180" fill="none" xmlns="http://www.w3.org/2000/svg">
<path d="M157.5 75C157.5 127.5 90 172.5 90 172.5C90 172.5 22.5 127.5 22.5 75C22.5 57.0979 29.6116 39.929 42.2703 27.2703C54.929 14.6116 72.0979 7.5 90 7.5C107.902 7.5 125.071 14.6116 137.73 27.2703C150.388 39.929 157.5 57.0979 157.5 75Z" stroke="#6B0606" stroke-opacity="0.1" stroke-width="10" stroke-linecap="round" stroke-linejoin="round"/>
<path d="M90 97.5C102.426 97.5 112.5 87.4264 112.5 75C112.5 62.5736 102.426 52.5 90 52.5C77.5736 52.5 67.5 62.5736 67.5 75C67.5 87.4264 77.5736 97.5 90 97.5Z" stroke="#6B0606" stroke-opacity="0.1" stroke-width="10" stroke-linecap="round" stroke-linejoin="round"/>
</svg>
