<svg width="40" height="40" viewBox="0 0 40 40" fill="none" xmlns="http://www.w3.org/2000/svg">
<g clip-path="url(#clip0_1_111)">
<path d="M39.6914 29.7543C39.5695 29.6216 37.0064 26.8634 33.3854 25.4737C34.5585 23.532 35.2343 21.2576 35.2343 18.8281V16.4844C35.2343 15.8372 34.7097 15.3125 34.0625 15.3125H31.7187C29.504 15.3125 27.3785 15.8634 25.48 16.9184C24.3383 12.2092 21.0016 8.79883 20.8316 8.62758C20.6116 8.40586 20.3122 8.28125 20 8.28125C19.6877 8.28125 19.3883 8.40586 19.1683 8.6275C18.9983 8.79875 15.6615 12.2092 14.5198 16.9183C12.6215 15.8634 10.496 15.3125 8.28122 15.3125H5.93747C5.29028 15.3125 4.7656 15.8372 4.7656 16.4844V18.8281C4.7656 21.2576 5.44146 23.532 6.61458 25.4737C2.99364 26.8634 0.430519 29.6216 0.308644 29.7544C-0.101903 30.2015 -0.102996 30.8881 0.306066 31.3366C0.494816 31.5436 4.99474 36.4062 10.625 36.4062C12.3999 36.4062 14.0545 35.9231 15.4947 35.255C17.0147 37.2348 19.3161 38.5384 19.4277 38.6008C19.6055 38.7003 19.8028 38.75 20 38.75C20.1973 38.75 20.3946 38.7002 20.5724 38.6008C20.684 38.5384 22.9854 37.2348 24.5054 35.255C25.9454 35.9231 27.6 36.4062 29.375 36.4062C35.0052 36.4062 39.5051 31.5436 39.694 31.3366C40.103 30.888 40.1019 30.2014 39.6914 29.7543ZM20.0017 11.2416C21.2643 12.8237 23.5156 16.1805 23.5156 20C23.5156 23.8044 21.2601 27.1721 19.9983 28.7584C18.7357 27.1763 16.4843 23.8195 16.4843 20C16.4843 16.1956 18.7398 12.8279 20.0017 11.2416ZM10.625 34.0625C7.27935 34.0625 4.26411 31.7921 2.8638 30.5487C3.89911 29.632 5.81193 28.158 8.07716 27.4445C10.2836 29.8951 13.4143 31.4973 16.9147 31.6969C15.0852 33.0298 12.8874 34.0625 10.625 34.0625ZM7.10935 18.8281V17.6562H8.28122C10.3992 17.6562 12.4159 18.2733 14.1536 19.443C14.1452 19.6275 14.1406 19.8131 14.1406 20C14.1406 23.9271 16.0529 27.3355 17.5204 29.3733C11.7672 29.3002 7.10935 24.5983 7.10935 18.8281ZM20 36.1972C19.3728 35.7802 18.3532 35.0282 17.5669 34.0956C18.5961 33.4202 19.4275 32.7231 19.9999 32.1966C20.5722 32.7231 21.4037 33.4202 22.4329 34.0956C21.6466 35.0284 20.6268 35.7804 20 36.1972ZM25.8593 20C25.8593 19.8131 25.8547 19.6275 25.8464 19.443C27.584 18.2733 29.6008 17.6562 31.7187 17.6562H32.8906V18.8281C32.8906 24.5983 28.2327 29.3002 22.4796 29.3733C23.9471 27.3355 25.8593 23.9271 25.8593 20ZM29.375 34.0625C26.9195 34.0625 24.6633 32.8381 23.0929 31.6964C26.5902 31.495 29.7179 29.8934 31.9229 27.4445C34.1898 28.1586 36.1036 29.6342 37.1381 30.5503C35.7423 31.7941 32.7358 34.0625 29.375 34.0625Z" fill="#6B0606"/>
<path d="M20 1.25C19.3528 1.25 18.8281 1.77469 18.8281 2.42188V4.76562C18.8281 5.41281 19.3528 5.9375 20 5.9375C20.6472 5.9375 21.1719 5.41281 21.1719 4.76562V2.42188C21.1719 1.77469 20.6472 1.25 20 1.25Z" fill="#6B0606"/>
<path d="M12.2823 8.28127L10.625 6.624C10.1674 6.16635 9.42541 6.16635 8.96775 6.624C8.5101 7.08166 8.5101 7.82361 8.96775 8.28127L10.625 9.93853C11.0826 10.3961 11.8246 10.3963 12.2823 9.93853C12.7399 9.48088 12.7399 8.73893 12.2823 8.28127Z" fill="#6B0606"/>
<path d="M31.0322 6.624C30.5746 6.16635 29.8326 6.16635 29.3749 6.624L27.7177 8.28127C27.2601 8.73893 27.2601 9.48088 27.7177 9.93853C28.1753 10.3962 28.9173 10.3962 29.375 9.93853L31.0322 8.28127C31.4898 7.82361 31.4898 7.08166 31.0322 6.624Z" fill="#6B0606"/>
</g>
<defs>
<clipPath id="clip0_1_111">
<rect width="40" height="40" fill="white"/>
</clipPath>
</defs>
</svg>
