<svg width="434" height="333" viewBox="0 0 434 333" fill="none" xmlns="http://www.w3.org/2000/svg">
<path d="M430.651 234.049C429.329 232.603 401.519 202.548 362.232 187.405C374.959 166.248 382.292 141.465 382.292 114.993V89.4544C382.292 82.4024 376.6 76.6852 369.578 76.6852H344.148C320.118 76.6852 297.056 82.6876 276.458 94.1833C264.071 42.8706 227.867 5.70957 226.023 3.84356C223.636 1.42762 220.388 0.0698242 217 0.0698242C213.612 0.0698242 210.363 1.42762 207.975 3.84271C206.131 5.70872 169.928 42.8706 157.54 94.1825C136.943 82.6876 113.881 76.6852 89.8512 76.6852H64.4215C57.3996 76.6852 51.7067 82.4024 51.7067 89.4544V114.993C51.7067 141.465 59.0398 166.248 71.7682 187.406C32.481 202.548 4.67113 232.603 3.34879 234.05C-1.10564 238.922 -1.11751 246.404 3.32081 251.291C5.36875 253.546 54.1929 306.531 115.281 306.531C134.539 306.531 152.491 301.267 168.118 293.987C184.609 315.559 209.58 329.764 210.791 330.444C212.72 331.528 214.86 332.07 217 332.07C219.141 332.07 221.281 331.528 223.21 330.444C224.421 329.764 249.391 315.559 265.883 293.987C281.508 301.267 299.46 306.531 318.718 306.531C379.806 306.531 428.63 253.546 430.679 251.29C435.118 246.403 435.106 238.921 430.651 234.049ZM217.018 32.3275C230.717 49.5659 255.144 86.1438 255.144 127.762C255.144 169.216 230.672 205.912 216.981 223.197C203.282 205.958 178.855 169.38 178.855 127.762C178.855 86.3081 203.327 49.6119 217.018 32.3275ZM115.281 280.993C78.9809 280.993 46.2656 256.254 31.0722 242.705C42.3054 232.717 63.0594 216.656 87.6371 208.881C111.577 235.583 145.546 253.042 183.524 255.216C163.674 269.741 139.828 280.993 115.281 280.993ZM77.1364 114.993V102.224H89.8512C112.831 102.224 134.713 108.947 153.566 121.693C153.475 123.703 153.425 125.726 153.425 127.762C153.425 170.554 174.173 207.693 190.096 229.897C127.674 229.1 77.1364 177.867 77.1364 114.993ZM217 304.253C210.195 299.709 199.132 291.516 190.601 281.354C201.767 273.995 210.789 266.398 216.999 260.661C223.209 266.398 232.23 273.995 243.396 281.354C234.866 291.517 223.8 299.712 217 304.253ZM280.574 127.762C280.574 125.726 280.524 123.703 280.433 121.693C299.287 108.947 321.168 102.224 344.148 102.224H356.863V114.993C356.863 177.867 306.325 229.1 243.903 229.897C259.826 207.693 280.574 170.554 280.574 127.762ZM318.718 280.993C292.076 280.993 267.597 267.652 250.558 255.211C288.504 253.016 322.439 235.564 346.363 208.881C370.959 216.662 391.724 232.741 402.948 242.723C387.804 256.276 355.184 280.993 318.718 280.993Z" fill="#6B0606"/>
</svg>
