<svg width="48" height="52" viewBox="0 0 48 52" fill="none" xmlns="http://www.w3.org/2000/svg">
<path d="M46.8571 16.5555H45.6831C45.6608 16.1329 45.627 15.7091 45.5802 15.2871C45.511 14.6599 44.9463 14.2073 44.3187 14.2767C43.6914 14.3459 43.239 14.9109 43.3083 15.5382C43.3458 15.8767 43.3737 16.2166 43.3937 16.5554H41.1038C40.5136 7.63394 33.0685 0.555542 24 0.555542C14.9315 0.555542 7.4864 7.63394 6.89611 16.5555H4.60617C4.62617 16.2166 4.65417 15.8768 4.69154 15.5383C4.76091 14.911 4.30846 14.3461 3.68114 14.2768C3.05349 14.2078 2.48903 14.6599 2.41966 15.2872C2.37303 15.7091 2.3392 16.133 2.3168 16.5557H1.14286C0.511657 16.5557 0 17.0673 0 17.6985C0 18.3297 0.511657 18.8414 1.14286 18.8414H2.31577C2.86023 29.2902 10.8258 37.8061 21.0286 39.2085V48.7841H12.0736C11.4424 48.7841 10.9307 49.2959 10.9307 49.927C10.9307 50.5581 11.4424 51.0698 12.0736 51.0698H35.4693C36.1005 51.0698 36.6121 50.5581 36.6121 49.927C36.6121 49.2959 36.1005 48.7841 35.4693 48.7841H26.9714V39.2085C37.1742 37.8061 45.1398 29.2902 45.6842 18.8413H46.8571C47.4883 18.8413 48 18.3296 48 17.6984C48 17.0672 47.4883 16.5555 46.8571 16.5555ZM24 2.84126C32.1922 2.84126 38.8571 9.50606 38.8571 17.6984C38.8571 25.8907 32.1922 32.5555 24 32.5555C15.8078 32.5555 9.14286 25.8907 9.14286 17.6984C9.14286 9.50606 15.8078 2.84126 24 2.84126ZM24.6857 48.7841H23.3143V39.4008C23.5421 39.408 23.7705 39.4127 24 39.4127C24.2295 39.4127 24.4579 39.4079 24.6857 39.4008V48.7841ZM25.7137 37.0505C25.7127 37.0506 25.7115 37.0506 25.7104 37.0507C25.1466 37.1002 24.5765 37.127 24 37.127C23.4235 37.127 22.8534 37.1002 22.2895 37.0507C22.2883 37.0506 22.2873 37.0506 22.2862 37.0505C12.7483 36.2128 5.1664 28.4549 4.60594 18.8413H6.89611C7.4864 27.7629 14.9315 34.8413 24 34.8413C33.0685 34.8413 40.5136 27.7629 41.1039 18.8413H43.3941C42.8335 28.4549 35.2517 36.2128 25.7137 37.0505Z" fill="black" fill-opacity="0.5"/>
<path d="M21.9308 17.5227C22.1538 17.7458 22.4464 17.8574 22.7389 17.8574C23.0313 17.8574 23.3239 17.7458 23.547 17.5227L31.685 9.38463C32.1313 8.93834 32.1313 8.21468 31.685 7.76828C31.2388 7.32211 30.5151 7.32211 30.0687 7.76828L21.9306 15.9063C21.4844 16.3527 21.4844 17.0764 21.9308 17.5227Z" fill="black" fill-opacity="0.5"/>
<path d="M18.6984 19.139L14.0701 23.7671C13.6238 24.2134 13.6237 24.9371 14.07 25.3835C14.2932 25.6065 14.5857 25.7182 14.8781 25.7182C15.1706 25.7182 15.4632 25.6065 15.6862 25.3835L20.3145 20.7553C20.7608 20.3091 20.7609 19.5854 20.3145 19.139C19.8683 18.6928 19.1448 18.6927 18.6984 19.139Z" fill="black" fill-opacity="0.5"/>
<path d="M25.8614 5.51059C25.4151 5.06442 24.6915 5.06442 24.2451 5.51059L11.8123 17.9435C11.366 18.3898 11.366 19.1134 11.8123 19.5598C12.0355 19.7829 12.3279 19.8946 12.6204 19.8946C12.9128 19.8946 13.2054 19.7829 13.4285 19.5598L25.8614 7.12694C26.3077 6.68065 26.3077 5.95699 25.8614 5.51059Z" fill="black" fill-opacity="0.5"/>
</svg>
