<svg width="178" height="76" viewBox="0 0 178 76" fill="none" xmlns="http://www.w3.org/2000/svg">
<path d="M13.3767 37.6018C14.3908 35.898 16.3721 35.2499 17.7945 36.1569C18.8086 36.805 19.2571 38.0712 19.0697 39.3641C22.9821 40.3446 26.6268 42.2805 29.7009 44.3685C26.7657 40.4531 24.0314 36.2388 21.5078 31.7622C21.4309 31.7488 21.3522 31.7338 21.2786 31.6987C21.2317 31.677 16.4725 29.432 11.551 26.2383C4.80041 21.8569 0.958237 17.8346 0.131567 14.2851C-0.171322 12.9855 0.0495737 12.1236 0.785879 11.7227C1.84515 11.1481 3.75285 11.3035 13.0403 20.4955C14.3105 21.7517 15.5572 23.0228 16.7118 24.2138C15.758 22.6035 14.6535 20.6392 13.5993 18.5312C9.95455 11.2366 8.64259 5.78621 9.70353 2.33354C10.0918 1.06907 10.7143 0.452716 11.5527 0.502827C12.7575 0.574653 14.3289 1.71718 17.7611 14.4404C19.0513 19.221 20.1557 24.025 20.6577 26.27L20.6594 26.2717C21.4325 27.785 22.2358 29.2616 23.0558 30.7182C22.3362 26.5473 22.0316 20.721 23.7318 14.265C23.2214 14.0078 22.7679 13.6604 22.4249 13.2244C21.8509 12.4928 21.6233 11.5941 21.8007 10.7589C21.9781 9.92373 22.5454 9.21549 23.3586 8.81293C24.1134 8.44044 25.017 8.35191 25.9056 8.56404C26.7942 8.77451 27.5757 9.26559 28.1078 9.94377C28.6818 10.6754 28.9094 11.5741 28.732 12.4092C28.5563 13.2444 27.9873 13.9527 27.174 14.3552C26.9431 14.4688 26.6971 14.5557 26.4428 14.6175C26.1533 14.686 25.8537 14.7194 25.5475 14.7177C22.4416 26.4337 26.4377 36.2989 26.498 36.4442C26.5063 36.4643 26.5047 36.486 26.5114 36.5077C28.1798 39.1152 29.9352 41.6007 31.7575 43.986C29.4499 36.4426 25.8002 21.8819 29.6942 15.5262C30.4724 14.2567 31.3107 13.7589 32.1876 14.0479C33.4209 14.4538 34.1238 16.3363 34.6124 20.5456C34.9437 23.3936 35.1546 27.2706 35.2383 32.0712C35.3688 39.471 35.1579 46.8223 35.1161 48.1686C35.9628 49.1625 36.8213 50.138 37.6948 51.0851C38.1467 51.5478 38.483 51.9086 38.6905 52.1374C42.6649 56.3117 46.9171 60.0099 51.3801 63.1786C48.6959 59.6842 45.5013 54.0567 44.8889 46.6068C43.5953 46.4063 42.5227 45.5595 42.2348 44.3468C41.8382 42.6814 43.0598 40.9593 44.9592 40.5083C46.8585 40.0573 48.726 41.0461 49.1226 42.7132C49.4941 44.2733 48.4365 45.8685 46.7413 46.4364C47.3153 53.5272 50.3994 58.8724 52.9313 62.1329C55.6406 65.624 58.2645 67.5149 58.5306 67.702C67.0483 72.4325 73.1462 73.5867 73.2165 73.5984C73.7236 73.6902 74.07 74.1864 73.988 74.7075C73.9277 75.0984 73.6433 75.3923 73.2902 75.4759C73.173 75.5043 73.0475 75.5076 72.9203 75.4859C72.6576 75.4391 67.6139 74.487 60.2191 70.742C59.4778 70.7086 52.9614 70.3896 45.9582 69.1568C35.8256 67.3729 29.5386 64.5967 27.2728 60.9052C26.7523 60.0567 26.2905 58.859 27.0502 57.9687C27.6744 57.2337 29.0081 56.6808 34.1656 58.1541C37.0054 58.9659 40.7622 60.3172 45.3323 62.173C46.482 62.639 47.6232 63.1151 48.7394 63.5862C44.8554 60.6897 41.1404 57.3957 37.6363 53.7426C37.6078 53.7176 37.576 53.6975 37.5509 53.6675C37.5426 53.6574 37.4589 53.5622 37.3083 53.4002C37.0556 53.1346 36.7979 52.8757 36.5486 52.6068C36.5301 52.5867 36.5117 52.565 36.4933 52.545C33.8543 49.8523 26.5883 43.1074 18.3417 41.158C17.7862 41.9448 17.0247 42.481 16.2215 42.6714C15.4986 42.8435 14.7506 42.7482 14.1147 42.3423C13.4018 41.888 12.9249 41.0946 12.8094 40.1675C12.7056 39.3039 12.9048 38.3936 13.3767 37.6018ZM26.3491 12.6247C26.5264 12.5379 26.836 12.3357 26.913 11.9749C26.99 11.6141 26.7908 11.2918 26.6653 11.1314C26.4026 10.7973 25.9826 10.5401 25.5123 10.4282C25.1777 10.348 24.8346 10.3463 24.5317 10.4182C24.4096 10.4466 24.2924 10.4883 24.187 10.5418C24.0096 10.6303 23.7 10.8307 23.623 11.1915C23.5461 11.5523 23.7452 11.8747 23.8707 12.0351C24.1334 12.3692 24.5535 12.6264 25.0237 12.7383C25.4923 12.8502 25.9759 12.8085 26.3491 12.6247ZM32.8402 21.4176C32.4436 17.5891 31.9349 16.363 31.7006 15.9872C31.6053 16.0857 31.4614 16.2595 31.2773 16.5601C29.3361 19.7272 29.3562 26.133 31.3342 35.0846C31.9701 37.9593 32.7164 40.6753 33.3741 42.8702C33.4193 40.0188 33.446 36.3557 33.3875 32.6475C33.3172 28.0289 33.1331 24.2505 32.8402 21.4176ZM47.3187 43.1358C47.1697 42.5094 46.2946 42.1586 45.4076 42.3691C44.5207 42.5795 43.8982 43.2861 44.0471 43.9125C44.1961 44.5389 45.0713 44.8896 45.9582 44.6809C46.8451 44.4687 47.4676 43.7622 47.3187 43.1358ZM12.2036 22.3062C5.19199 15.3241 2.6986 13.8341 1.87862 13.5317C1.89034 13.6203 1.91041 13.7305 1.94221 13.8641C2.64003 16.8574 6.29478 20.5724 12.5115 24.6113C14.1532 25.677 15.7764 26.6358 17.2055 27.4359C15.7513 25.9075 14.0059 24.1019 12.2036 22.3062ZM16.1295 15.5362C13.5591 5.89312 12.1484 3.30905 11.5912 2.61752C11.5577 2.69937 11.5192 2.80292 11.479 2.93321C10.5838 5.84467 11.8857 10.936 15.2426 17.6576C16.1295 19.4315 17.0532 21.1052 17.8882 22.5417C17.3963 20.4738 16.7905 18.015 16.1295 15.5362ZM45.0261 64.0906C32.5541 59.0043 29.3964 58.9976 28.65 59.1747C28.5998 59.1864 28.5613 59.1997 28.5295 59.2114C28.5546 59.32 28.6299 59.5372 28.8491 59.898C30.787 63.0533 36.7979 65.6006 46.2326 67.2643C49.4908 67.8389 52.6452 68.2114 55.1419 68.4486C52.3858 67.2058 48.7428 65.6073 45.0261 64.0906ZM15.0836 40.7137C15.6174 41.0545 16.4692 40.672 16.9428 39.8752C17.4163 39.0801 17.3628 38.1196 16.829 37.7789C16.5897 37.6269 16.3219 37.6419 16.1261 37.6887C16.0692 37.702 16.0174 37.7187 15.9755 37.7338C15.5856 37.8758 15.2191 38.1965 14.9698 38.6174C14.4962 39.4142 14.5481 40.373 15.0836 40.7137Z" fill="#955D34"/>
<path d="M61.3646 50.5405C61.3646 49.9638 61.4947 49.4466 61.7547 48.9886C62.0148 48.5251 62.3681 48.1633 62.8147 47.9032C63.267 47.6431 63.7673 47.5131 64.3157 47.5131C64.9602 47.5131 65.5227 47.6686 66.0032 47.9795C66.4837 48.2905 66.8342 48.7314 67.0547 49.3024H66.1304C65.9665 48.9462 65.729 48.6721 65.4181 48.4798C65.1128 48.2876 64.7453 48.1915 64.3157 48.1915C63.903 48.1915 63.5327 48.2876 63.2048 48.4798C62.8769 48.6721 62.6197 48.9462 62.4331 49.3024C62.2466 49.6529 62.1533 50.0656 62.1533 50.5405C62.1533 51.0097 62.2466 51.4224 62.4331 51.7786C62.6197 52.1291 62.8769 52.4004 63.2048 52.5926C63.5327 52.7849 63.903 52.881 64.3157 52.881C64.7453 52.881 65.1128 52.7877 65.4181 52.6011C65.729 52.4089 65.9665 52.1347 66.1304 51.7786H67.0547C66.8342 52.3439 66.4837 52.782 66.0032 53.093C65.5227 53.3982 64.9602 53.5509 64.3157 53.5509C63.7673 53.5509 63.267 53.4237 62.8147 53.1693C62.3681 52.9092 62.0148 52.5502 61.7547 52.0923C61.4947 51.6344 61.3646 51.1171 61.3646 50.5405ZM70.8831 53.5594C70.3347 53.5594 69.8344 53.4322 69.3821 53.1778C68.9299 52.9177 68.5709 52.5587 68.3052 52.1008C68.0451 51.6372 67.9151 51.1171 67.9151 50.5405C67.9151 49.9638 68.0451 49.4466 68.3052 48.9886C68.5709 48.5251 68.9299 48.1661 69.3821 47.9117C69.8344 47.6516 70.3347 47.5216 70.8831 47.5216C71.4371 47.5216 71.9403 47.6516 72.3925 47.9117C72.8448 48.1661 73.201 48.5222 73.461 48.9802C73.7211 49.4381 73.8511 49.9582 73.8511 50.5405C73.8511 51.1228 73.7211 51.6429 73.461 52.1008C73.201 52.5587 72.8448 52.9177 72.3925 53.1778C71.9403 53.4322 71.4371 53.5594 70.8831 53.5594ZM70.8831 52.8894C71.2958 52.8894 71.6661 52.7933 71.994 52.6011C72.3275 52.4089 72.5876 52.1347 72.7741 51.7786C72.9664 51.4224 73.0625 51.0097 73.0625 50.5405C73.0625 50.0656 72.9664 49.6529 72.7741 49.3024C72.5876 48.9462 72.3304 48.6721 72.0025 48.4798C71.6746 48.2876 71.3015 48.1915 70.8831 48.1915C70.4648 48.1915 70.0916 48.2876 69.7637 48.4798C69.4359 48.6721 69.1758 48.9462 68.9836 49.3024C68.797 49.6529 68.7037 50.0656 68.7037 50.5405C68.7037 51.0097 68.797 51.4224 68.9836 51.7786C69.1758 52.1347 69.4359 52.4089 69.7637 52.6011C70.0973 52.7933 70.4704 52.8894 70.8831 52.8894ZM76.7439 53.5594C76.3538 53.5594 76.0033 53.4915 75.6924 53.3558C75.3871 53.2145 75.1468 53.0223 74.9716 52.7792C74.7963 52.5305 74.7059 52.245 74.7002 51.9227H75.5228C75.5511 52.1997 75.6641 52.4343 75.862 52.6266C76.0655 52.8131 76.3595 52.9064 76.7439 52.9064C77.1114 52.9064 77.3997 52.8159 77.6089 52.635C77.8237 52.4485 77.9311 52.211 77.9311 51.9227C77.9311 51.6966 77.8689 51.5129 77.7446 51.3715C77.6202 51.2302 77.4647 51.1228 77.2782 51.0493C77.0916 50.9758 76.84 50.8966 76.5234 50.8118C76.1334 50.7101 75.8196 50.6083 75.5822 50.5066C75.3504 50.4048 75.1497 50.2465 74.9801 50.0317C74.8161 49.8112 74.7342 49.5172 74.7342 49.1498C74.7342 48.8275 74.8161 48.542 74.9801 48.2933C75.144 48.0445 75.373 47.8523 75.667 47.7166C75.9666 47.581 76.3086 47.5131 76.693 47.5131C77.2471 47.5131 77.6993 47.6516 78.0498 47.9286C78.406 48.2057 78.6067 48.5731 78.6519 49.031H77.8039C77.7756 48.8049 77.6569 48.607 77.4478 48.4374C77.2386 48.2622 76.9616 48.1746 76.6167 48.1746C76.2945 48.1746 76.0316 48.2594 75.8281 48.429C75.6246 48.5929 75.5228 48.8247 75.5228 49.1243C75.5228 49.3391 75.5822 49.5144 75.7009 49.6501C75.8252 49.7858 75.9751 49.8903 76.1503 49.9638C76.3312 50.0317 76.5828 50.1108 76.905 50.2013C77.2951 50.3087 77.6089 50.4161 77.8463 50.5235C78.0838 50.6253 78.2873 50.7864 78.4569 51.0069C78.6265 51.2217 78.7113 51.5157 78.7113 51.8888C78.7113 52.1771 78.635 52.4485 78.4823 52.7029C78.3297 52.9573 78.1035 53.1636 77.8039 53.3219C77.5043 53.4802 77.151 53.5594 76.7439 53.5594ZM85.8422 47.6318V53.5H85.0705V49.1243L83.1201 53.5H82.5774L80.6185 49.1158V53.5H79.8469V47.6318H80.6779L82.8488 52.4824L85.0197 47.6318H85.8422ZM87.9226 48.217V50.1928H90.0765V50.8288H87.9226V52.864H90.3309V53.5H87.1509V47.581H90.3309V48.217H87.9226ZM95.1365 47.5894V48.217H93.5253V53.5H92.7536V48.217H91.1339V47.5894H95.1365ZM95.7981 50.5405C95.7981 49.9638 95.9281 49.4466 96.1882 48.9886C96.4482 48.5251 96.8015 48.1633 97.2482 47.9032C97.7004 47.6431 98.2007 47.5131 98.7491 47.5131C99.3936 47.5131 99.9561 47.6686 100.437 47.9795C100.917 48.2905 101.268 48.7314 101.488 49.3024H100.564C100.4 48.9462 100.162 48.6721 99.8515 48.4798C99.5462 48.2876 99.1788 48.1915 98.7491 48.1915C98.3364 48.1915 97.9661 48.2876 97.6382 48.4798C97.3103 48.6721 97.0531 48.9462 96.8666 49.3024C96.68 49.6529 96.5867 50.0656 96.5867 50.5405C96.5867 51.0097 96.68 51.4224 96.8666 51.7786C97.0531 52.1291 97.3103 52.4004 97.6382 52.5926C97.9661 52.7849 98.3364 52.881 98.7491 52.881C99.1788 52.881 99.5462 52.7877 99.8515 52.6011C100.162 52.4089 100.4 52.1347 100.564 51.7786H101.488C101.268 52.3439 100.917 52.782 100.437 53.093C99.9561 53.3982 99.3936 53.5509 98.7491 53.5509C98.2007 53.5509 97.7004 53.4237 97.2482 53.1693C96.8015 52.9092 96.4482 52.5502 96.1882 52.0923C95.9281 51.6344 95.7981 51.1171 95.7981 50.5405ZM103.409 47.5894V53.5H102.637V47.5894H103.409ZM104.435 50.5405C104.435 49.9638 104.565 49.4466 104.825 48.9886C105.086 48.5251 105.439 48.1633 105.885 47.9032C106.338 47.6431 106.838 47.5131 107.386 47.5131C108.031 47.5131 108.593 47.6686 109.074 47.9795C109.555 48.2905 109.905 48.7314 110.125 49.3024H109.201C109.037 48.9462 108.8 48.6721 108.489 48.4798C108.184 48.2876 107.816 48.1915 107.386 48.1915C106.974 48.1915 106.603 48.2876 106.276 48.4798C105.948 48.6721 105.69 48.9462 105.504 49.3024C105.317 49.6529 105.224 50.0656 105.224 50.5405C105.224 51.0097 105.317 51.4224 105.504 51.7786C105.69 52.1291 105.948 52.4004 106.276 52.5926C106.603 52.7849 106.974 52.881 107.386 52.881C107.816 52.881 108.184 52.7877 108.489 52.6011C108.8 52.4089 109.037 52.1347 109.201 51.7786H110.125C109.905 52.3439 109.555 52.782 109.074 53.093C108.593 53.3982 108.031 53.5509 107.386 53.5509C106.838 53.5509 106.338 53.4237 105.885 53.1693C105.439 52.9092 105.086 52.5502 104.825 52.0923C104.565 51.6344 104.435 51.1171 104.435 50.5405Z" fill="#955D34"/>
<path d="M98.6502 40.1886C98.2425 40.1342 97.6853 40.0255 96.9786 39.8624C96.272 39.7265 95.5517 39.4411 94.8178 39.0062C94.084 38.5713 93.4588 37.9054 92.9424 37.0085C92.426 36.1387 92.1678 34.97 92.1678 33.5023C92.1678 31.8171 92.5075 29.9689 93.187 27.9575C93.8937 25.919 94.7499 23.799 95.7555 21.5974C96.7612 19.3958 97.7261 17.2214 98.6502 15.0742C99.3841 13.3619 99.751 12.0572 99.751 11.1603C99.751 10.2634 99.4112 9.8149 98.7317 9.8149C97.9707 9.8149 96.8291 10.4264 95.3071 11.6495C93.8122 12.8455 92.0726 14.6665 90.0885 17.1127C89.5721 17.765 88.9062 18.6756 88.0908 19.8443C87.2754 20.9859 86.4056 22.2633 85.4815 23.6767C84.5574 25.0629 83.6468 26.4762 82.7499 27.9168C81.8801 29.3301 81.1055 30.6348 80.426 31.8307C79.7737 33.0266 79.298 33.9779 78.9991 34.6846C78.6457 35.5272 78.238 36.098 77.776 36.3969C77.3139 36.7231 76.879 36.8862 76.4713 36.8862C76.118 36.8862 75.8054 36.7911 75.5336 36.6008C75.289 36.4105 75.1667 36.1795 75.1667 35.9077C75.1667 35.7446 75.2074 35.6087 75.289 35.5C75.4521 35.1738 75.8869 34.3856 76.5936 33.1353C77.3003 31.8851 78.1021 30.2271 78.9991 28.1614C79.896 26.0685 80.7522 23.6495 81.5676 20.9043C82.4101 18.132 83.0353 15.0742 83.443 11.7311C83.4973 11.3506 83.5245 10.9429 83.5245 10.508C83.5245 9.55669 83.3614 8.8636 83.0353 8.42872C82.7091 7.96666 82.2742 7.73563 81.7306 7.73563C81.1327 7.73563 80.4532 7.99384 79.6921 8.51026C78.9311 9.02668 78.1565 9.77413 77.3683 10.7526C76.0093 12.4649 74.8133 14.055 73.7805 15.5227C72.7477 16.9632 71.7964 18.4038 70.9266 19.8443C70.084 21.2849 69.2414 22.8205 68.3989 24.4513C67.5835 26.0821 66.7137 27.9168 65.7896 29.9553C64.8655 31.9666 63.8054 34.3041 62.6095 36.9677C62.4193 37.4026 62.0931 37.7152 61.631 37.9054C61.1962 38.0957 60.7885 38.1908 60.4079 38.1908C60.0274 38.1908 59.7148 38.1093 59.4702 37.9462C59.2256 37.7831 59.1441 37.5521 59.2256 37.2531C59.9323 36.1659 60.6933 34.7933 61.5087 33.1353C62.3241 31.4774 63.1395 29.6699 63.9549 27.7129C64.7975 25.7288 65.5721 23.7311 66.2788 21.7197C67.0127 19.6812 67.6378 17.765 68.1542 15.9712C68.6707 14.1501 69.024 12.5737 69.2143 11.2418C69.2686 10.807 69.3094 10.3993 69.3366 10.0187C69.3637 9.63823 69.3773 9.2713 69.3773 8.91796C69.3773 6.8251 68.9289 5.3302 68.0319 4.43326C67.1622 3.53632 66.0342 3.08785 64.648 3.08785C63.4793 3.08785 62.2018 3.35965 60.8156 3.90325C59.4566 4.41967 58.0705 5.13994 56.6571 6.06406C55.2709 6.98818 53.9391 8.06179 52.6616 9.28489C51.3842 10.4808 50.2562 11.7719 49.2777 13.158C48.2992 14.517 47.5518 15.9032 47.0354 17.3166C46.682 18.3222 46.4102 19.2871 46.22 20.2112C46.0569 21.1082 45.9754 21.9508 45.9754 22.739C45.9754 24.2611 46.2472 25.5521 46.7908 26.6121C47.3615 27.6722 48.109 28.474 49.0331 29.0176C49.9844 29.5612 51.0037 29.833 52.0909 29.833C52.4714 29.833 52.8927 29.7922 53.3547 29.7107C53.844 29.6019 54.2517 29.4932 54.5778 29.3845C55.366 29.0855 56.1271 28.6235 56.8609 27.9983C57.5948 27.346 58.2471 26.5985 58.8179 25.756C59.3887 24.9134 59.8372 24.0572 60.1633 23.1875C60.4895 22.3177 60.6526 21.5023 60.6526 20.7413C60.6526 19.953 60.4351 19.3007 60.0002 18.7843C59.5654 18.2679 58.8723 18.0097 57.921 18.0097C57.8122 18.0097 57.6899 18.0233 57.554 18.0504C57.4453 18.0504 57.323 18.0504 57.1871 18.0504H57.0648C56.8745 18.0504 56.6979 18.0233 56.5348 17.9689C56.3717 17.8874 56.2902 17.7922 56.2902 17.6835C56.2902 17.5748 56.4261 17.4525 56.6979 17.3166C56.9968 17.1807 57.5269 17.1127 58.2879 17.1127C59.511 17.1127 60.4215 17.4797 61.0195 18.2135C61.6446 18.9202 61.9572 19.8307 61.9572 20.9451C61.9572 21.9508 61.6854 23.038 61.1418 24.2067C60.5982 25.3754 59.7828 26.4898 58.6956 27.5498C57.6084 28.6099 56.2358 29.4796 54.5778 30.1591C53.5993 30.5396 52.648 30.7299 51.7239 30.7299C50.3649 30.7299 49.0739 30.3902 47.8508 29.7107C46.6277 29.004 45.6356 28.0119 44.8746 26.7344C44.1135 25.4298 43.733 23.8941 43.733 22.1274C43.733 21.3392 43.8145 20.5102 43.9776 19.6405C44.1679 18.7435 44.4669 17.8194 44.8746 16.8681C45.7715 14.7752 46.981 12.8455 48.5031 11.0788C50.0524 9.28489 51.7647 7.73563 53.6401 6.43099C55.5155 5.09917 57.4181 4.06633 59.3479 3.33247C61.2777 2.59861 63.0716 2.23168 64.7296 2.23168C66.7409 2.23168 68.3989 2.82964 69.7035 4.02556C71.0353 5.22148 71.7012 7.15126 71.7012 9.8149C71.7012 10.0052 71.6876 10.2634 71.6605 10.5895C71.6605 10.8885 71.6469 11.1195 71.6197 11.2826C71.4566 12.6688 71.1712 14.055 70.7635 15.4412C70.383 16.8273 69.9617 18.1592 69.4996 19.4366C69.4181 19.6541 69.3502 19.8851 69.2958 20.1297C69.2686 20.3471 69.255 20.4966 69.255 20.5782C69.255 20.7141 69.2822 20.782 69.3366 20.782C69.4453 20.782 69.6627 20.4966 69.9889 19.9259C70.614 18.7843 71.1712 17.7922 71.6605 16.9496C72.1769 16.0799 72.6797 15.2917 73.1689 14.585C73.6582 13.8783 74.1882 13.158 74.759 12.4242C75.3298 11.6903 75.9821 10.8749 76.7159 9.97798C77.5585 8.97232 78.5234 8.17051 79.6106 7.57255C80.6978 6.97459 81.7442 6.67561 82.7499 6.67561C83.6468 6.67561 84.4079 6.97459 85.033 7.57255C85.6582 8.17051 85.9707 9.18976 85.9707 10.6303C85.9707 10.7934 85.9707 10.9293 85.9707 11.038C85.9707 11.1467 85.9571 11.3098 85.93 11.5272C85.6853 14.1365 85.1689 16.705 84.3807 19.2328C83.5925 21.7333 82.7771 24.2611 81.9345 26.816C82.7771 25.5113 83.9186 23.8534 85.3592 21.842C86.7997 19.8307 88.3762 17.7515 90.0885 15.6042C92.1814 12.995 94.1247 11.038 95.9186 9.73336C97.7125 8.42872 99.1938 7.7764 100.363 7.7764C101.83 7.7764 102.564 8.67334 102.564 10.4672C102.564 11.1467 102.428 11.9621 102.156 12.9134C101.912 13.8647 101.518 14.8704 100.974 15.9304C100.376 17.1263 99.7102 18.5125 98.9764 20.0889C98.2697 21.6382 97.5902 23.269 96.9379 24.9813C96.2855 26.6937 95.7419 28.3788 95.3071 30.0368C94.8994 31.6676 94.6955 33.1761 94.6955 34.5623C94.6955 36.0572 95.0353 37.2667 95.7148 38.1908C96.4214 39.1421 97.6309 39.5906 99.3433 39.5362H99.5879C99.9956 39.5362 100.199 39.6178 100.199 39.7809C100.199 39.8896 100.064 39.9983 99.7918 40.107C99.52 40.2157 99.1394 40.2429 98.6502 40.1886ZM104.315 18.9474C103.907 18.9474 103.567 18.8115 103.295 18.5397C103.051 18.2407 102.928 17.8874 102.928 17.4797C102.928 16.9632 103.132 16.5148 103.54 16.1342C103.948 15.7537 104.396 15.5635 104.885 15.5635C105.32 15.5635 105.674 15.6994 105.945 15.9712C106.217 16.243 106.353 16.5691 106.353 16.9496C106.353 17.4661 106.149 17.9281 105.742 18.3358C105.334 18.7435 104.858 18.9474 104.315 18.9474ZM101.012 35.5C100.007 35.5 99.3 35.2146 98.8923 34.6438C98.4846 34.0459 98.2807 33.3664 98.2807 32.6053C98.2807 32.1976 98.3215 31.7899 98.403 31.3822C98.5117 30.9473 98.6341 30.5532 98.77 30.1999L101.502 23.2282C101.583 23.0108 101.624 22.8205 101.624 22.6574C101.624 22.3856 101.556 22.1546 101.42 21.9644C101.284 21.7469 101.189 21.5974 101.135 21.5159L103.377 21.4343C103.785 21.4072 104.07 21.4615 104.233 21.5974C104.423 21.7061 104.519 21.842 104.519 22.0051C104.519 22.1682 104.423 22.4672 104.233 22.9021L100.849 30.8522C100.849 30.8522 100.768 31.0289 100.605 31.3822C100.469 31.7084 100.387 31.9258 100.36 32.0345C100.278 32.4422 100.224 32.7005 100.197 32.8092C100.17 32.9179 100.156 32.9858 100.156 33.013C100.156 33.0402 100.156 33.1489 100.156 33.3392C100.156 33.6925 100.238 33.9915 100.401 34.2361C100.591 34.4807 100.904 34.6031 101.338 34.6031C101.61 34.6031 101.923 34.5215 102.276 34.3584C102.63 34.1954 102.888 34.0323 103.051 33.8692C103.73 33.1625 104.396 32.2384 105.049 31.0968C105.728 29.9281 106.353 28.7729 106.924 27.6314C107.033 27.3596 107.169 27.2237 107.332 27.2237C107.468 27.2237 107.536 27.3188 107.536 27.5091C107.536 27.6178 107.495 27.7809 107.413 27.9983C107.141 28.5691 106.802 29.2758 106.394 30.1184C105.986 30.9609 105.497 31.8035 104.926 32.6461C104.383 33.4615 103.785 34.141 103.132 34.6846C102.48 35.2282 101.773 35.5 101.012 35.5ZM107.853 35.6631C106.521 35.6631 105.57 35.3233 104.999 34.6438C104.455 33.9371 104.183 33.2033 104.183 32.4422C104.183 31.8171 104.333 31.2463 104.632 30.7299C104.958 30.2135 105.339 29.9417 105.773 29.9145C106.317 28.8545 106.901 27.6993 107.527 26.4491C108.179 25.1988 108.777 23.9893 109.32 22.8205C109.701 22.0323 110.177 21.2713 110.747 20.5374C111.345 19.8035 111.998 19.3823 112.704 19.2735H113.112C113.33 19.2735 113.52 19.2871 113.683 19.3143C113.873 19.3415 114.063 19.3958 114.254 19.4774C114.553 19.6133 114.702 19.8171 114.702 20.0889C114.702 20.252 114.607 20.3336 114.417 20.3336C114.335 20.3336 114.226 20.2928 114.091 20.2112C113.764 20.0753 113.479 20.0074 113.234 20.0074C113.071 20.0074 112.922 20.0482 112.786 20.1297C112.27 20.4015 111.903 20.782 111.685 21.2713C111.495 21.7605 111.4 22.2769 111.4 22.8205C111.4 23.2554 111.441 23.7039 111.522 24.1659C111.631 24.6008 111.753 24.9949 111.889 25.3483C112.188 26.1093 112.501 26.8568 112.827 27.5906C113.18 28.3245 113.357 29.1127 113.357 29.9553C113.357 30.7707 113.085 31.6404 112.541 32.5646C111.998 33.4615 111.305 34.1818 110.462 34.7254L110.747 34.7661C110.883 34.7933 110.978 34.8069 111.033 34.8069C111.087 34.8069 111.128 34.8069 111.155 34.8069C111.78 34.8069 112.365 34.6302 112.908 34.2769C113.479 33.8964 113.982 33.4343 114.417 32.8907C114.852 32.3471 115.341 31.5861 115.884 30.6076C116.455 29.6291 116.999 28.5963 117.515 27.5091C117.597 27.3732 117.692 27.3052 117.801 27.3052C117.937 27.3052 118.032 27.3596 118.086 27.4683C118.168 27.5498 118.181 27.6586 118.127 27.7945C117.773 28.5555 117.366 29.3845 116.904 30.2814C116.469 31.1512 115.966 31.9938 115.395 32.8092C114.824 33.5974 114.159 34.2497 113.397 34.7661C112.664 35.2554 111.835 35.5 110.911 35.5C110.693 35.5 110.462 35.4864 110.217 35.4592C109.973 35.432 109.728 35.3777 109.484 35.2961C109.212 35.4049 108.926 35.4864 108.627 35.5408C108.356 35.6223 108.097 35.6631 107.853 35.6631ZM109.076 34.44C109.538 34.0595 109.946 33.5023 110.299 32.7684C110.679 32.0345 110.87 31.0697 110.87 29.8737C110.87 28.8137 110.761 27.6857 110.544 26.4898C110.326 25.2939 110.217 24.2339 110.217 23.3098C110.217 23.1195 110.217 22.9564 110.217 22.8205C110.245 22.6574 110.272 22.508 110.299 22.3721C109.946 23.1059 109.538 23.9621 109.076 24.9406C108.614 25.8919 108.152 26.816 107.69 27.7129C107.228 28.6099 106.833 29.3709 106.507 29.996C106.507 29.996 106.575 30.0096 106.711 30.0368C106.874 30.0368 107.024 30.1319 107.16 30.3222C107.296 30.4853 107.35 30.825 107.323 31.3415C107.296 32.021 107.445 32.6597 107.771 33.2576C108.125 33.8284 108.559 34.2225 109.076 34.44ZM107.527 35.0108C107.69 35.0108 107.839 34.9972 107.975 34.97C108.111 34.9156 108.233 34.8749 108.342 34.8477C107.934 34.5487 107.567 34.1546 107.241 33.6653C106.942 33.1489 106.766 32.4966 106.711 31.7084C106.222 32.2248 105.977 32.782 105.977 33.38C105.977 33.8148 106.113 34.1954 106.385 34.5215C106.657 34.8477 107.037 35.0108 107.527 35.0108ZM119.384 35.5C118.623 35.5 117.943 35.2418 117.345 34.7254C116.748 34.1818 116.449 33.3392 116.449 32.1976C116.449 31.3007 116.612 30.1999 116.938 28.8953C117.291 27.5634 117.712 26.1908 118.202 24.7775C118.718 23.3369 119.221 22.0323 119.71 20.8636H117.549C117.359 20.8636 117.264 20.7277 117.264 20.4559C117.264 20.32 117.291 20.1977 117.345 20.0889C117.427 19.9802 117.536 19.9259 117.672 19.9259H120.118C120.58 18.893 121.069 17.8874 121.586 16.9089C122.102 15.9304 122.605 15.0063 123.094 14.1365C123.719 13.0493 124.385 12.2339 125.092 11.6903C125.798 11.1467 126.41 10.8749 126.926 10.8749C127.334 10.8749 127.674 11.038 127.946 11.3642C128.217 11.6631 128.353 12.1252 128.353 12.7503C128.353 13.1309 128.272 13.6609 128.109 14.3404C127.946 14.9927 127.687 15.6858 127.334 16.4196C127.144 16.8002 126.872 17.3438 126.519 18.0504C126.193 18.7571 125.866 19.3823 125.54 19.9259H127.497C127.687 19.9259 127.783 20.0618 127.783 20.3336C127.783 20.4423 127.755 20.5646 127.701 20.7005C127.647 20.8092 127.565 20.8636 127.456 20.8636H125.051C124.371 22.0323 123.597 23.1739 122.727 24.2882C121.857 25.4026 120.825 26.517 119.629 27.6314C119.547 27.876 119.438 28.2293 119.302 28.6914C119.194 29.1535 119.085 29.6291 118.976 30.1184C118.895 30.5804 118.813 30.9745 118.732 31.3007C118.677 31.6268 118.65 31.7899 118.65 31.7899C118.569 32.1433 118.528 32.4694 118.528 32.7684C118.528 33.3392 118.664 33.7605 118.935 34.0323C119.207 34.2769 119.52 34.3992 119.873 34.3992C120.091 34.3992 120.308 34.372 120.526 34.3177C120.743 34.2361 120.988 34.1002 121.259 33.91C122.211 33.2305 123.04 32.3063 123.746 31.1376C124.48 29.9689 125.119 28.8409 125.663 27.7537C125.826 27.4275 125.989 27.2645 126.152 27.2645C126.261 27.2645 126.315 27.346 126.315 27.5091C126.315 27.5906 126.274 27.7401 126.193 27.9575C125.595 29.2078 125.092 30.2135 124.684 30.9745C124.276 31.7356 123.882 32.3743 123.502 32.8907C123.121 33.38 122.673 33.8692 122.156 34.3584C121.776 34.739 121.341 35.0243 120.852 35.2146C120.362 35.4049 119.873 35.5 119.384 35.5ZM122.605 19.9259H124.684C125.065 19.2192 125.418 18.5261 125.744 17.8466C126.097 17.1671 126.41 16.4876 126.682 15.8081C126.872 15.3732 127.035 14.884 127.171 14.3404C127.307 13.7968 127.375 13.3755 127.375 13.0765C127.375 12.6688 127.28 12.4649 127.089 12.4649C126.954 12.4649 126.75 12.5873 126.478 12.8319C126.233 13.0493 125.921 13.4298 125.54 13.9734C125.051 14.6529 124.562 15.5363 124.073 16.6235C123.61 17.6835 123.121 18.7843 122.605 19.9259ZM119.955 26.3267C120.743 25.5113 121.477 24.6416 122.156 23.7175C122.863 22.7933 123.515 21.842 124.113 20.8636H122.197C121.762 21.8692 121.355 22.8477 120.974 23.799C120.593 24.7503 120.254 25.5929 119.955 26.3267ZM127.627 35.6223C126.485 35.6223 125.71 35.3233 125.303 34.7254C124.895 34.1002 124.691 33.3664 124.691 32.5238C124.691 31.654 124.813 30.7571 125.058 29.833C125.303 28.9088 125.52 28.1342 125.71 27.5091C126.145 25.987 126.689 24.3698 127.341 22.6574C128.021 20.9179 128.754 19.2192 129.543 17.5612C130.358 15.876 131.16 14.3675 131.948 13.0357C132.573 11.9757 133.239 11.1875 133.946 10.6711C134.68 10.1275 135.318 9.85567 135.862 9.85567C136.297 9.85567 136.637 10.0187 136.881 10.3449C137.153 10.6439 137.289 11.1059 137.289 11.7311C137.289 12.166 137.207 12.6824 137.044 13.2803C136.908 13.8783 136.664 14.5578 136.311 15.3188C135.359 17.4389 134.218 19.5589 132.886 21.679C131.581 23.799 129.923 25.7831 127.912 27.6314C127.803 27.9847 127.654 28.406 127.463 28.8953C127.3 29.3573 127.151 29.833 127.015 30.3222C126.852 31.0561 126.77 31.6812 126.77 32.1976C126.77 33.0402 126.933 33.6789 127.26 34.1138C127.613 34.5215 128.034 34.7254 128.523 34.7254C128.958 34.7254 129.42 34.5759 129.91 34.2769C130.399 33.9507 130.861 33.4887 131.296 32.8907C131.948 31.9394 132.533 30.9745 133.049 29.996C133.593 28.9904 134 28.2158 134.272 27.6722C134.435 27.3732 134.612 27.2237 134.802 27.2237C134.938 27.2237 135.006 27.3052 135.006 27.4683C135.006 27.6042 134.965 27.7537 134.884 27.9168C134.639 28.4604 134.313 29.1671 133.905 30.0368C133.525 30.8794 133.035 31.7356 132.437 32.6053C131.867 33.4479 131.174 34.1682 130.358 34.7661C129.57 35.3369 128.659 35.6223 127.627 35.6223ZM128.238 26.3267C129.217 25.3211 130.168 24.1659 131.092 22.8613C132.016 21.5295 132.872 20.1569 133.66 18.7435C134.476 17.303 135.155 15.944 135.699 14.6665C135.889 14.2588 136.039 13.8104 136.147 13.3211C136.283 12.8319 136.351 12.4242 136.351 12.098C136.351 11.7175 136.256 11.5272 136.066 11.5272C135.957 11.5272 135.794 11.636 135.577 11.8534C135.359 12.0437 135.074 12.3834 134.72 12.8726C134.204 13.5521 133.633 14.4763 133.008 15.645C132.41 16.8137 131.799 18.064 131.174 19.3958C130.548 20.7277 129.978 22.0187 129.461 23.269C128.945 24.4921 128.537 25.5113 128.238 26.3267ZM137.162 35.6631C136.157 35.6631 135.246 35.3369 134.431 34.6846C133.642 34.0323 133.248 33.0402 133.248 31.7084C133.248 30.4853 133.547 29.1806 134.145 27.7945C134.743 26.3811 135.504 25.1444 136.428 24.0844C137.217 23.1603 138.1 22.3992 139.078 21.8013C140.057 21.2033 140.981 20.9043 141.851 20.9043C142.449 20.9043 142.965 21.0674 143.4 21.3936C143.862 21.7469 144.093 22.2497 144.093 22.9021C144.093 23.5816 143.835 24.329 143.319 25.1444C142.802 25.9598 142.068 26.7209 141.117 27.4275C140.709 27.7265 140.193 28.0119 139.568 28.2837C138.943 28.5555 138.317 28.7865 137.692 28.9768C137.067 29.1399 136.551 29.2214 136.143 29.2214C136.007 29.5476 135.871 29.9825 135.735 30.5261C135.627 31.0697 135.572 31.6268 135.572 32.1976C135.572 32.8771 135.708 33.4887 135.98 34.0323C136.252 34.5759 136.755 34.8477 137.488 34.8477C138.385 34.8477 139.201 34.5895 139.935 34.073C140.668 33.5566 141.321 32.9179 141.892 32.1569C142.462 31.3686 142.938 30.5804 143.319 29.7922C143.726 29.004 144.052 28.3381 144.297 27.7945C144.46 27.4139 144.678 27.2237 144.949 27.2237C145.085 27.2237 145.153 27.2916 145.153 27.4275C145.153 27.5363 145.112 27.6722 145.031 27.8352C144.65 28.6506 144.243 29.5204 143.808 30.4445C143.373 31.3415 142.856 32.1976 142.258 33.013C141.661 33.8012 140.94 34.44 140.098 34.9292C139.282 35.4185 138.304 35.6631 137.162 35.6631ZM136.428 28.4876C136.809 28.4876 137.448 28.3517 138.345 28.0799C139.242 27.7809 140.057 27.3188 140.791 26.6937C141.497 26.0685 142.041 25.389 142.422 24.6552C142.802 23.8941 142.992 23.2554 142.992 22.739C142.992 22.141 142.775 21.842 142.34 21.842C142.014 21.842 141.565 22.0595 140.995 22.4944C140.424 22.9292 139.717 23.6631 138.875 24.6959C138.358 25.3483 137.869 26.0549 137.407 26.816C136.945 27.577 136.619 28.1342 136.428 28.4876ZM146.378 35.5C145.617 35.5 144.938 35.2418 144.34 34.7254C143.742 34.1818 143.443 33.3392 143.443 32.1976C143.443 31.3007 143.606 30.1999 143.932 28.8953C144.285 27.5634 144.707 26.1908 145.196 24.7775C145.712 23.3369 146.215 22.0323 146.704 20.8636H144.544C144.353 20.8636 144.258 20.7277 144.258 20.4559C144.258 20.32 144.285 20.1977 144.34 20.0889C144.421 19.9802 144.53 19.9259 144.666 19.9259H147.112C147.574 18.893 148.063 17.8874 148.58 16.9089C149.096 15.9304 149.599 15.0063 150.088 14.1365C150.713 13.0493 151.379 12.2339 152.086 11.6903C152.793 11.1467 153.404 10.8749 153.921 10.8749C154.328 10.8749 154.668 11.038 154.94 11.3642C155.212 11.6631 155.348 12.1252 155.348 12.7503C155.348 13.1309 155.266 13.6609 155.103 14.3404C154.94 14.9927 154.682 15.6858 154.328 16.4196C154.138 16.8002 153.866 17.3438 153.513 18.0504C153.187 18.7571 152.861 19.3823 152.534 19.9259H154.491C154.682 19.9259 154.777 20.0618 154.777 20.3336C154.777 20.4423 154.75 20.5646 154.695 20.7005C154.641 20.8092 154.559 20.8636 154.451 20.8636H152.045C151.366 22.0323 150.591 23.1739 149.721 24.2882C148.852 25.4026 147.819 26.517 146.623 27.6314C146.541 27.876 146.433 28.2293 146.297 28.6914C146.188 29.1535 146.079 29.6291 145.97 30.1184C145.889 30.5804 145.807 30.9745 145.726 31.3007C145.671 31.6268 145.644 31.7899 145.644 31.7899C145.563 32.1433 145.522 32.4694 145.522 32.7684C145.522 33.3392 145.658 33.7605 145.93 34.0323C146.202 34.2769 146.514 34.3992 146.867 34.3992C147.085 34.3992 147.302 34.372 147.52 34.3177C147.737 34.2361 147.982 34.1002 148.254 33.91C149.205 33.2305 150.034 32.3063 150.741 31.1376C151.474 29.9689 152.113 28.8409 152.657 27.7537C152.82 27.4275 152.983 27.2645 153.146 27.2645C153.255 27.2645 153.309 27.346 153.309 27.5091C153.309 27.5906 153.268 27.7401 153.187 27.9575C152.589 29.2078 152.086 30.2135 151.678 30.9745C151.271 31.7356 150.876 32.3743 150.496 32.8907C150.115 33.38 149.667 33.8692 149.151 34.3584C148.77 34.739 148.335 35.0243 147.846 35.2146C147.357 35.4049 146.867 35.5 146.378 35.5ZM149.599 19.9259H151.678C152.059 19.2192 152.412 18.5261 152.738 17.8466C153.092 17.1671 153.404 16.4876 153.676 15.8081C153.866 15.3732 154.029 14.884 154.165 14.3404C154.301 13.7968 154.369 13.3755 154.369 13.0765C154.369 12.6688 154.274 12.4649 154.084 12.4649C153.948 12.4649 153.744 12.5873 153.472 12.8319C153.228 13.0493 152.915 13.4298 152.534 13.9734C152.045 14.6529 151.556 15.5363 151.067 16.6235C150.605 17.6835 150.115 18.7843 149.599 19.9259ZM146.949 26.3267C147.737 25.5113 148.471 24.6416 149.151 23.7175C149.857 22.7933 150.51 21.842 151.107 20.8636H149.191C148.756 21.8692 148.349 22.8477 147.968 23.799C147.588 24.7503 147.248 25.5929 146.949 26.3267ZM154.539 35.5C153.506 35.5 152.745 35.1602 152.256 34.4807C151.767 33.7741 151.522 32.9179 151.522 31.9122C151.522 30.6891 151.808 29.4117 152.378 28.0799C152.922 26.8296 153.615 25.688 154.458 24.6552C155.3 23.6223 156.211 22.7933 157.189 22.1682C158.168 21.5159 159.119 21.1897 160.043 21.1897C161.076 21.1897 161.837 21.5295 162.326 22.209C162.815 22.8885 163.06 23.7446 163.06 24.7775C163.06 26.0278 162.775 27.3052 162.204 28.6099C161.878 29.3437 161.416 30.1591 160.818 31.0561C160.22 31.9258 159.54 32.7276 158.779 33.4615C158.942 33.7605 159.173 34.0187 159.472 34.2361C159.771 34.4264 160.179 34.5215 160.695 34.5215C161.348 34.5215 161.959 34.2497 162.53 33.7061C163.128 33.1625 163.672 32.5102 164.161 31.7492C164.65 30.9609 165.085 30.1727 165.466 29.3845C165.846 28.5963 166.159 27.9575 166.403 27.4683C166.485 27.3052 166.621 27.2237 166.811 27.2237C166.92 27.2237 167.001 27.278 167.056 27.3868C167.11 27.4683 167.096 27.6042 167.015 27.7945C166.852 28.2022 166.58 28.8137 166.199 29.6291C165.819 30.4173 165.357 31.2463 164.813 32.1161C164.27 32.9587 163.644 33.6789 162.938 34.2769C162.231 34.8749 161.443 35.1738 160.573 35.1738C159.975 35.1738 159.459 35.0787 159.024 34.8884C158.589 34.671 158.236 34.4128 157.964 34.1138C157.393 34.5487 156.822 34.8884 156.252 35.1331C155.681 35.3777 155.11 35.5 154.539 35.5ZM155.151 34.6031C155.885 34.6031 156.673 34.2497 157.515 33.543C157.298 33.2169 157.135 32.8771 157.026 32.5238C156.917 32.1704 156.863 31.8443 156.863 31.5453C156.863 31.0561 156.972 30.6348 157.189 30.2814C157.434 29.9281 157.801 29.7514 158.29 29.7514C158.643 29.7514 158.929 29.8873 159.146 30.1591C159.391 30.4037 159.513 30.6891 159.513 31.0153C159.513 31.0968 159.5 31.1784 159.472 31.2599C159.472 31.3143 159.459 31.3822 159.432 31.4638C159.894 30.8386 160.329 30.1048 160.736 29.2622C161.633 27.3324 162.082 25.7424 162.082 24.4921C162.082 23.867 161.959 23.3777 161.715 23.0244C161.47 22.671 161.103 22.4944 160.614 22.4944C160.043 22.4944 159.418 22.739 158.738 23.2282C158.086 23.7175 157.447 24.3698 156.822 25.1852C156.224 26.0006 155.694 26.9111 155.232 27.9168C154.797 28.8409 154.444 29.7378 154.172 30.6076C153.928 31.4502 153.805 32.184 153.805 32.8092C153.805 33.3528 153.914 33.7877 154.131 34.1138C154.349 34.44 154.689 34.6031 155.151 34.6031ZM169.133 35.6631C168.128 35.6631 167.217 35.3369 166.402 34.6846C165.613 34.0323 165.219 33.0402 165.219 31.7084C165.219 30.4853 165.518 29.1806 166.116 27.7945C166.714 26.3811 167.475 25.1444 168.399 24.0844C169.188 23.1603 170.071 22.3992 171.049 21.8013C172.028 21.2033 172.952 20.9043 173.822 20.9043C174.42 20.9043 174.936 21.0674 175.371 21.3936C175.833 21.7469 176.064 22.2497 176.064 22.9021C176.064 23.5816 175.806 24.329 175.29 25.1444C174.773 25.9598 174.039 26.7209 173.088 27.4275C172.68 27.7265 172.164 28.0119 171.539 28.2837C170.914 28.5555 170.288 28.7865 169.663 28.9768C169.038 29.1399 168.522 29.2214 168.114 29.2214C167.978 29.5476 167.842 29.9825 167.706 30.5261C167.598 31.0697 167.543 31.6268 167.543 32.1976C167.543 32.8771 167.679 33.4887 167.951 34.0323C168.223 34.5759 168.726 34.8477 169.459 34.8477C170.356 34.8477 171.172 34.5895 171.906 34.073C172.639 33.5566 173.292 32.9179 173.863 32.1569C174.433 31.3686 174.909 30.5804 175.29 29.7922C175.697 29.004 176.023 28.3381 176.268 27.7945C176.431 27.4139 176.649 27.2237 176.92 27.2237C177.056 27.2237 177.124 27.2916 177.124 27.4275C177.124 27.5363 177.083 27.6722 177.002 27.8352C176.621 28.6506 176.214 29.5204 175.779 30.4445C175.344 31.3415 174.827 32.1976 174.229 33.013C173.632 33.8012 172.911 34.44 172.069 34.9292C171.253 35.4185 170.275 35.6631 169.133 35.6631ZM168.399 28.4876C168.78 28.4876 169.419 28.3517 170.316 28.0799C171.213 27.7809 172.028 27.3188 172.762 26.6937C173.468 26.0685 174.012 25.389 174.393 24.6552C174.773 23.8941 174.963 23.2554 174.963 22.739C174.963 22.141 174.746 21.842 174.311 21.842C173.985 21.842 173.536 22.0595 172.966 22.4944C172.395 22.9292 171.688 23.6631 170.846 24.6959C170.329 25.3483 169.84 26.0549 169.378 26.816C168.916 27.577 168.59 28.1342 168.399 28.4876Z" fill="#955D34"/>
</svg>
