<svg width="64" height="64" viewBox="0 0 64 64" fill="none" xmlns="http://www.w3.org/2000/svg">
<rect width="64" height="64" fill="white"/>
<path d="M40.8766 18.067C40.2897 14.2921 37.0013 12 32.0002 12C26.999 12 23.7105 14.2921 23.1236 18.067C20.5592 20.4975 19.0935 23.8926 19.0935 27.4275V51.0868C19.0935 51.5911 19.5024 52 20.0067 52C20.5111 52 20.92 51.5911 20.92 51.0868V27.4275C20.92 25.0832 21.6713 22.8102 23.0285 20.9353V30.4132C23.0285 32.5444 23.776 34.504 25.0218 36.0448C25.0415 36.0723 25.0631 36.0987 25.0861 36.1243C26.7331 38.1146 29.2211 39.3848 32.0002 39.3848C34.7594 39.3848 37.2311 38.1325 38.8783 36.1668C38.9259 36.1201 38.9672 36.069 39.0025 36.015C40.234 34.4788 40.9718 32.5308 40.9718 30.4133V20.9353C42.3289 22.8102 43.0803 25.0832 43.0803 27.4275V51.0868C43.0803 51.5911 43.4891 52 43.9935 52C44.4979 52 44.9067 51.5911 44.9067 51.0868V27.4275C44.9067 23.8926 43.441 20.4975 40.8766 18.067ZM24.8549 19.3227C24.8549 14.362 29.8518 13.8265 32.0002 13.8265C34.1485 13.8265 39.1453 14.362 39.1453 19.3227V30.4132C39.1453 31.7455 38.7777 32.9932 38.1402 34.0619C36.4861 32.4825 34.3057 31.5953 32.0002 31.5953C29.6949 31.5953 27.5141 32.4825 25.8601 34.062C25.2225 32.9932 24.855 31.7456 24.855 30.4132V19.3227H24.8549ZM26.9952 35.5062C28.3258 34.1732 30.1111 33.4217 32.0002 33.4217C33.8893 33.4217 35.6745 34.1732 37.0051 35.5062C35.715 36.7742 33.9478 37.5584 32.0002 37.5584C30.0526 37.5583 28.2854 36.7742 26.9952 35.5062Z" fill="#6B0606"/>
</svg>
