<svg width="180" height="180" viewBox="0 0 180 180" fill="none" xmlns="http://www.w3.org/2000/svg">
<path d="M164.997 126.901V149.401C165.005 151.489 164.577 153.557 163.741 155.471C162.904 157.385 161.677 159.103 160.137 160.515C158.598 161.927 156.781 163.002 154.802 163.671C152.824 164.34 150.727 164.589 148.647 164.401C125.568 161.893 103.399 154.007 83.9218 141.376C65.8005 129.861 50.4368 114.497 38.9218 96.3757C26.2466 76.8098 18.3586 54.5332 15.8968 31.3507C15.7094 29.2767 15.9559 27.1864 16.6206 25.2129C17.2853 23.2394 18.3536 21.4259 19.7576 19.8879C21.1615 18.3499 22.8703 17.121 24.7752 16.2796C26.6801 15.4382 28.7394 15.0027 30.8218 15.0007H53.3218C56.9616 14.9649 60.4903 16.2538 63.25 18.6272C66.0098 21.0006 67.8124 24.2966 68.3218 27.9007C69.2715 35.1012 71.0327 42.1712 73.5718 48.9757C74.5809 51.6602 74.7993 54.5776 74.2011 57.3823C73.6029 60.1871 72.2133 62.7616 70.1968 64.8007L60.6718 74.3257C71.3485 93.1023 86.8952 108.649 105.672 119.326L115.197 109.801C117.236 107.784 119.81 106.395 122.615 105.796C125.42 105.198 128.337 105.417 131.022 106.426C137.826 108.965 144.896 110.726 152.097 111.676C155.74 112.19 159.067 114.025 161.446 116.832C163.824 119.639 165.088 123.223 164.997 126.901Z" stroke="#6B0606" stroke-opacity="1" stroke-width="10" stroke-linecap="round" stroke-linejoin="round"/>
</svg>
