<svg width="89" height="68" viewBox="0 0 89 68" fill="none" xmlns="http://www.w3.org/2000/svg">
<path d="M81.2729 0L88.5 6.3354C83.8709 10.3713 80.0921 14.2664 77.1634 18.0207C74.3293 21.6812 72.5344 24.45 71.7786 26.3271C71.0228 28.2043 70.3143 30.4569 69.653 33.0849L70.2198 33.9296C76.5494 33.9296 81.1785 35.2905 84.1071 38.0124C87.0357 40.7343 88.5 44.9579 88.5 50.6832C88.5 55.0946 86.894 59.0835 83.682 62.6501C80.5644 66.2167 76.6439 68 71.9203 68C66.5354 68 62.048 66.4983 58.4581 63.4948C54.8682 60.4914 53.0733 55.6577 53.0733 48.9938C53.0733 40.1712 55.8129 31.0669 61.2923 21.6812C66.8661 12.2015 73.5263 4.97447 81.2729 0ZM28.6997 0L35.9267 6.3354C31.2976 10.3713 27.566 14.2195 24.7319 17.8799C21.8977 21.5404 20.0556 24.3561 19.2053 26.3271C18.4495 28.2981 17.741 30.5507 17.0797 33.0849L17.6465 33.9296C23.9761 33.9296 28.6052 35.2905 31.5338 38.0124C34.4624 40.7343 35.9267 44.9579 35.9267 50.6832C35.9267 55.0946 34.3207 59.0835 31.1087 62.6501C27.9911 66.2167 24.0706 68 19.347 68C13.9622 68 9.47477 66.4983 5.88486 63.4948C2.29495 60.4914 0.5 55.6577 0.5 48.9938C0.5 40.1712 3.23967 31.0669 8.719 21.6812C14.2928 12.2015 20.953 4.97447 28.6997 0Z" fill="#6B0606"/>
</svg>
